<svg xmlns="http://www.w3.org/2000/svg" xmlns:xlink="http://www.w3.org/1999/xlink" width="1080" zoomAndPan="magnify" viewBox="0 0 810 809.999993" height="1080" preserveAspectRatio="xMidYMid meet" version="1.0"><defs><clipPath id="b8e92ef597"><path d="M 177 570 L 320 570 L 320 713.292969 L 177 713.292969 Z M 177 570 " clip-rule="nonzero"/></clipPath><clipPath id="83507556eb"><path d="M 662 570 L 805 570 L 805 713.292969 L 662 713.292969 Z M 662 570 " clip-rule="nonzero"/></clipPath></defs><path fill="#ffffff" d="M 252.277344 603.109375 C 251.910156 603.109375 251.53125 603.097656 251.160156 603.070312 C 242.273438 602.46875 235.539062 594.769531 236.152344 585.875 L 240.652344 519.539062 L 150.503906 163.859375 C 145.886719 144.660156 129.777344 130.148438 110.390625 127.542969 L 15.152344 114.8125 C 6.320312 113.640625 0.109375 105.511719 1.296875 96.667969 C 2.476562 87.84375 10.480469 81.558594 19.441406 82.8125 L 114.675781 95.542969 C 147.164062 99.875 174.167969 124.222656 181.855469 156.105469 L 272.59375 514.109375 C 273.007812 515.757812 273.160156 517.460938 273.042969 519.164062 L 268.359375 588.0625 C 267.785156 596.589844 260.6875 603.109375 252.277344 603.109375 " fill-opacity="1" fill-rule="nonzero"/><path fill="#ffffff" d="M 678.382812 658.195312 L 303.601562 658.195312 C 294.6875 658.195312 287.449219 650.964844 287.449219 642.050781 C 287.449219 633.136719 294.6875 625.90625 303.601562 625.90625 L 678.382812 625.90625 C 687.296875 625.90625 694.535156 633.136719 694.535156 642.050781 C 694.535156 650.964844 687.296875 658.195312 678.382812 658.195312 " fill-opacity="1" fill-rule="nonzero"/><path fill="#ffffff" d="M 709.691406 534.21875 L 256.933594 534.21875 C 249.550781 534.21875 243.101562 529.203125 241.285156 522.035156 L 159.066406 197.625 C 157.761719 192.472656 159.078125 187.007812 162.578125 183.011719 C 166.101562 179.011719 171.386719 176.914062 176.609375 177.625 L 297.578125 191.925781 C 306.4375 192.96875 312.769531 201 311.714844 209.84375 C 310.671875 218.703125 302.613281 225.132812 293.789062 223.988281 L 196.148438 212.453125 L 269.496094 501.917969 L 709.691406 501.917969 C 723.429688 501.917969 735.101562 492.554688 738.082031 479.148438 L 774.941406 313.039062 C 776.753906 304.917969 775.085938 296.707031 770.269531 289.933594 C 765.460938 283.136719 758.257812 278.859375 749.992188 277.867188 L 731.550781 275.699219 C 722.710938 274.65625 716.363281 266.632812 717.414062 257.773438 C 718.46875 248.921875 726.511719 242.535156 735.34375 243.636719 L 753.800781 245.804688 C 771 247.847656 786.59375 257.125 796.617188 271.242188 C 806.628906 285.359375 810.222656 303.144531 806.476562 320.035156 L 769.613281 486.152344 C 763.328125 514.453125 738.683594 534.21875 709.691406 534.21875 " fill-opacity="1" fill-rule="nonzero"/><g clip-path="url(#b8e92ef597)"><path fill="#ffffff" d="M 248.515625 603.109375 C 227.039062 603.109375 209.5625 620.585938 209.5625 642.050781 C 209.5625 663.527344 227.039062 680.992188 248.515625 680.992188 C 269.980469 680.992188 287.449219 663.527344 287.449219 642.050781 C 287.449219 620.585938 269.980469 603.109375 248.515625 603.109375 Z M 248.515625 713.292969 C 209.230469 713.292969 177.273438 681.335938 177.273438 642.050781 C 177.273438 602.773438 209.230469 570.820312 248.515625 570.820312 C 287.792969 570.820312 319.746094 602.773438 319.746094 642.050781 C 319.746094 681.335938 287.792969 713.292969 248.515625 713.292969 " fill-opacity="1" fill-rule="nonzero"/></g><g clip-path="url(#83507556eb)"><path fill="#ffffff" d="M 733.46875 603.109375 C 712.003906 603.109375 694.535156 620.585938 694.535156 642.050781 C 694.535156 663.527344 712.003906 680.992188 733.46875 680.992188 C 754.945312 680.992188 772.421875 663.527344 772.421875 642.050781 C 772.421875 620.585938 754.945312 603.109375 733.46875 603.109375 Z M 733.46875 713.292969 C 694.195312 713.292969 662.238281 681.335938 662.238281 642.050781 C 662.238281 602.773438 694.195312 570.820312 733.46875 570.820312 C 772.753906 570.820312 804.710938 602.773438 804.710938 642.050781 C 804.710938 681.335938 772.753906 713.292969 733.46875 713.292969 " fill-opacity="1" fill-rule="nonzero"/></g><path fill="#ffffff" d="M 384.550781 258.644531 C 378.714844 258.644531 373.214844 260.933594 369.082031 265.054688 C 364.949219 269.1875 362.667969 274.691406 362.667969 280.523438 C 362.667969 286.367188 364.949219 291.859375 369.082031 295.996094 L 472.023438 398.9375 C 473.941406 400.855469 477.058594 400.855469 478.96875 398.9375 L 643.976562 233.929688 C 652.503906 225.402344 652.503906 211.527344 643.96875 203 C 635.449219 194.480469 621.574219 194.480469 613.039062 203 L 486.910156 329.121094 C 480.605469 335.421875 470.386719 335.421875 464.082031 329.121094 L 400.019531 265.054688 C 395.886719 260.933594 390.394531 258.644531 384.550781 258.644531 Z M 475.492188 432.667969 C 465.558594 432.667969 456.214844 428.796875 449.199219 421.773438 L 346.246094 318.828125 C 336.007812 308.601562 330.371094 294.984375 330.371094 280.523438 C 330.371094 266.054688 336.015625 252.449219 346.246094 242.222656 C 366.703125 221.746094 402.386719 221.773438 422.863281 242.222656 L 475.492188 294.867188 L 590.214844 180.15625 C 611.300781 159.03125 645.671875 159.03125 666.8125 180.15625 C 666.8125 180.15625 666.8125 180.15625 666.820312 180.15625 C 687.925781 201.289062 687.925781 235.65625 666.8125 256.761719 L 501.800781 421.773438 C 494.777344 428.796875 485.433594 432.667969 475.492188 432.667969 " fill-opacity="1" fill-rule="nonzero"/></svg>