<svg xmlns="http://www.w3.org/2000/svg" xmlns:xlink="http://www.w3.org/1999/xlink" width="1080" zoomAndPan="magnify" viewBox="0 0 810 809.999993" height="1080" preserveAspectRatio="xMidYMid meet" version="1.0"><defs><clipPath id="d877283dfd"><path d="M 0 136.179688 L 810 136.179688 L 810 673.929688 L 0 673.929688 Z M 0 136.179688 " clip-rule="nonzero"/></clipPath></defs><path fill="#ffffff" d="M 61.027344 622.894531 L 748.929688 622.894531 C 752.824219 622.894531 755.972656 619.746094 755.972656 615.851562 L 755.972656 255.089844 C 755.972656 251.195312 752.824219 248.046875 748.929688 248.046875 L 61.027344 248.046875 C 57.132812 248.046875 53.984375 251.195312 53.984375 255.089844 L 53.984375 615.851562 C 53.984375 619.746094 57.132812 622.894531 61.027344 622.894531 Z M 68.070312 262.132812 L 741.886719 262.132812 L 741.886719 608.808594 L 68.070312 608.808594 Z M 68.070312 262.132812 " fill-opacity="1" fill-rule="nonzero"/><path fill="#ffffff" d="M 174.996094 317.929688 C 141.542969 317.929688 114.316406 345.152344 114.316406 378.609375 C 114.316406 412.0625 141.542969 439.289062 174.996094 439.289062 C 208.453125 439.289062 235.675781 412.0625 235.675781 378.609375 C 235.675781 345.152344 208.453125 317.929688 174.996094 317.929688 Z M 174.996094 332.015625 C 198.285156 332.015625 217.453125 349.226562 220.878906 371.566406 L 129.117188 371.566406 C 132.542969 349.226562 151.710938 332.015625 174.996094 332.015625 Z M 174.996094 425.199219 C 151.710938 425.199219 132.542969 407.992188 129.117188 385.652344 L 220.878906 385.652344 C 217.453125 407.992188 198.285156 425.199219 174.996094 425.199219 Z M 174.996094 425.199219 " fill-opacity="1" fill-rule="nonzero"/><path fill="#ffffff" d="M 476.386719 314.007812 L 333.566406 314.007812 C 318.558594 314.007812 306.34375 326.210938 306.34375 341.21875 L 306.34375 499.898438 C 306.34375 514.90625 318.558594 527.121094 333.566406 527.121094 L 476.386719 527.121094 C 491.394531 527.121094 503.609375 514.90625 503.609375 499.898438 L 503.609375 341.21875 C 503.609375 326.210938 491.394531 314.007812 476.386719 314.007812 Z M 489.523438 499.898438 C 489.523438 507.148438 483.636719 513.035156 476.386719 513.035156 L 333.566406 513.035156 C 326.316406 513.035156 320.429688 507.148438 320.429688 499.898438 L 320.429688 341.21875 C 320.429688 333.980469 326.316406 328.09375 333.566406 328.09375 L 476.386719 328.09375 C 483.636719 328.09375 489.523438 333.980469 489.523438 341.21875 Z M 489.523438 499.898438 " fill-opacity="1" fill-rule="nonzero"/><path fill="#ffffff" d="M 410.628906 375.6875 L 399.328125 375.6875 C 393.816406 375.6875 389.351562 380.15625 389.351562 385.667969 C 389.351562 391.179688 393.816406 395.644531 399.328125 395.644531 L 410.628906 395.644531 C 416.136719 395.644531 420.605469 391.175781 420.605469 385.667969 C 420.605469 380.15625 416.136719 375.6875 410.628906 375.6875 Z M 410.628906 375.6875 " fill-opacity="1" fill-rule="nonzero"/><path fill="#ffffff" d="M 452.734375 375.6875 L 441.433594 375.6875 C 435.921875 375.6875 431.453125 380.15625 431.453125 385.667969 C 431.453125 391.179688 435.921875 395.644531 441.433594 395.644531 L 452.734375 395.644531 C 458.242188 395.644531 462.710938 391.175781 462.710938 385.667969 C 462.710938 380.15625 458.242188 375.6875 452.734375 375.6875 Z M 452.734375 375.6875 " fill-opacity="1" fill-rule="nonzero"/><path fill="#ffffff" d="M 368.519531 375.6875 L 357.222656 375.6875 C 351.714844 375.6875 347.246094 380.15625 347.246094 385.667969 C 347.246094 391.179688 351.714844 395.644531 357.222656 395.644531 L 368.519531 395.644531 C 374.03125 395.644531 378.5 391.175781 378.5 385.667969 C 378.5 380.15625 374.03125 375.6875 368.519531 375.6875 Z M 368.519531 375.6875 " fill-opacity="1" fill-rule="nonzero"/><path fill="#ffffff" d="M 410.628906 405.511719 L 399.328125 405.511719 C 393.816406 405.511719 389.351562 409.980469 389.351562 415.488281 C 389.351562 421 393.816406 425.464844 399.328125 425.464844 L 410.628906 425.464844 C 416.136719 425.464844 420.605469 421 420.605469 415.488281 C 420.605469 409.980469 416.136719 405.511719 410.628906 405.511719 Z M 410.628906 405.511719 " fill-opacity="1" fill-rule="nonzero"/><path fill="#ffffff" d="M 452.734375 405.511719 L 441.433594 405.511719 C 435.921875 405.511719 431.453125 409.980469 431.453125 415.488281 C 431.453125 421 435.921875 425.464844 441.433594 425.464844 L 452.734375 425.464844 C 458.242188 425.464844 462.710938 421 462.710938 415.488281 C 462.710938 409.980469 458.242188 405.511719 452.734375 405.511719 Z M 452.734375 405.511719 " fill-opacity="1" fill-rule="nonzero"/><path fill="#ffffff" d="M 368.519531 405.511719 L 357.222656 405.511719 C 351.714844 405.511719 347.246094 409.980469 347.246094 415.488281 C 347.246094 421 351.714844 425.464844 357.222656 425.464844 L 368.519531 425.464844 C 374.03125 425.464844 378.5 421 378.5 415.488281 C 378.5 409.980469 374.03125 405.511719 368.519531 405.511719 Z M 368.519531 405.511719 " fill-opacity="1" fill-rule="nonzero"/><path fill="#ffffff" d="M 410.628906 435.335938 L 399.328125 435.335938 C 393.816406 435.335938 389.351562 439.800781 389.351562 445.3125 C 389.351562 450.824219 393.816406 455.289062 399.328125 455.289062 L 410.628906 455.289062 C 416.136719 455.289062 420.605469 450.824219 420.605469 445.3125 C 420.605469 439.800781 416.136719 435.335938 410.628906 435.335938 Z M 410.628906 435.335938 " fill-opacity="1" fill-rule="nonzero"/><path fill="#ffffff" d="M 452.734375 435.335938 L 441.433594 435.335938 C 435.921875 435.335938 431.453125 439.800781 431.453125 445.3125 C 431.453125 450.824219 435.921875 455.289062 441.433594 455.289062 L 452.734375 455.289062 C 458.242188 455.289062 462.710938 450.824219 462.710938 445.3125 C 462.710938 439.800781 458.242188 435.335938 452.734375 435.335938 Z M 452.734375 435.335938 " fill-opacity="1" fill-rule="nonzero"/><path fill="#ffffff" d="M 368.519531 435.335938 L 357.222656 435.335938 C 351.714844 435.335938 347.246094 439.800781 347.246094 445.3125 C 347.246094 450.824219 351.714844 455.289062 357.222656 455.289062 L 368.519531 455.289062 C 374.03125 455.289062 378.5 450.824219 378.5 445.3125 C 378.5 439.800781 374.03125 435.335938 368.519531 435.335938 Z M 368.519531 435.335938 " fill-opacity="1" fill-rule="nonzero"/><path fill="#ffffff" d="M 410.628906 465.160156 L 399.328125 465.160156 C 393.816406 465.160156 389.351562 469.625 389.351562 475.136719 C 389.351562 480.644531 393.816406 485.113281 399.328125 485.113281 L 410.628906 485.113281 C 416.136719 485.113281 420.605469 480.644531 420.605469 475.136719 C 420.605469 469.625 416.136719 465.160156 410.628906 465.160156 Z M 410.628906 465.160156 " fill-opacity="1" fill-rule="nonzero"/><path fill="#ffffff" d="M 452.734375 465.160156 L 441.433594 465.160156 C 435.921875 465.160156 431.453125 469.625 431.453125 475.136719 C 431.453125 480.644531 435.921875 485.113281 441.433594 485.113281 L 452.734375 485.113281 C 458.242188 485.113281 462.710938 480.644531 462.710938 475.136719 C 462.710938 469.625 458.242188 465.160156 452.734375 465.160156 Z M 452.734375 465.160156 " fill-opacity="1" fill-rule="nonzero"/><path fill="#ffffff" d="M 368.519531 465.160156 L 357.222656 465.160156 C 351.714844 465.160156 347.246094 469.625 347.246094 475.136719 C 347.246094 480.644531 351.714844 485.113281 357.222656 485.113281 L 368.519531 485.113281 C 374.03125 485.113281 378.5 480.644531 378.5 475.136719 C 378.5 469.625 374.03125 465.160156 368.519531 465.160156 Z M 368.519531 465.160156 " fill-opacity="1" fill-rule="nonzero"/><g clip-path="url(#d877283dfd)"><path fill="#ffffff" d="M 809.59375 194.246094 C 809.261719 193.042969 808.726562 191.929688 807.859375 191.078125 C 807.847656 191.054688 753.851562 138.203125 753.851562 138.203125 C 752.535156 136.910156 750.773438 136.191406 748.929688 136.191406 L 66.898438 136.191406 C 65.179688 136.191406 63.53125 136.824219 62.234375 137.953125 L 2.367188 190.804688 C 1.378906 191.785156 0.765625 192.859375 0.394531 194.066406 C 0.308594 194.351562 0.277344 194.609375 0.230469 194.902344 C 0.160156 195.304688 -0.0117188 195.667969 -0.0117188 196.089844 L -0.0117188 666.804688 C -0.0117188 670.699219 3.140625 673.847656 7.03125 673.847656 L 802.921875 673.847656 C 806.816406 673.847656 809.964844 670.699219 809.964844 666.804688 L 809.964844 196.089844 C 809.964844 195.753906 809.820312 195.46875 809.777344 195.148438 C 809.730469 194.832031 809.679688 194.554688 809.59375 194.246094 Z M 69.570312 150.277344 L 746.054688 150.277344 L 785.65625 189.046875 L 25.660156 189.046875 Z M 795.878906 659.761719 L 14.074219 659.761719 L 14.074219 203.132812 L 795.878906 203.132812 Z M 795.878906 659.761719 " fill-opacity="1" fill-rule="nonzero"/></g><path fill="#ffffff" d="M 245.125 463.757812 C 236.015625 463.757812 228.628906 471.140625 228.628906 480.25 C 228.628906 489.359375 236.015625 496.746094 245.125 496.746094 C 254.234375 496.746094 261.617188 489.359375 261.617188 480.25 C 261.617188 471.144531 254.234375 463.757812 245.125 463.757812 Z M 245.125 463.757812 " fill-opacity="1" fill-rule="nonzero"/></svg>