<svg xmlns="http://www.w3.org/2000/svg" xmlns:xlink="http://www.w3.org/1999/xlink" width="1080" zoomAndPan="magnify" viewBox="0 0 810 809.999993" height="1080" preserveAspectRatio="xMidYMid meet" version="1.0"><defs><clipPath id="6e25aae882"><path d="M 198 446 L 612 446 L 612 726.75 L 198 726.75 Z M 198 446 " clip-rule="nonzero"/></clipPath></defs><path stroke-linecap="butt" transform="matrix(0.215181, 0, 0, -0.215181, -123.806681, 932.900541)" fill="none" stroke-linejoin="miter" d="M 2803.284896 2099.915956 C 2803.24859 2108.084961 2803.19413 2108.992628 2803.19413 2107.37698 L 2803.19413 2106.487467 C 2803.19413 2104.690286 2803.19413 2101.749444 2803.284896 2099.915956 Z M 2803.284896 2099.915956 " stroke="#212121" stroke-width="153.600998" stroke-opacity="1" stroke-miterlimit="2.613"/><path fill="#ffffff" d="M 636.402344 283.011719 C 654.207031 283.011719 670.503906 274.035156 682.457031 259.511719 C 695.148438 244.105469 702.992188 222.578125 702.992188 198.578125 C 702.992188 173.472656 700.496094 151.128906 690.738281 136.167969 C 681.859375 122.558594 665.402344 114.144531 636.402344 114.144531 C 607.394531 114.144531 590.9375 122.558594 582.0625 136.167969 C 572.3125 151.128906 569.804688 173.472656 569.804688 198.578125 C 569.804688 222.578125 577.65625 244.105469 590.339844 259.511719 C 602.292969 274.035156 618.59375 283.011719 636.402344 283.011719 Z M 707.890625 280.425781 C 689.761719 302.445312 664.496094 316.070312 636.402344 316.070312 C 608.304688 316.070312 583.035156 302.445312 564.90625 280.425781 C 547.515625 259.300781 536.757812 230.351562 536.757812 198.578125 C 536.757812 167.933594 540.363281 139.800781 554.433594 118.222656 C 569.394531 95.285156 594.503906 81.097656 636.402344 81.097656 C 678.296875 81.097656 703.402344 95.285156 718.367188 118.222656 C 732.4375 139.800781 736.050781 167.933594 736.050781 198.578125 C 736.050781 230.351562 725.28125 259.300781 707.890625 280.425781 " fill-opacity="1" fill-rule="nonzero"/><path fill="#ffffff" d="M 776.75 477.222656 C 776.035156 432 773.027344 403.363281 760.089844 385.628906 C 748.273438 369.421875 726.046875 360 686.9375 352.324219 C 678.042969 359.25 661.433594 368.574219 636.402344 368.574219 C 611.363281 368.574219 594.753906 359.25 585.859375 352.324219 C 560.667969 357.265625 542.488281 362.933594 529.578125 370.683594 C 533.890625 357.820312 536.671875 344.421875 537.933594 330.890625 C 551.894531 325.972656 568.394531 321.964844 587.972656 318.425781 L 597.605469 316.695312 L 603.722656 324.300781 C 603.746094 324.335938 612.488281 335.511719 636.402344 335.511719 C 660.300781 335.511719 669.042969 324.335938 669.066406 324.300781 L 675.195312 316.695312 L 684.820312 318.425781 C 737.816406 327.992188 768.285156 341.027344 786.683594 366.261719 C 804.75 391.023438 808.851562 424.789062 809.675781 476.699219 L 809.707031 478.976562 C 809.808594 484.988281 809.910156 490.941406 809.910156 491.242188 L 807.96875 498.925781 C 807.882812 499.085938 780.324219 554.359375 636.402344 554.359375 C 631.242188 554.359375 626.25 554.285156 621.382812 554.140625 C 619.097656 542.589844 615.960938 531.335938 611.632812 520.761719 C 619.382812 521.117188 627.621094 521.308594 636.402344 521.308594 C 739.730469 521.308594 769.722656 495.09375 776.851562 486.359375 C 776.835938 482.46875 776.808594 480.996094 776.785156 479.492188 L 776.75 477.222656 " fill-opacity="1" fill-rule="nonzero"/><path fill="#ffffff" d="M 405.042969 407.976562 C 427.679688 407.976562 448.347656 396.613281 463.476562 378.246094 C 479.328125 358.988281 489.140625 332.152344 489.140625 302.285156 C 489.140625 271.3125 485.988281 243.648438 473.722656 224.847656 C 462.34375 207.398438 441.503906 196.597656 405.042969 196.597656 C 368.570312 196.597656 347.742188 207.398438 336.359375 224.847656 C 324.089844 243.648438 320.945312 271.3125 320.945312 302.285156 C 320.945312 332.152344 330.753906 358.988281 346.605469 378.246094 C 361.730469 396.613281 382.40625 407.976562 405.042969 407.976562 Z M 488.902344 399.160156 C 467.613281 425.03125 437.976562 441.027344 405.042969 441.027344 C 372.109375 441.027344 342.472656 425.03125 321.179688 399.167969 C 300.613281 374.1875 287.894531 339.925781 287.894531 302.285156 C 287.894531 265.765625 292.148438 232.320312 308.730469 206.902344 C 326.199219 180.113281 355.675781 163.546875 405.042969 163.546875 C 454.398438 163.546875 483.878906 180.113281 501.351562 206.902344 C 517.9375 232.320312 522.191406 265.765625 522.191406 302.285156 C 522.191406 339.925781 509.472656 374.1875 488.902344 399.160156 " fill-opacity="1" fill-rule="nonzero"/><g clip-path="url(#6e25aae882)"><path fill="#ffffff" d="M 578.40625 637.09375 C 577.53125 581.652344 573.765625 546.441406 557.566406 524.234375 C 542.523438 503.589844 514.558594 491.789062 465.328125 482.257812 C 455.417969 490.335938 435.679688 502.144531 405.042969 502.144531 C 374.402344 502.144531 354.667969 490.335938 344.75 482.257812 C 296.054688 491.679688 268.160156 503.347656 252.996094 523.585938 C 236.765625 545.265625 232.746094 579.492188 231.746094 633.277344 L 231.703125 635.269531 C 231.628906 639.171875 231.5625 642.683594 231.542969 649.347656 C 239.511719 659.679688 275.699219 694 405.042969 694 C 534.386719 694 570.570312 659.679688 578.539062 649.347656 C 578.523438 644.375 578.488281 642.164062 578.449219 639.953125 Z M 584.171875 504.867188 C 605.488281 534.109375 610.347656 574.441406 611.328125 636.582031 L 611.371094 639.441406 C 611.488281 646.257812 611.597656 652.9375 611.597656 654.125 L 609.65625 661.804688 C 609.554688 661.992188 577.128906 727.050781 405.042969 727.050781 C 232.957031 727.050781 200.519531 661.992188 200.417969 661.804688 L 198.484375 654.125 C 198.484375 650.449219 198.621094 643.113281 198.78125 634.757812 L 198.820312 632.757812 C 199.957031 572.0625 205.160156 532.539062 226.660156 503.832031 C 248.40625 474.808594 284.539062 459.621094 347.035156 448.339844 L 356.636719 446.601562 L 362.789062 454.207031 C 362.820312 454.257812 374.421875 469.09375 405.042969 469.09375 C 435.65625 469.09375 447.261719 454.257812 447.296875 454.207031 L 453.441406 446.601562 L 463.046875 448.339844 C 526.257812 459.746094 562.503906 475.164062 584.171875 504.867188 " fill-opacity="1" fill-rule="nonzero"/></g><path fill="#ffffff" d="M 173.640625 283.011719 C 155.835938 283.011719 139.539062 274.035156 127.585938 259.511719 C 114.902344 244.105469 107.050781 222.578125 107.050781 198.578125 C 107.050781 173.472656 109.546875 151.128906 119.304688 136.167969 C 128.183594 122.558594 144.640625 114.144531 173.640625 114.144531 C 202.644531 114.144531 219.105469 122.558594 227.980469 136.167969 C 237.738281 151.128906 240.234375 173.472656 240.234375 198.578125 C 240.234375 222.578125 232.382812 244.105469 219.699219 259.511719 C 207.75 274.035156 191.449219 283.011719 173.640625 283.011719 Z M 102.148438 280.425781 C 120.28125 302.445312 145.546875 316.070312 173.640625 316.070312 C 201.738281 316.070312 227.003906 302.445312 245.136719 280.425781 C 262.527344 259.300781 273.285156 230.351562 273.285156 198.578125 C 273.285156 167.933594 269.679688 139.800781 255.609375 118.222656 C 240.648438 95.285156 215.539062 81.097656 173.640625 81.097656 C 131.746094 81.097656 106.636719 95.285156 91.675781 118.222656 C 77.605469 139.800781 73.992188 167.933594 73.992188 198.578125 C 73.992188 230.351562 84.757812 259.300781 102.148438 280.425781 " fill-opacity="1" fill-rule="nonzero"/><path fill="#ffffff" d="M 33.292969 477.222656 C 34.007812 432 37.015625 403.363281 49.953125 385.628906 C 61.769531 369.421875 83.992188 360 123.105469 352.324219 C 131.996094 359.25 148.605469 368.574219 173.640625 368.574219 C 198.679688 368.574219 215.289062 359.25 224.179688 352.324219 C 249.371094 357.265625 267.554688 362.933594 280.472656 370.683594 C 276.152344 357.820312 273.363281 344.421875 272.109375 330.890625 C 258.148438 325.972656 241.648438 321.964844 222.070312 318.425781 L 212.445312 316.695312 L 206.3125 324.300781 C 206.292969 324.335938 197.550781 335.511719 173.640625 335.511719 C 149.742188 335.511719 141 324.335938 140.976562 324.300781 L 134.847656 316.695312 L 125.222656 318.425781 C 72.226562 327.992188 41.757812 341.027344 23.355469 366.261719 C 5.292969 391.023438 1.191406 424.789062 0.367188 476.699219 L 0.335938 478.976562 C 0.234375 484.988281 0.132812 490.941406 0.132812 491.242188 L 2.074219 498.925781 C 2.15625 499.085938 29.726562 554.359375 173.640625 554.359375 C 178.800781 554.359375 183.792969 554.285156 188.660156 554.140625 C 190.945312 542.589844 194.082031 531.335938 198.410156 520.761719 C 190.660156 521.117188 182.421875 521.308594 173.640625 521.308594 C 70.308594 521.308594 40.320312 495.09375 33.191406 486.359375 C 33.207031 482.46875 33.234375 480.996094 33.257812 479.492188 L 33.292969 477.222656 " fill-opacity="1" fill-rule="nonzero"/></svg>