<svg xmlns="http://www.w3.org/2000/svg" xmlns:xlink="http://www.w3.org/1999/xlink" width="1080" zoomAndPan="magnify" viewBox="0 0 810 809.999993" height="1080" preserveAspectRatio="xMidYMid meet" version="1.0"><defs><clipPath id="da15e6408a"><path d="M 1 254 L 809 254 L 809 658.125 L 1 658.125 Z M 1 254 " clip-rule="nonzero"/></clipPath></defs><g clip-path="url(#da15e6408a)"><path fill="#ffffff" d="M 796.367188 658.125 L 13.632812 658.125 C 12.804688 658.125 11.984375 658.042969 11.171875 657.882812 C 10.359375 657.71875 9.570312 657.480469 8.804688 657.164062 C 8.039062 656.847656 7.308594 656.457031 6.621094 655.996094 C 5.929688 655.535156 5.292969 655.011719 4.707031 654.425781 C 4.121094 653.839844 3.597656 653.203125 3.136719 652.515625 C 2.675781 651.824219 2.289062 651.097656 1.972656 650.332031 C 1.652344 649.566406 1.414062 648.777344 1.253906 647.964844 C 1.089844 647.148438 1.011719 646.328125 1.011719 645.5 L 1.011719 266.757812 C 1.011719 265.929688 1.089844 265.109375 1.253906 264.296875 C 1.414062 263.484375 1.652344 262.695312 1.972656 261.929688 C 2.289062 261.164062 2.675781 260.433594 3.136719 259.746094 C 3.597656 259.054688 4.121094 258.417969 4.707031 257.832031 C 5.292969 257.246094 5.929688 256.722656 6.621094 256.261719 C 7.308594 255.800781 8.039062 255.414062 8.804688 255.097656 C 9.570312 254.777344 10.359375 254.539062 11.171875 254.378906 C 11.984375 254.214844 12.804688 254.136719 13.632812 254.136719 L 341.875 254.136719 C 342.707031 254.136719 343.527344 254.214844 344.339844 254.378906 C 345.152344 254.539062 345.941406 254.777344 346.707031 255.097656 C 347.472656 255.414062 348.199219 255.800781 348.890625 256.261719 C 349.578125 256.722656 350.21875 257.246094 350.804688 257.832031 C 351.390625 258.417969 351.914062 259.054688 352.375 259.746094 C 352.835938 260.433594 353.222656 261.164062 353.539062 261.929688 C 353.855469 262.695312 354.097656 263.484375 354.257812 264.296875 C 354.421875 265.109375 354.5 265.929688 354.5 266.757812 C 354.5 267.589844 354.421875 268.410156 354.257812 269.222656 C 354.097656 270.035156 353.855469 270.824219 353.539062 271.589844 C 353.222656 272.355469 352.835938 273.085938 352.375 273.773438 C 351.914062 274.460938 351.390625 275.101562 350.804688 275.6875 C 350.21875 276.273438 349.578125 276.796875 348.890625 277.257812 C 348.199219 277.71875 347.472656 278.105469 346.707031 278.421875 C 345.941406 278.742188 345.152344 278.980469 344.339844 279.140625 C 343.527344 279.304688 342.707031 279.382812 341.875 279.382812 L 26.257812 279.382812 L 26.257812 632.875 L 783.742188 632.875 L 783.742188 279.382812 L 556.496094 279.382812 C 555.667969 279.382812 554.847656 279.304688 554.035156 279.140625 C 553.21875 278.980469 552.429688 278.742188 551.664062 278.421875 C 550.898438 278.105469 550.171875 277.71875 549.480469 277.257812 C 548.792969 276.796875 548.15625 276.273438 547.570312 275.6875 C 546.984375 275.101562 546.460938 274.460938 546 273.773438 C 545.539062 273.085938 545.148438 272.355469 544.832031 271.589844 C 544.515625 270.824219 544.277344 270.035156 544.113281 269.222656 C 543.953125 268.410156 543.871094 267.589844 543.871094 266.757812 C 543.871094 265.929688 543.953125 265.109375 544.113281 264.296875 C 544.277344 263.484375 544.515625 262.695312 544.832031 261.929688 C 545.148438 261.164062 545.539062 260.433594 546 259.746094 C 546.460938 259.054688 546.984375 258.417969 547.570312 257.832031 C 548.15625 257.246094 548.792969 256.722656 549.480469 256.261719 C 550.171875 255.800781 550.898438 255.414062 551.664062 255.097656 C 552.429688 254.777344 553.21875 254.539062 554.035156 254.378906 C 554.847656 254.214844 555.667969 254.136719 556.496094 254.136719 L 796.367188 254.136719 C 797.195312 254.136719 798.015625 254.214844 798.828125 254.378906 C 799.640625 254.539062 800.429688 254.777344 801.195312 255.097656 C 801.960938 255.414062 802.691406 255.800781 803.378906 256.261719 C 804.070312 256.722656 804.707031 257.246094 805.292969 257.832031 C 805.878906 258.417969 806.402344 259.054688 806.863281 259.746094 C 807.324219 260.433594 807.710938 261.164062 808.027344 261.929688 C 808.347656 262.695312 808.585938 263.484375 808.746094 264.296875 C 808.910156 265.109375 808.988281 265.929688 808.988281 266.757812 L 808.988281 645.5 C 808.988281 646.328125 808.910156 647.148438 808.746094 647.964844 C 808.585938 648.777344 808.347656 649.566406 808.027344 650.332031 C 807.710938 651.097656 807.324219 651.824219 806.863281 652.515625 C 806.402344 653.203125 805.878906 653.839844 805.292969 654.425781 C 804.707031 655.011719 804.070312 655.535156 803.378906 655.996094 C 802.691406 656.457031 801.960938 656.847656 801.195312 657.164062 C 800.429688 657.480469 799.640625 657.71875 798.828125 657.882812 C 798.015625 658.042969 797.195312 658.125 796.367188 658.125 Z M 796.367188 658.125 " fill-opacity="1" fill-rule="nonzero"/></g><path fill="#ffffff" d="M 215.628906 557.128906 C 213.957031 557.128906 212.34375 556.804688 210.800781 556.164062 C 209.253906 555.523438 207.886719 554.613281 206.703125 553.429688 L 156.207031 502.929688 C 155.621094 502.34375 155.097656 501.707031 154.636719 501.015625 C 154.175781 500.328125 153.785156 499.601562 153.46875 498.835938 C 153.152344 498.070312 152.914062 497.28125 152.75 496.464844 C 152.589844 495.652344 152.507812 494.832031 152.507812 494.003906 C 152.507812 493.175781 152.589844 492.355469 152.75 491.542969 C 152.914062 490.730469 153.152344 489.9375 153.46875 489.171875 C 153.785156 488.40625 154.175781 487.679688 154.636719 486.992188 C 155.097656 486.300781 155.621094 485.664062 156.207031 485.078125 L 433.949219 207.335938 C 434.535156 206.75 435.171875 206.226562 435.863281 205.765625 C 436.550781 205.304688 437.277344 204.917969 438.042969 204.597656 C 438.808594 204.28125 439.597656 204.042969 440.410156 203.882812 C 441.222656 203.71875 442.046875 203.640625 442.875 203.640625 C 443.703125 203.640625 444.523438 203.71875 445.335938 203.882812 C 446.148438 204.042969 446.9375 204.28125 447.703125 204.597656 C 448.46875 204.917969 449.199219 205.304688 449.886719 205.765625 C 450.574219 206.226562 451.214844 206.75 451.800781 207.335938 L 502.296875 257.835938 C 502.882812 258.421875 503.40625 259.058594 503.867188 259.746094 C 504.328125 260.4375 504.71875 261.164062 505.035156 261.929688 C 505.351562 262.695312 505.589844 263.484375 505.753906 264.296875 C 505.914062 265.109375 505.996094 265.929688 505.996094 266.757812 C 505.996094 267.589844 505.914062 268.410156 505.753906 269.222656 C 505.589844 270.035156 505.351562 270.824219 505.035156 271.589844 C 504.71875 272.355469 504.328125 273.082031 503.867188 273.773438 C 503.40625 274.460938 502.882812 275.097656 502.296875 275.683594 L 224.554688 553.429688 C 223.371094 554.613281 222.007812 555.523438 220.460938 556.164062 C 218.914062 556.804688 217.304688 557.128906 215.628906 557.128906 Z M 182.980469 494.003906 L 215.628906 526.652344 L 475.523438 266.757812 L 442.875 234.113281 Z M 182.980469 494.003906 " fill-opacity="1" fill-rule="nonzero"/><path fill="#ffffff" d="M 502.296875 275.683594 L 484.445312 257.835938 L 526.019531 216.261719 L 493.371094 183.613281 L 451.800781 225.1875 L 433.949219 207.335938 L 484.445312 156.835938 C 485.035156 156.25 485.671875 155.726562 486.359375 155.265625 C 487.050781 154.808594 487.777344 154.417969 488.542969 154.101562 C 489.308594 153.785156 490.097656 153.542969 490.910156 153.382812 C 491.722656 153.222656 492.542969 153.140625 493.371094 153.140625 C 494.203125 153.140625 495.023438 153.222656 495.835938 153.382812 C 496.648438 153.542969 497.4375 153.785156 498.203125 154.101562 C 498.96875 154.417969 499.695312 154.808594 500.386719 155.265625 C 501.074219 155.726562 501.710938 156.25 502.296875 156.835938 L 552.796875 207.335938 C 553.382812 207.921875 553.90625 208.558594 554.367188 209.25 C 554.828125 209.9375 555.214844 210.664062 555.53125 211.429688 C 555.851562 212.195312 556.089844 212.984375 556.25 213.796875 C 556.414062 214.609375 556.492188 215.433594 556.492188 216.261719 C 556.492188 217.089844 556.414062 217.910156 556.25 218.722656 C 556.089844 219.535156 555.851562 220.324219 555.53125 221.089844 C 555.214844 221.855469 554.828125 222.585938 554.367188 223.273438 C 553.90625 223.960938 553.382812 224.601562 552.796875 225.1875 Z M 502.296875 275.683594 " fill-opacity="1" fill-rule="nonzero"/><path fill="#ffffff" d="M 430.25 393.007812 C 429 393.007812 427.78125 392.824219 426.585938 392.460938 C 425.390625 392.101562 424.273438 391.570312 423.238281 390.878906 C 422.199219 390.183594 421.285156 389.355469 420.492188 388.390625 C 419.699219 387.425781 419.066406 386.367188 418.589844 385.210938 C 418.109375 384.058594 417.808594 382.863281 417.6875 381.621094 C 417.566406 380.378906 417.625 379.144531 417.871094 377.917969 C 418.113281 376.695312 418.527344 375.53125 419.117188 374.433594 C 419.707031 373.332031 420.441406 372.339844 421.324219 371.457031 L 500.769531 292.007812 L 484.445312 275.683594 C 483.878906 275.097656 483.371094 274.457031 482.925781 273.769531 C 482.480469 273.078125 482.105469 272.355469 481.800781 271.59375 C 481.5 270.832031 481.269531 270.046875 481.121094 269.242188 C 480.96875 268.4375 480.894531 267.625 480.902344 266.804688 C 480.910156 265.984375 480.996094 265.175781 481.160156 264.371094 C 481.328125 263.566406 481.566406 262.789062 481.886719 262.03125 C 482.203125 261.277344 482.589844 260.558594 483.046875 259.878906 C 483.503906 259.199219 484.019531 258.566406 484.601562 257.988281 C 485.179688 257.40625 485.808594 256.890625 486.492188 256.433594 C 487.171875 255.976562 487.890625 255.589844 488.644531 255.273438 C 489.402344 254.953125 490.179688 254.714844 490.984375 254.550781 C 491.789062 254.382812 492.597656 254.296875 493.417969 254.289062 C 494.238281 254.285156 495.050781 254.355469 495.855469 254.507812 C 496.660156 254.65625 497.445312 254.886719 498.207031 255.1875 C 498.96875 255.492188 499.691406 255.867188 500.382812 256.3125 C 501.070312 256.757812 501.707031 257.265625 502.296875 257.835938 L 527.546875 283.082031 C 528.132812 283.667969 528.65625 284.308594 529.117188 284.996094 C 529.578125 285.683594 529.964844 286.414062 530.285156 287.179688 C 530.601562 287.945312 530.839844 288.734375 531 289.546875 C 531.164062 290.359375 531.246094 291.179688 531.246094 292.007812 C 531.246094 292.835938 531.164062 293.660156 531 294.472656 C 530.839844 295.285156 530.601562 296.074219 530.285156 296.839844 C 529.964844 297.605469 529.578125 298.332031 529.117188 299.023438 C 528.65625 299.710938 528.132812 300.347656 527.546875 300.933594 L 439.175781 389.308594 C 437.992188 390.492188 436.625 391.402344 435.078125 392.042969 C 433.535156 392.6875 431.921875 393.007812 430.25 393.007812 Z M 430.25 393.007812 " fill-opacity="1" fill-rule="nonzero"/><path fill="#ffffff" d="M 127.257812 595 C 126.738281 595 126.21875 594.96875 125.703125 594.90625 C 125.1875 594.839844 124.675781 594.746094 124.171875 594.617188 C 123.667969 594.492188 123.171875 594.332031 122.6875 594.144531 C 122.203125 593.957031 121.730469 593.738281 121.273438 593.492188 C 120.8125 593.246094 120.371094 592.972656 119.949219 592.671875 C 119.523438 592.367188 119.121094 592.042969 118.738281 591.691406 C 118.351562 591.339844 117.992188 590.964844 117.652344 590.570312 C 117.316406 590.175781 117.003906 589.761719 116.71875 589.324219 C 116.429688 588.890625 116.171875 588.441406 115.941406 587.972656 C 115.710938 587.507812 115.511719 587.03125 115.339844 586.539062 C 115.167969 586.046875 115.027344 585.546875 114.917969 585.039062 C 114.808594 584.53125 114.730469 584.015625 114.683594 583.5 C 114.636719 582.980469 114.625 582.460938 114.640625 581.941406 C 114.660156 581.421875 114.707031 580.902344 114.789062 580.390625 C 114.871094 579.875 114.984375 579.371094 115.128906 578.871094 C 115.273438 578.371094 115.449219 577.882812 115.65625 577.402344 L 153.527344 489.03125 C 153.863281 488.28125 154.265625 487.570312 154.738281 486.898438 C 155.214844 486.226562 155.746094 485.605469 156.339844 485.039062 C 156.933594 484.472656 157.578125 483.96875 158.269531 483.527344 C 158.964844 483.085938 159.691406 482.714844 160.457031 482.414062 C 161.222656 482.113281 162.007812 481.890625 162.816406 481.746094 C 163.625 481.601562 164.4375 481.535156 165.261719 481.546875 C 166.082031 481.558594 166.894531 481.652344 167.699219 481.824219 C 168.5 481.996094 169.28125 482.242188 170.035156 482.566406 C 170.789062 482.890625 171.507812 483.285156 172.183594 483.746094 C 172.863281 484.210938 173.488281 484.734375 174.066406 485.320312 C 174.640625 485.90625 175.152344 486.542969 175.605469 487.230469 C 176.058594 487.914062 176.4375 488.636719 176.75 489.398438 C 177.058594 490.160156 177.292969 490.941406 177.449219 491.75 C 177.609375 492.554688 177.6875 493.367188 177.683594 494.191406 C 177.683594 495.011719 177.601562 495.824219 177.441406 496.628906 C 177.28125 497.4375 177.046875 498.21875 176.734375 498.976562 L 151.242188 558.390625 L 210.578125 532.953125 C 211.34375 532.609375 212.132812 532.347656 212.949219 532.164062 C 213.765625 531.980469 214.59375 531.878906 215.429688 531.859375 C 216.265625 531.84375 217.09375 531.90625 217.917969 532.050781 C 218.742188 532.195312 219.542969 532.421875 220.324219 532.726562 C 221.101562 533.03125 221.84375 533.410156 222.546875 533.863281 C 223.25 534.316406 223.902344 534.832031 224.503906 535.414062 C 225.105469 535.996094 225.640625 536.632812 226.117188 537.320312 C 226.589844 538.011719 226.992188 538.738281 227.320312 539.507812 C 227.652344 540.277344 227.902344 541.070312 228.074219 541.890625 C 228.246094 542.707031 228.335938 543.535156 228.34375 544.371094 C 228.351562 545.207031 228.273438 546.039062 228.117188 546.859375 C 227.960938 547.679688 227.722656 548.476562 227.40625 549.253906 C 227.089844 550.027344 226.703125 550.761719 226.238281 551.460938 C 225.777344 552.15625 225.25 552.800781 224.660156 553.394531 C 224.070312 553.988281 223.425781 554.515625 222.730469 554.980469 C 222.035156 555.445312 221.300781 555.835938 220.527344 556.15625 L 132.15625 594.03125 C 130.589844 594.6875 128.957031 595.011719 127.257812 595 Z M 127.257812 595 " fill-opacity="1" fill-rule="nonzero"/><path fill="#ffffff" d="M 253.503906 519.253906 C 251.828125 519.253906 250.21875 518.933594 248.671875 518.292969 C 247.125 517.652344 245.761719 516.738281 244.578125 515.554688 L 194.078125 465.054688 C 193.511719 464.464844 193.003906 463.828125 192.558594 463.136719 C 192.113281 462.449219 191.738281 461.726562 191.433594 460.964844 C 191.128906 460.203125 190.902344 459.417969 190.75 458.613281 C 190.601562 457.808594 190.527344 456.996094 190.535156 456.175781 C 190.542969 455.355469 190.628906 454.542969 190.792969 453.742188 C 190.960938 452.9375 191.199219 452.160156 191.515625 451.402344 C 191.835938 450.648438 192.222656 449.929688 192.679688 449.25 C 193.136719 448.566406 193.652344 447.9375 194.234375 447.359375 C 194.8125 446.777344 195.441406 446.261719 196.125 445.804688 C 196.804688 445.347656 197.523438 444.960938 198.277344 444.640625 C 199.035156 444.324219 199.8125 444.085938 200.617188 443.917969 C 201.417969 443.753906 202.230469 443.667969 203.050781 443.660156 C 203.871094 443.652344 204.683594 443.726562 205.488281 443.875 C 206.292969 444.027344 207.078125 444.253906 207.839844 444.558594 C 208.601562 444.863281 209.324219 445.238281 210.011719 445.683594 C 210.703125 446.128906 211.339844 446.636719 211.929688 447.203125 L 262.429688 497.703125 C 263.3125 498.585938 264.046875 499.578125 264.636719 500.679688 C 265.222656 501.78125 265.640625 502.941406 265.882812 504.167969 C 266.125 505.390625 266.1875 506.625 266.066406 507.867188 C 265.941406 509.109375 265.640625 510.304688 265.164062 511.460938 C 264.6875 512.613281 264.050781 513.671875 263.261719 514.636719 C 262.46875 515.601562 261.554688 516.429688 260.515625 517.125 C 259.476562 517.820312 258.363281 518.347656 257.167969 518.710938 C 255.972656 519.070312 254.753906 519.253906 253.503906 519.253906 Z M 253.503906 519.253906 " fill-opacity="1" fill-rule="nonzero"/><path fill="#ffffff" d="M 606.996094 595 L 215.628906 595 C 214.800781 595 213.980469 594.921875 213.167969 594.757812 C 212.355469 594.597656 211.5625 594.359375 210.796875 594.039062 C 210.03125 593.722656 209.304688 593.335938 208.617188 592.875 C 207.925781 592.414062 207.289062 591.890625 206.703125 591.304688 C 206.117188 590.71875 205.59375 590.078125 205.132812 589.390625 C 204.671875 588.703125 204.28125 587.972656 203.964844 587.207031 C 203.648438 586.441406 203.410156 585.652344 203.246094 584.839844 C 203.085938 584.027344 203.003906 583.207031 203.003906 582.375 C 203.003906 581.546875 203.085938 580.726562 203.246094 579.914062 C 203.410156 579.101562 203.648438 578.3125 203.964844 577.546875 C 204.28125 576.78125 204.671875 576.050781 205.132812 575.363281 C 205.59375 574.671875 206.117188 574.035156 206.703125 573.449219 C 207.289062 572.863281 207.925781 572.339844 208.617188 571.878906 C 209.304688 571.417969 210.03125 571.03125 210.796875 570.714844 C 211.5625 570.394531 212.355469 570.15625 213.167969 569.996094 C 213.980469 569.832031 214.800781 569.753906 215.628906 569.753906 L 606.996094 569.753906 C 607.824219 569.753906 608.644531 569.832031 609.457031 569.996094 C 610.269531 570.15625 611.058594 570.394531 611.828125 570.714844 C 612.59375 571.03125 613.320312 571.417969 614.007812 571.878906 C 614.699219 572.339844 615.335938 572.863281 615.921875 573.449219 C 616.507812 574.035156 617.03125 574.671875 617.492188 575.363281 C 617.953125 576.050781 618.339844 576.78125 618.660156 577.546875 C 618.976562 578.3125 619.214844 579.101562 619.378906 579.914062 C 619.539062 580.726562 619.621094 581.546875 619.621094 582.375 C 619.621094 583.207031 619.539062 584.027344 619.378906 584.839844 C 619.214844 585.652344 618.976562 586.441406 618.660156 587.207031 C 618.339844 587.972656 617.953125 588.703125 617.492188 589.390625 C 617.03125 590.078125 616.507812 590.71875 615.921875 591.304688 C 615.335938 591.890625 614.699219 592.414062 614.007812 592.875 C 613.320312 593.335938 612.59375 593.722656 611.828125 594.039062 C 611.058594 594.359375 610.269531 594.597656 609.457031 594.757812 C 608.644531 594.921875 607.824219 595 606.996094 595 Z M 606.996094 595 " fill-opacity="1" fill-rule="nonzero"/><path fill="#ffffff" d="M 695.367188 494.003906 C 693.714844 494.003906 692.0625 493.921875 690.417969 493.761719 C 688.773438 493.597656 687.136719 493.355469 685.515625 493.035156 C 683.894531 492.710938 682.292969 492.308594 680.707031 491.828125 C 679.125 491.347656 677.570312 490.792969 676.042969 490.160156 C 674.515625 489.527344 673.019531 488.820312 671.5625 488.042969 C 670.105469 487.261719 668.6875 486.414062 667.3125 485.492188 C 665.9375 484.574219 664.609375 483.589844 663.332031 482.542969 C 662.054688 481.492188 660.828125 480.382812 659.660156 479.214844 C 658.492188 478.042969 657.382812 476.820312 656.332031 475.542969 C 655.28125 474.261719 654.296875 472.9375 653.378906 471.5625 C 652.460938 470.1875 651.613281 468.769531 650.832031 467.308594 C 650.050781 465.851562 649.347656 464.359375 648.714844 462.832031 C 648.082031 461.300781 647.523438 459.746094 647.042969 458.164062 C 646.5625 456.582031 646.160156 454.980469 645.839844 453.355469 C 645.515625 451.734375 645.273438 450.101562 645.113281 448.457031 C 644.949219 446.808594 644.867188 445.160156 644.867188 443.503906 C 644.867188 441.851562 644.949219 440.203125 645.113281 438.554688 C 645.273438 436.910156 645.515625 435.277344 645.839844 433.652344 C 646.160156 432.03125 646.5625 430.429688 647.042969 428.847656 C 647.523438 427.261719 648.082031 425.707031 648.714844 424.179688 C 649.347656 422.652344 650.050781 421.160156 650.832031 419.699219 C 651.613281 418.242188 652.460938 416.824219 653.378906 415.449219 C 654.296875 414.074219 655.28125 412.746094 656.332031 411.46875 C 657.382812 410.191406 658.492188 408.964844 659.660156 407.796875 C 660.828125 406.628906 662.054688 405.519531 663.332031 404.46875 C 664.609375 403.421875 665.9375 402.4375 667.3125 401.515625 C 668.6875 400.597656 670.105469 399.75 671.5625 398.96875 C 673.019531 398.191406 674.515625 397.484375 676.042969 396.851562 C 677.570312 396.21875 679.125 395.660156 680.707031 395.179688 C 682.292969 394.699219 683.894531 394.300781 685.515625 393.976562 C 687.136719 393.652344 688.773438 393.410156 690.417969 393.25 C 692.0625 393.085938 693.714844 393.007812 695.367188 393.007812 C 697.023438 393.007812 698.671875 393.085938 700.316406 393.25 C 701.964844 393.410156 703.597656 393.652344 705.21875 393.976562 C 706.839844 394.300781 708.445312 394.699219 710.027344 395.179688 C 711.609375 395.660156 713.164062 396.21875 714.691406 396.851562 C 716.222656 397.484375 717.714844 398.191406 719.171875 398.96875 C 720.632812 399.75 722.046875 400.597656 723.421875 401.515625 C 724.796875 402.4375 726.125 403.421875 727.402344 404.46875 C 728.683594 405.519531 729.90625 406.628906 731.074219 407.796875 C 732.246094 408.964844 733.355469 410.191406 734.402344 411.46875 C 735.453125 412.746094 736.4375 414.074219 737.355469 415.449219 C 738.273438 416.824219 739.125 418.242188 739.902344 419.699219 C 740.683594 421.160156 741.390625 422.652344 742.023438 424.179688 C 742.65625 425.707031 743.210938 427.261719 743.691406 428.847656 C 744.171875 430.429688 744.574219 432.03125 744.894531 433.652344 C 745.21875 435.277344 745.460938 436.910156 745.625 438.554688 C 745.785156 440.203125 745.867188 441.851562 745.867188 443.503906 C 745.867188 444.335938 745.785156 445.15625 745.625 445.96875 C 745.460938 446.78125 745.222656 447.570312 744.90625 448.335938 C 744.589844 449.101562 744.199219 449.828125 743.738281 450.519531 C 743.277344 451.207031 742.753906 451.847656 742.167969 452.433594 C 741.582031 453.019531 740.945312 453.542969 740.253906 454.003906 C 739.566406 454.460938 738.839844 454.851562 738.074219 455.167969 C 737.308594 455.484375 736.519531 455.726562 735.703125 455.886719 C 734.890625 456.050781 734.070312 456.128906 733.242188 456.128906 C 732.414062 456.128906 731.59375 456.050781 730.777344 455.886719 C 729.964844 455.726562 729.175781 455.484375 728.410156 455.167969 C 727.644531 454.851562 726.917969 454.460938 726.226562 454.003906 C 725.539062 453.542969 724.902344 453.019531 724.316406 452.433594 C 723.730469 451.847656 723.207031 451.207031 722.746094 450.519531 C 722.285156 449.828125 721.894531 449.101562 721.578125 448.335938 C 721.261719 447.570312 721.019531 446.78125 720.859375 445.96875 C 720.699219 445.15625 720.617188 444.335938 720.617188 443.503906 C 720.617188 442.679688 720.578125 441.851562 720.496094 441.03125 C 720.414062 440.207031 720.292969 439.390625 720.132812 438.578125 C 719.96875 437.769531 719.769531 436.96875 719.53125 436.175781 C 719.289062 435.382812 719.011719 434.605469 718.695312 433.84375 C 718.378906 433.078125 718.027344 432.332031 717.636719 431.601562 C 717.246094 430.875 716.820312 430.164062 716.363281 429.476562 C 715.902344 428.789062 715.410156 428.125 714.886719 427.488281 C 714.359375 426.847656 713.804688 426.234375 713.222656 425.652344 C 712.636719 425.066406 712.023438 424.511719 711.386719 423.988281 C 710.746094 423.460938 710.082031 422.96875 709.394531 422.511719 C 708.707031 422.050781 708 421.628906 707.269531 421.238281 C 706.539062 420.847656 705.792969 420.496094 705.03125 420.179688 C 704.265625 419.863281 703.488281 419.582031 702.695312 419.34375 C 701.90625 419.101562 701.105469 418.902344 700.292969 418.742188 C 699.484375 418.578125 698.664062 418.457031 697.84375 418.378906 C 697.019531 418.296875 696.195312 418.257812 695.367188 418.257812 C 694.539062 418.257812 693.714844 418.296875 692.894531 418.378906 C 692.070312 418.457031 691.253906 418.578125 690.441406 418.742188 C 689.628906 418.902344 688.828125 419.101562 688.039062 419.34375 C 687.246094 419.582031 686.46875 419.863281 685.707031 420.179688 C 684.941406 420.496094 684.195312 420.847656 683.464844 421.238281 C 682.734375 421.628906 682.027344 422.050781 681.339844 422.511719 C 680.652344 422.96875 679.988281 423.460938 679.351562 423.988281 C 678.710938 424.511719 678.097656 425.066406 677.515625 425.652344 C 676.929688 426.234375 676.375 426.847656 675.851562 427.488281 C 675.324219 428.125 674.832031 428.789062 674.375 429.476562 C 673.914062 430.164062 673.488281 430.875 673.101562 431.601562 C 672.710938 432.332031 672.355469 433.078125 672.039062 433.84375 C 671.722656 434.605469 671.445312 435.382812 671.207031 436.175781 C 670.964844 436.96875 670.765625 437.769531 670.605469 438.578125 C 670.441406 439.390625 670.320312 440.207031 670.238281 441.03125 C 670.160156 441.851562 670.117188 442.679688 670.117188 443.503906 C 670.117188 444.332031 670.160156 445.15625 670.238281 445.980469 C 670.320312 446.804688 670.441406 447.621094 670.605469 448.429688 C 670.765625 449.242188 670.964844 450.042969 671.207031 450.835938 C 671.445312 451.625 671.722656 452.402344 672.039062 453.167969 C 672.355469 453.933594 672.710938 454.679688 673.101562 455.40625 C 673.488281 456.136719 673.914062 456.84375 674.375 457.53125 C 674.832031 458.21875 675.324219 458.882812 675.851562 459.523438 C 676.375 460.164062 676.929688 460.773438 677.515625 461.359375 C 678.097656 461.945312 678.710938 462.5 679.351562 463.023438 C 679.988281 463.546875 680.652344 464.039062 681.339844 464.5 C 682.027344 464.957031 682.734375 465.382812 683.464844 465.773438 C 684.195312 466.164062 684.941406 466.515625 685.707031 466.832031 C 686.46875 467.148438 687.246094 467.425781 688.039062 467.667969 C 688.828125 467.90625 689.628906 468.109375 690.441406 468.269531 C 691.253906 468.429688 692.070312 468.550781 692.894531 468.632812 C 693.714844 468.714844 694.539062 468.753906 695.367188 468.753906 C 696.195312 468.753906 697.019531 468.835938 697.832031 468.996094 C 698.644531 469.160156 699.433594 469.398438 700.199219 469.714844 C 700.964844 470.03125 701.691406 470.421875 702.382812 470.882812 C 703.070312 471.34375 703.707031 471.867188 704.292969 472.453125 C 704.882812 473.039062 705.402344 473.675781 705.863281 474.367188 C 706.324219 475.054688 706.714844 475.78125 707.03125 476.546875 C 707.347656 477.3125 707.589844 478.101562 707.75 478.917969 C 707.910156 479.730469 707.992188 480.550781 707.992188 481.378906 C 707.992188 482.207031 707.910156 483.027344 707.75 483.84375 C 707.589844 484.65625 707.347656 485.445312 707.03125 486.210938 C 706.714844 486.976562 706.324219 487.703125 705.863281 488.394531 C 705.402344 489.082031 704.882812 489.71875 704.292969 490.304688 C 703.707031 490.890625 703.070312 491.414062 702.382812 491.875 C 701.691406 492.335938 700.964844 492.726562 700.199219 493.042969 C 699.433594 493.359375 698.644531 493.601562 697.832031 493.761719 C 697.019531 493.921875 696.195312 494.003906 695.367188 494.003906 Z M 695.367188 494.003906 " fill-opacity="1" fill-rule="nonzero"/><path fill="#ffffff" d="M 695.367188 569.753906 C 693.714844 569.753906 692.0625 569.671875 690.417969 569.507812 C 688.773438 569.347656 687.136719 569.105469 685.515625 568.78125 C 683.894531 568.460938 682.292969 568.058594 680.707031 567.578125 C 679.125 567.097656 677.570312 566.542969 676.042969 565.910156 C 674.515625 565.273438 673.019531 564.570312 671.5625 563.789062 C 670.105469 563.007812 668.6875 562.160156 667.3125 561.242188 C 665.9375 560.324219 664.609375 559.339844 663.332031 558.289062 C 662.054688 557.242188 660.828125 556.132812 659.660156 554.960938 C 658.492188 553.792969 657.382812 552.566406 656.332031 551.289062 C 655.28125 550.011719 654.296875 548.683594 653.378906 547.308594 C 652.460938 545.933594 651.613281 544.515625 650.832031 543.058594 C 650.050781 541.601562 649.347656 540.105469 648.714844 538.578125 C 648.082031 537.050781 647.523438 535.496094 647.042969 533.914062 C 646.5625 532.328125 646.160156 530.726562 645.839844 529.105469 C 645.515625 527.484375 645.273438 525.847656 645.113281 524.203125 C 644.949219 522.558594 644.867188 520.90625 644.867188 519.253906 C 644.867188 518.425781 644.949219 517.601562 645.113281 516.789062 C 645.273438 515.976562 645.511719 515.1875 645.828125 514.421875 C 646.148438 513.65625 646.535156 512.929688 646.996094 512.238281 C 647.457031 511.550781 647.980469 510.914062 648.566406 510.328125 C 649.152344 509.742188 649.789062 509.21875 650.480469 508.757812 C 651.167969 508.296875 651.898438 507.90625 652.664062 507.589844 C 653.429688 507.273438 654.21875 507.03125 655.03125 506.871094 C 655.84375 506.710938 656.664062 506.628906 657.492188 506.628906 C 658.324219 506.628906 659.144531 506.710938 659.957031 506.871094 C 660.769531 507.03125 661.558594 507.273438 662.324219 507.589844 C 663.089844 507.90625 663.816406 508.296875 664.507812 508.757812 C 665.195312 509.21875 665.835938 509.742188 666.421875 510.328125 C 667.007812 510.914062 667.53125 511.550781 667.992188 512.238281 C 668.453125 512.929688 668.839844 513.65625 669.15625 514.421875 C 669.472656 515.1875 669.714844 515.976562 669.875 516.789062 C 670.039062 517.601562 670.117188 518.425781 670.117188 519.253906 C 670.117188 520.082031 670.160156 520.90625 670.238281 521.726562 C 670.320312 522.550781 670.441406 523.367188 670.605469 524.179688 C 670.765625 524.992188 670.964844 525.792969 671.207031 526.582031 C 671.445312 527.375 671.722656 528.152344 672.039062 528.914062 C 672.355469 529.679688 672.710938 530.425781 673.101562 531.15625 C 673.488281 531.886719 673.914062 532.59375 674.375 533.28125 C 674.832031 533.96875 675.324219 534.632812 675.851562 535.273438 C 676.375 535.910156 676.929688 536.523438 677.515625 537.109375 C 678.097656 537.691406 678.710938 538.246094 679.351562 538.773438 C 679.988281 539.296875 680.652344 539.789062 681.339844 540.246094 C 682.027344 540.707031 682.734375 541.132812 683.464844 541.519531 C 684.195312 541.910156 684.941406 542.265625 685.707031 542.582031 C 686.46875 542.898438 687.246094 543.175781 688.039062 543.414062 C 688.828125 543.65625 689.628906 543.855469 690.441406 544.019531 C 691.253906 544.179688 692.070312 544.300781 692.894531 544.382812 C 693.714844 544.460938 694.539062 544.503906 695.367188 544.503906 C 696.195312 544.503906 697.019531 544.460938 697.84375 544.382812 C 698.664062 544.300781 699.484375 544.179688 700.292969 544.019531 C 701.105469 543.855469 701.90625 543.65625 702.695312 543.414062 C 703.488281 543.175781 704.265625 542.898438 705.03125 542.582031 C 705.792969 542.265625 706.539062 541.910156 707.269531 541.519531 C 708 541.132812 708.707031 540.707031 709.394531 540.246094 C 710.082031 539.789062 710.746094 539.296875 711.386719 538.773438 C 712.023438 538.246094 712.636719 537.691406 713.222656 537.109375 C 713.804688 536.523438 714.359375 535.910156 714.886719 535.273438 C 715.410156 534.632812 715.902344 533.96875 716.363281 533.28125 C 716.820312 532.59375 717.246094 531.886719 717.636719 531.15625 C 718.027344 530.425781 718.378906 529.679688 718.695312 528.914062 C 719.011719 528.152344 719.289062 527.375 719.53125 526.582031 C 719.769531 525.792969 719.972656 524.992188 720.132812 524.179688 C 720.292969 523.367188 720.414062 522.550781 720.496094 521.726562 C 720.578125 520.90625 720.617188 520.082031 720.617188 519.253906 C 720.617188 518.425781 720.578125 517.601562 720.496094 516.777344 C 720.414062 515.957031 720.292969 515.136719 720.132812 514.328125 C 719.96875 513.515625 719.769531 512.714844 719.53125 511.925781 C 719.289062 511.132812 719.011719 510.355469 718.695312 509.589844 C 718.378906 508.828125 718.027344 508.082031 717.636719 507.351562 C 717.246094 506.621094 716.820312 505.914062 716.363281 505.226562 C 715.902344 504.539062 715.410156 503.875 714.886719 503.234375 C 714.359375 502.597656 713.804688 501.984375 713.222656 501.398438 C 712.636719 500.816406 712.023438 500.261719 711.386719 499.734375 C 710.746094 499.210938 710.082031 498.71875 709.394531 498.257812 C 708.707031 497.800781 708 497.375 707.269531 496.984375 C 706.539062 496.59375 705.792969 496.242188 705.03125 495.925781 C 704.265625 495.609375 703.488281 495.332031 702.695312 495.089844 C 701.90625 494.851562 701.105469 494.652344 700.292969 494.488281 C 699.484375 494.328125 698.664062 494.207031 697.84375 494.125 C 697.019531 494.042969 696.195312 494.003906 695.367188 494.003906 C 694.539062 494.003906 693.71875 493.921875 692.90625 493.761719 C 692.089844 493.601562 691.300781 493.359375 690.535156 493.042969 C 689.769531 492.726562 689.042969 492.335938 688.355469 491.875 C 687.664062 491.414062 687.027344 490.890625 686.441406 490.304688 C 685.855469 489.71875 685.332031 489.082031 684.871094 488.394531 C 684.410156 487.703125 684.019531 486.976562 683.703125 486.210938 C 683.386719 485.445312 683.148438 484.65625 682.984375 483.84375 C 682.824219 483.027344 682.742188 482.207031 682.742188 481.378906 C 682.742188 480.550781 682.824219 479.730469 682.984375 478.917969 C 683.148438 478.101562 683.386719 477.3125 683.703125 476.546875 C 684.019531 475.78125 684.410156 475.054688 684.871094 474.367188 C 685.332031 473.675781 685.855469 473.039062 686.441406 472.453125 C 687.027344 471.867188 687.664062 471.34375 688.355469 470.882812 C 689.042969 470.421875 689.769531 470.03125 690.535156 469.714844 C 691.300781 469.398438 692.089844 469.160156 692.90625 468.996094 C 693.71875 468.835938 694.539062 468.753906 695.367188 468.753906 C 697.023438 468.753906 698.671875 468.835938 700.316406 468.996094 C 701.964844 469.160156 703.597656 469.402344 705.21875 469.726562 C 706.839844 470.046875 708.445312 470.449219 710.027344 470.929688 C 711.609375 471.410156 713.164062 471.964844 714.691406 472.597656 C 716.222656 473.230469 717.714844 473.9375 719.171875 474.71875 C 720.632812 475.496094 722.046875 476.347656 723.421875 477.265625 C 724.796875 478.183594 726.125 479.167969 727.402344 480.21875 C 728.683594 481.265625 729.90625 482.375 731.074219 483.546875 C 732.246094 484.714844 733.355469 485.9375 734.402344 487.21875 C 735.453125 488.496094 736.4375 489.824219 737.355469 491.199219 C 738.273438 492.574219 739.125 493.988281 739.902344 495.449219 C 740.683594 496.90625 741.390625 498.402344 742.023438 499.929688 C 742.65625 501.457031 743.210938 503.011719 743.691406 504.59375 C 744.171875 506.175781 744.574219 507.78125 744.894531 509.402344 C 745.21875 511.023438 745.460938 512.65625 745.625 514.304688 C 745.785156 515.949219 745.867188 517.597656 745.867188 519.253906 C 745.867188 520.90625 745.785156 522.558594 745.625 524.203125 C 745.460938 525.847656 745.21875 527.484375 744.894531 529.105469 C 744.574219 530.726562 744.171875 532.328125 743.691406 533.914062 C 743.210938 535.496094 742.65625 537.050781 742.023438 538.578125 C 741.390625 540.105469 740.683594 541.601562 739.902344 543.058594 C 739.125 544.515625 738.273438 545.933594 737.355469 547.308594 C 736.4375 548.683594 735.453125 550.011719 734.402344 551.289062 C 733.355469 552.566406 732.246094 553.792969 731.074219 554.960938 C 729.90625 556.132812 728.683594 557.242188 727.402344 558.289062 C 726.125 559.339844 724.796875 560.324219 723.421875 561.242188 C 722.046875 562.160156 720.632812 563.007812 719.171875 563.789062 C 717.714844 564.570312 716.222656 565.273438 714.691406 565.90625 C 713.164062 566.542969 711.609375 567.097656 710.027344 567.578125 C 708.445312 568.058594 706.839844 568.460938 705.21875 568.78125 C 703.597656 569.105469 701.964844 569.347656 700.316406 569.507812 C 698.671875 569.671875 697.023438 569.753906 695.367188 569.753906 Z M 695.367188 569.753906 " fill-opacity="1" fill-rule="nonzero"/><path fill="#ffffff" d="M 695.367188 418.257812 C 694.539062 418.257812 693.71875 418.175781 692.90625 418.011719 C 692.089844 417.851562 691.300781 417.613281 690.535156 417.296875 C 689.769531 416.976562 689.042969 416.589844 688.355469 416.128906 C 687.664062 415.667969 687.027344 415.144531 686.441406 414.558594 C 685.855469 413.972656 685.332031 413.335938 684.871094 412.644531 C 684.410156 411.957031 684.019531 411.226562 683.703125 410.460938 C 683.386719 409.695312 683.148438 408.90625 682.984375 408.09375 C 682.824219 407.28125 682.742188 406.460938 682.742188 405.632812 L 682.742188 380.382812 C 682.742188 379.554688 682.824219 378.730469 682.984375 377.917969 C 683.148438 377.105469 683.386719 376.316406 683.703125 375.550781 C 684.019531 374.785156 684.410156 374.058594 684.871094 373.367188 C 685.332031 372.679688 685.855469 372.039062 686.441406 371.453125 C 687.027344 370.867188 687.664062 370.34375 688.355469 369.886719 C 689.042969 369.425781 689.769531 369.035156 690.535156 368.71875 C 691.300781 368.402344 692.089844 368.160156 692.90625 368 C 693.71875 367.839844 694.539062 367.757812 695.367188 367.757812 C 696.195312 367.757812 697.019531 367.839844 697.832031 368 C 698.644531 368.160156 699.433594 368.402344 700.199219 368.71875 C 700.964844 369.035156 701.691406 369.425781 702.382812 369.886719 C 703.070312 370.34375 703.707031 370.867188 704.292969 371.453125 C 704.882812 372.039062 705.402344 372.679688 705.863281 373.367188 C 706.324219 374.058594 706.714844 374.785156 707.03125 375.550781 C 707.347656 376.316406 707.589844 377.105469 707.75 377.917969 C 707.910156 378.730469 707.992188 379.554688 707.992188 380.382812 L 707.992188 405.632812 C 707.992188 406.460938 707.910156 407.28125 707.75 408.09375 C 707.589844 408.90625 707.347656 409.695312 707.03125 410.460938 C 706.714844 411.226562 706.324219 411.957031 705.863281 412.644531 C 705.402344 413.335938 704.882812 413.972656 704.292969 414.558594 C 703.707031 415.144531 703.070312 415.667969 702.382812 416.128906 C 701.691406 416.589844 700.964844 416.976562 700.199219 417.296875 C 699.433594 417.613281 698.644531 417.851562 697.832031 418.011719 C 697.019531 418.175781 696.195312 418.257812 695.367188 418.257812 Z M 695.367188 418.257812 " fill-opacity="1" fill-rule="nonzero"/><path fill="#ffffff" d="M 695.367188 595 C 694.539062 595 693.71875 594.921875 692.90625 594.757812 C 692.089844 594.597656 691.300781 594.359375 690.535156 594.039062 C 689.769531 593.722656 689.042969 593.335938 688.355469 592.875 C 687.664062 592.414062 687.027344 591.890625 686.441406 591.304688 C 685.855469 590.71875 685.332031 590.078125 684.871094 589.390625 C 684.410156 588.703125 684.019531 587.972656 683.703125 587.207031 C 683.386719 586.441406 683.148438 585.652344 682.984375 584.839844 C 682.824219 584.027344 682.742188 583.207031 682.742188 582.375 L 682.742188 557.128906 C 682.742188 556.296875 682.824219 555.476562 682.984375 554.664062 C 683.148438 553.851562 683.386719 553.0625 683.703125 552.296875 C 684.019531 551.53125 684.410156 550.804688 684.871094 550.113281 C 685.332031 549.425781 685.855469 548.785156 686.441406 548.199219 C 687.027344 547.613281 687.664062 547.089844 688.355469 546.628906 C 689.042969 546.167969 689.769531 545.78125 690.535156 545.464844 C 691.300781 545.148438 692.089844 544.90625 692.90625 544.746094 C 693.71875 544.582031 694.539062 544.503906 695.367188 544.503906 C 696.195312 544.503906 697.019531 544.582031 697.832031 544.746094 C 698.644531 544.90625 699.433594 545.148438 700.199219 545.464844 C 700.964844 545.78125 701.691406 546.167969 702.382812 546.628906 C 703.070312 547.089844 703.707031 547.613281 704.292969 548.199219 C 704.882812 548.785156 705.402344 549.425781 705.863281 550.113281 C 706.324219 550.804688 706.714844 551.53125 707.03125 552.296875 C 707.347656 553.0625 707.589844 553.851562 707.75 554.664062 C 707.910156 555.476562 707.992188 556.296875 707.992188 557.128906 L 707.992188 582.375 C 707.992188 583.207031 707.910156 584.027344 707.75 584.839844 C 707.589844 585.652344 707.347656 586.441406 707.03125 587.207031 C 706.714844 587.972656 706.324219 588.703125 705.863281 589.390625 C 705.402344 590.078125 704.882812 590.71875 704.292969 591.304688 C 703.707031 591.890625 703.070312 592.414062 702.382812 592.875 C 701.691406 593.335938 700.964844 593.722656 700.199219 594.039062 C 699.433594 594.359375 698.644531 594.597656 697.832031 594.757812 C 697.019531 594.921875 696.195312 595 695.367188 595 Z M 695.367188 595 " fill-opacity="1" fill-rule="nonzero"/><path fill="#ffffff" d="M 606.996094 443.503906 L 392.375 443.503906 C 391.546875 443.503906 390.726562 443.425781 389.914062 443.261719 C 389.097656 443.101562 388.308594 442.863281 387.542969 442.542969 C 386.777344 442.226562 386.050781 441.839844 385.363281 441.378906 C 384.671875 440.917969 384.035156 440.394531 383.449219 439.808594 C 382.863281 439.222656 382.339844 438.582031 381.878906 437.894531 C 381.417969 437.207031 381.027344 436.476562 380.710938 435.710938 C 380.394531 434.945312 380.15625 434.15625 379.992188 433.34375 C 379.832031 432.53125 379.75 431.710938 379.75 430.878906 C 379.75 430.050781 379.832031 429.230469 379.992188 428.417969 C 380.15625 427.605469 380.394531 426.816406 380.710938 426.050781 C 381.027344 425.285156 381.417969 424.554688 381.878906 423.867188 C 382.339844 423.175781 382.863281 422.539062 383.449219 421.953125 C 384.035156 421.367188 384.671875 420.84375 385.363281 420.382812 C 386.050781 419.921875 386.777344 419.535156 387.542969 419.21875 C 388.308594 418.898438 389.097656 418.660156 389.914062 418.5 C 390.726562 418.335938 391.546875 418.257812 392.375 418.257812 L 606.996094 418.257812 C 607.824219 418.257812 608.644531 418.335938 609.457031 418.5 C 610.269531 418.660156 611.058594 418.898438 611.828125 419.21875 C 612.59375 419.535156 613.320312 419.921875 614.007812 420.382812 C 614.699219 420.84375 615.335938 421.367188 615.921875 421.953125 C 616.507812 422.539062 617.03125 423.175781 617.492188 423.867188 C 617.953125 424.554688 618.339844 425.285156 618.660156 426.050781 C 618.976562 426.816406 619.214844 427.605469 619.378906 428.417969 C 619.539062 429.230469 619.621094 430.050781 619.621094 430.878906 C 619.621094 431.710938 619.539062 432.53125 619.378906 433.34375 C 619.214844 434.15625 618.976562 434.945312 618.660156 435.710938 C 618.339844 436.476562 617.953125 437.207031 617.492188 437.894531 C 617.03125 438.582031 616.507812 439.222656 615.921875 439.808594 C 615.335938 440.394531 614.699219 440.917969 614.007812 441.378906 C 613.320312 441.839844 612.59375 442.226562 611.828125 442.542969 C 611.058594 442.863281 610.269531 443.101562 609.457031 443.261719 C 608.644531 443.425781 607.824219 443.503906 606.996094 443.503906 Z M 606.996094 443.503906 " fill-opacity="1" fill-rule="nonzero"/><path fill="#ffffff" d="M 405 494.003906 L 341.875 494.003906 C 341.046875 494.003906 340.226562 493.921875 339.414062 493.761719 C 338.601562 493.601562 337.8125 493.359375 337.046875 493.042969 C 336.28125 492.726562 335.550781 492.335938 334.863281 491.875 C 334.171875 491.414062 333.535156 490.890625 332.949219 490.304688 C 332.363281 489.71875 331.839844 489.082031 331.378906 488.394531 C 330.917969 487.703125 330.53125 486.976562 330.210938 486.210938 C 329.894531 485.445312 329.65625 484.65625 329.496094 483.84375 C 329.332031 483.027344 329.25 482.207031 329.25 481.378906 C 329.25 480.550781 329.332031 479.730469 329.496094 478.917969 C 329.65625 478.101562 329.894531 477.3125 330.210938 476.546875 C 330.53125 475.78125 330.917969 475.054688 331.378906 474.367188 C 331.839844 473.675781 332.363281 473.039062 332.949219 472.453125 C 333.535156 471.867188 334.171875 471.34375 334.863281 470.882812 C 335.550781 470.421875 336.28125 470.03125 337.046875 469.714844 C 337.8125 469.398438 338.601562 469.160156 339.414062 468.996094 C 340.226562 468.835938 341.046875 468.753906 341.875 468.753906 L 405 468.753906 C 405.828125 468.753906 406.648438 468.835938 407.464844 468.996094 C 408.277344 469.160156 409.066406 469.398438 409.832031 469.714844 C 410.597656 470.03125 411.324219 470.421875 412.015625 470.882812 C 412.703125 471.34375 413.339844 471.867188 413.925781 472.453125 C 414.511719 473.039062 415.035156 473.675781 415.496094 474.367188 C 415.957031 475.054688 416.347656 475.78125 416.664062 476.546875 C 416.980469 477.3125 417.21875 478.101562 417.382812 478.917969 C 417.542969 479.730469 417.625 480.550781 417.625 481.378906 C 417.625 482.207031 417.542969 483.027344 417.382812 483.84375 C 417.21875 484.65625 416.980469 485.445312 416.664062 486.210938 C 416.347656 486.976562 415.957031 487.703125 415.496094 488.394531 C 415.035156 489.082031 414.511719 489.71875 413.925781 490.304688 C 413.339844 490.890625 412.703125 491.414062 412.015625 491.875 C 411.324219 492.335938 410.597656 492.726562 409.832031 493.042969 C 409.066406 493.359375 408.277344 493.601562 407.464844 493.761719 C 406.648438 493.921875 405.828125 494.003906 405 494.003906 Z M 405 494.003906 " fill-opacity="1" fill-rule="nonzero"/><path fill="#ffffff" d="M 505.996094 494.003906 L 442.875 494.003906 C 442.046875 494.003906 441.222656 493.921875 440.410156 493.761719 C 439.597656 493.601562 438.808594 493.359375 438.042969 493.042969 C 437.277344 492.726562 436.550781 492.335938 435.859375 491.875 C 435.171875 491.414062 434.53125 490.890625 433.945312 490.304688 C 433.359375 489.71875 432.835938 489.082031 432.378906 488.394531 C 431.917969 487.703125 431.527344 486.976562 431.210938 486.210938 C 430.894531 485.445312 430.652344 484.65625 430.492188 483.84375 C 430.332031 483.027344 430.25 482.207031 430.25 481.378906 C 430.25 480.550781 430.332031 479.730469 430.492188 478.917969 C 430.652344 478.101562 430.894531 477.3125 431.210938 476.546875 C 431.527344 475.78125 431.917969 475.054688 432.378906 474.367188 C 432.835938 473.675781 433.359375 473.039062 433.945312 472.453125 C 434.53125 471.867188 435.171875 471.34375 435.859375 470.882812 C 436.550781 470.421875 437.277344 470.03125 438.042969 469.714844 C 438.808594 469.398438 439.597656 469.160156 440.410156 468.996094 C 441.222656 468.835938 442.046875 468.753906 442.875 468.753906 L 505.996094 468.753906 C 506.828125 468.753906 507.648438 468.835938 508.460938 468.996094 C 509.273438 469.160156 510.0625 469.398438 510.828125 469.714844 C 511.59375 470.03125 512.320312 470.421875 513.011719 470.882812 C 513.699219 471.34375 514.339844 471.867188 514.925781 472.453125 C 515.511719 473.039062 516.035156 473.675781 516.496094 474.367188 C 516.953125 475.054688 517.34375 475.78125 517.660156 476.546875 C 517.976562 477.3125 518.21875 478.101562 518.378906 478.917969 C 518.542969 479.730469 518.621094 480.550781 518.621094 481.378906 C 518.621094 482.207031 518.542969 483.027344 518.378906 483.84375 C 518.21875 484.65625 517.976562 485.445312 517.660156 486.210938 C 517.34375 486.976562 516.953125 487.703125 516.496094 488.394531 C 516.035156 489.082031 515.511719 489.71875 514.925781 490.304688 C 514.339844 490.890625 513.699219 491.414062 513.011719 491.875 C 512.320312 492.335938 511.59375 492.726562 510.828125 493.042969 C 510.0625 493.359375 509.273438 493.601562 508.460938 493.761719 C 507.648438 493.921875 506.828125 494.003906 505.996094 494.003906 Z M 505.996094 494.003906 " fill-opacity="1" fill-rule="nonzero"/><path fill="#ffffff" d="M 606.996094 494.003906 L 543.871094 494.003906 C 543.042969 494.003906 542.222656 493.921875 541.410156 493.761719 C 540.59375 493.601562 539.804688 493.359375 539.039062 493.042969 C 538.273438 492.726562 537.546875 492.335938 536.859375 491.875 C 536.167969 491.414062 535.53125 490.890625 534.945312 490.304688 C 534.359375 489.71875 533.835938 489.082031 533.375 488.394531 C 532.914062 487.703125 532.523438 486.976562 532.207031 486.210938 C 531.890625 485.445312 531.652344 484.65625 531.488281 483.84375 C 531.328125 483.027344 531.246094 482.207031 531.246094 481.378906 C 531.246094 480.550781 531.328125 479.730469 531.488281 478.917969 C 531.652344 478.101562 531.890625 477.3125 532.207031 476.546875 C 532.523438 475.78125 532.914062 475.054688 533.375 474.367188 C 533.835938 473.675781 534.359375 473.039062 534.945312 472.453125 C 535.53125 471.867188 536.167969 471.34375 536.859375 470.882812 C 537.546875 470.421875 538.273438 470.03125 539.039062 469.714844 C 539.804688 469.398438 540.59375 469.160156 541.410156 468.996094 C 542.222656 468.835938 543.042969 468.753906 543.871094 468.753906 L 606.996094 468.753906 C 607.824219 468.753906 608.644531 468.835938 609.457031 468.996094 C 610.269531 469.160156 611.058594 469.398438 611.828125 469.714844 C 612.59375 470.03125 613.320312 470.421875 614.007812 470.882812 C 614.699219 471.34375 615.335938 471.867188 615.921875 472.453125 C 616.507812 473.039062 617.03125 473.675781 617.492188 474.367188 C 617.953125 475.054688 618.339844 475.78125 618.660156 476.546875 C 618.976562 477.3125 619.214844 478.101562 619.378906 478.917969 C 619.539062 479.730469 619.621094 480.550781 619.621094 481.378906 C 619.621094 482.207031 619.539062 483.027344 619.378906 483.84375 C 619.214844 484.65625 618.976562 485.445312 618.660156 486.210938 C 618.339844 486.976562 617.953125 487.703125 617.492188 488.394531 C 617.03125 489.082031 616.507812 489.71875 615.921875 490.304688 C 615.335938 490.890625 614.699219 491.414062 614.007812 491.875 C 613.320312 492.335938 612.59375 492.726562 611.828125 493.042969 C 611.058594 493.359375 610.269531 493.601562 609.457031 493.761719 C 608.644531 493.921875 607.824219 494.003906 606.996094 494.003906 Z M 606.996094 494.003906 " fill-opacity="1" fill-rule="nonzero"/><path fill="#ffffff" d="M 177.753906 443.503906 L 76.757812 443.503906 C 75.929688 443.503906 75.109375 443.425781 74.296875 443.261719 C 73.480469 443.101562 72.691406 442.863281 71.925781 442.542969 C 71.160156 442.226562 70.433594 441.839844 69.746094 441.378906 C 69.054688 440.917969 68.417969 440.394531 67.832031 439.808594 C 67.246094 439.222656 66.722656 438.582031 66.261719 437.894531 C 65.800781 437.207031 65.410156 436.476562 65.09375 435.710938 C 64.777344 434.945312 64.539062 434.15625 64.375 433.34375 C 64.214844 432.53125 64.132812 431.710938 64.132812 430.878906 L 64.132812 329.882812 C 64.132812 329.054688 64.214844 328.234375 64.375 327.421875 C 64.539062 326.605469 64.777344 325.816406 65.09375 325.050781 C 65.410156 324.285156 65.800781 323.558594 66.261719 322.871094 C 66.722656 322.179688 67.246094 321.542969 67.832031 320.957031 C 68.417969 320.371094 69.054688 319.847656 69.746094 319.386719 C 70.433594 318.925781 71.160156 318.535156 71.925781 318.21875 C 72.691406 317.902344 73.480469 317.664062 74.296875 317.5 C 75.109375 317.339844 75.929688 317.257812 76.757812 317.257812 L 177.753906 317.257812 C 178.585938 317.257812 179.40625 317.339844 180.21875 317.5 C 181.03125 317.664062 181.820312 317.902344 182.585938 318.21875 C 183.351562 318.535156 184.082031 318.925781 184.769531 319.386719 C 185.457031 319.847656 186.097656 320.371094 186.683594 320.957031 C 187.269531 321.542969 187.792969 322.179688 188.253906 322.871094 C 188.714844 323.558594 189.101562 324.285156 189.417969 325.050781 C 189.738281 325.816406 189.976562 326.605469 190.136719 327.421875 C 190.300781 328.234375 190.378906 329.054688 190.378906 329.882812 L 190.378906 430.878906 C 190.378906 431.710938 190.300781 432.53125 190.136719 433.34375 C 189.976562 434.15625 189.738281 434.945312 189.417969 435.710938 C 189.101562 436.476562 188.714844 437.207031 188.253906 437.894531 C 187.792969 438.582031 187.269531 439.222656 186.683594 439.808594 C 186.097656 440.394531 185.457031 440.917969 184.769531 441.378906 C 184.082031 441.839844 183.351562 442.226562 182.585938 442.542969 C 181.820312 442.863281 181.03125 443.101562 180.21875 443.261719 C 179.40625 443.425781 178.585938 443.503906 177.753906 443.503906 Z M 89.382812 418.257812 L 165.132812 418.257812 L 165.132812 342.507812 L 89.382812 342.507812 Z M 89.382812 418.257812 " fill-opacity="1" fill-rule="nonzero"/><path fill="#ffffff" d="M 606.996094 544.503906 L 291.378906 544.503906 C 290.550781 544.503906 289.726562 544.421875 288.914062 544.261719 C 288.101562 544.097656 287.3125 543.859375 286.546875 543.542969 C 285.78125 543.222656 285.054688 542.835938 284.363281 542.375 C 283.675781 541.914062 283.035156 541.390625 282.449219 540.804688 C 281.863281 540.21875 281.339844 539.582031 280.878906 538.890625 C 280.421875 538.203125 280.03125 537.476562 279.714844 536.710938 C 279.398438 535.945312 279.15625 535.152344 278.996094 534.339844 C 278.832031 533.527344 278.753906 532.707031 278.753906 531.878906 C 278.753906 531.050781 278.832031 530.226562 278.996094 529.414062 C 279.15625 528.601562 279.398438 527.8125 279.714844 527.046875 C 280.03125 526.28125 280.421875 525.554688 280.878906 524.863281 C 281.339844 524.175781 281.863281 523.539062 282.449219 522.949219 C 283.035156 522.363281 283.675781 521.839844 284.363281 521.382812 C 285.054688 520.921875 285.78125 520.53125 286.546875 520.214844 C 287.3125 519.898438 288.101562 519.65625 288.914062 519.496094 C 289.726562 519.335938 290.550781 519.253906 291.378906 519.253906 L 606.996094 519.253906 C 607.824219 519.253906 608.644531 519.335938 609.457031 519.496094 C 610.269531 519.65625 611.058594 519.898438 611.828125 520.214844 C 612.59375 520.53125 613.320312 520.921875 614.007812 521.382812 C 614.699219 521.839844 615.335938 522.363281 615.921875 522.949219 C 616.507812 523.539062 617.03125 524.175781 617.492188 524.863281 C 617.953125 525.554688 618.339844 526.28125 618.660156 527.046875 C 618.976562 527.8125 619.214844 528.601562 619.378906 529.414062 C 619.539062 530.226562 619.621094 531.050781 619.621094 531.878906 C 619.621094 532.707031 619.539062 533.527344 619.378906 534.339844 C 619.214844 535.152344 618.976562 535.945312 618.660156 536.710938 C 618.339844 537.476562 617.953125 538.203125 617.492188 538.890625 C 617.03125 539.582031 616.507812 540.21875 615.921875 540.804688 C 615.335938 541.390625 614.699219 541.914062 614.007812 542.375 C 613.320312 542.835938 612.59375 543.222656 611.828125 543.542969 C 611.058594 543.859375 610.269531 544.097656 609.457031 544.261719 C 608.644531 544.421875 607.824219 544.503906 606.996094 544.503906 Z M 606.996094 544.503906 " fill-opacity="1" fill-rule="nonzero"/><path fill="#ffffff" d="M 606.996094 393.007812 L 581.746094 393.007812 C 580.917969 393.007812 580.09375 392.925781 579.28125 392.765625 C 578.46875 392.601562 577.679688 392.363281 576.914062 392.046875 C 576.148438 391.726562 575.421875 391.339844 574.730469 390.878906 C 574.042969 390.417969 573.40625 389.894531 572.820312 389.308594 C 572.234375 388.722656 571.710938 388.085938 571.25 387.394531 C 570.789062 386.707031 570.398438 385.980469 570.082031 385.214844 C 569.765625 384.445312 569.523438 383.65625 569.363281 382.84375 C 569.203125 382.03125 569.121094 381.210938 569.121094 380.382812 C 569.121094 379.554688 569.203125 378.730469 569.363281 377.917969 C 569.523438 377.105469 569.765625 376.316406 570.082031 375.550781 C 570.398438 374.785156 570.789062 374.058594 571.25 373.367188 C 571.710938 372.679688 572.234375 372.039062 572.820312 371.453125 C 573.40625 370.867188 574.042969 370.34375 574.730469 369.886719 C 575.421875 369.425781 576.148438 369.035156 576.914062 368.71875 C 577.679688 368.402344 578.46875 368.160156 579.28125 368 C 580.09375 367.839844 580.917969 367.757812 581.746094 367.757812 L 606.996094 367.757812 C 607.824219 367.757812 608.644531 367.839844 609.457031 368 C 610.269531 368.160156 611.058594 368.402344 611.828125 368.71875 C 612.59375 369.035156 613.320312 369.425781 614.007812 369.886719 C 614.699219 370.34375 615.335938 370.867188 615.921875 371.453125 C 616.507812 372.039062 617.03125 372.679688 617.492188 373.367188 C 617.953125 374.058594 618.339844 374.785156 618.660156 375.550781 C 618.976562 376.316406 619.214844 377.105469 619.378906 377.917969 C 619.539062 378.730469 619.621094 379.554688 619.621094 380.382812 C 619.621094 381.210938 619.539062 382.03125 619.378906 382.84375 C 619.214844 383.65625 618.976562 384.445312 618.660156 385.214844 C 618.339844 385.980469 617.953125 386.707031 617.492188 387.394531 C 617.03125 388.085938 616.507812 388.722656 615.921875 389.308594 C 615.335938 389.894531 614.699219 390.417969 614.007812 390.878906 C 613.320312 391.339844 612.59375 391.726562 611.828125 392.046875 C 611.058594 392.363281 610.269531 392.601562 609.457031 392.765625 C 608.644531 392.925781 607.824219 393.007812 606.996094 393.007812 Z M 606.996094 393.007812 " fill-opacity="1" fill-rule="nonzero"/><path fill="#ffffff" d="M 543.871094 393.007812 L 480.75 393.007812 C 479.917969 393.007812 479.097656 392.925781 478.285156 392.765625 C 477.472656 392.601562 476.683594 392.363281 475.917969 392.046875 C 475.152344 391.726562 474.421875 391.339844 473.734375 390.878906 C 473.046875 390.417969 472.40625 389.894531 471.820312 389.308594 C 471.234375 388.722656 470.710938 388.085938 470.25 387.394531 C 469.789062 386.707031 469.402344 385.980469 469.085938 385.214844 C 468.765625 384.445312 468.527344 383.65625 468.367188 382.84375 C 468.203125 382.03125 468.125 381.210938 468.125 380.382812 C 468.125 379.554688 468.203125 378.730469 468.367188 377.917969 C 468.527344 377.105469 468.765625 376.316406 469.085938 375.550781 C 469.402344 374.785156 469.789062 374.058594 470.25 373.367188 C 470.710938 372.679688 471.234375 372.039062 471.820312 371.453125 C 472.40625 370.867188 473.046875 370.34375 473.734375 369.886719 C 474.421875 369.425781 475.152344 369.035156 475.917969 368.71875 C 476.683594 368.402344 477.472656 368.160156 478.285156 368 C 479.097656 367.839844 479.917969 367.757812 480.75 367.757812 L 543.871094 367.757812 C 544.699219 367.757812 545.519531 367.839844 546.335938 368 C 547.148438 368.160156 547.9375 368.402344 548.703125 368.71875 C 549.46875 369.035156 550.195312 369.425781 550.886719 369.886719 C 551.574219 370.34375 552.210938 370.867188 552.796875 371.453125 C 553.382812 372.039062 553.90625 372.679688 554.367188 373.367188 C 554.828125 374.058594 555.21875 374.785156 555.535156 375.550781 C 555.851562 376.316406 556.09375 377.105469 556.253906 377.917969 C 556.414062 378.730469 556.496094 379.554688 556.496094 380.382812 C 556.496094 381.210938 556.414062 382.03125 556.253906 382.84375 C 556.09375 383.65625 555.851562 384.445312 555.535156 385.214844 C 555.21875 385.980469 554.828125 386.707031 554.367188 387.394531 C 553.90625 388.085938 553.382812 388.722656 552.796875 389.308594 C 552.210938 389.894531 551.574219 390.417969 550.886719 390.878906 C 550.195312 391.339844 549.46875 391.726562 548.703125 392.046875 C 547.9375 392.363281 547.148438 392.601562 546.335938 392.765625 C 545.519531 392.925781 544.699219 393.007812 543.871094 393.007812 Z M 543.871094 393.007812 " fill-opacity="1" fill-rule="nonzero"/><path fill="#ffffff" d="M 606.996094 342.507812 L 543.871094 342.507812 C 543.042969 342.507812 542.222656 342.425781 541.410156 342.265625 C 540.59375 342.101562 539.804688 341.863281 539.039062 341.546875 C 538.273438 341.230469 537.546875 340.839844 536.859375 340.378906 C 536.167969 339.917969 535.53125 339.394531 534.945312 338.808594 C 534.359375 338.222656 533.835938 337.585938 533.375 336.898438 C 532.914062 336.207031 532.523438 335.480469 532.207031 334.714844 C 531.890625 333.949219 531.652344 333.160156 531.488281 332.347656 C 531.328125 331.53125 531.246094 330.710938 531.246094 329.882812 C 531.246094 329.054688 531.328125 328.234375 531.488281 327.421875 C 531.652344 326.605469 531.890625 325.816406 532.207031 325.050781 C 532.523438 324.285156 532.914062 323.558594 533.375 322.871094 C 533.835938 322.179688 534.359375 321.542969 534.945312 320.957031 C 535.53125 320.371094 536.167969 319.847656 536.859375 319.386719 C 537.546875 318.925781 538.273438 318.535156 539.039062 318.21875 C 539.804688 317.902344 540.59375 317.664062 541.410156 317.5 C 542.222656 317.339844 543.042969 317.257812 543.871094 317.257812 L 606.996094 317.257812 C 607.824219 317.257812 608.644531 317.339844 609.457031 317.5 C 610.269531 317.664062 611.058594 317.902344 611.828125 318.21875 C 612.59375 318.535156 613.320312 318.925781 614.007812 319.386719 C 614.699219 319.847656 615.335938 320.371094 615.921875 320.957031 C 616.507812 321.542969 617.03125 322.179688 617.492188 322.871094 C 617.953125 323.558594 618.339844 324.285156 618.660156 325.050781 C 618.976562 325.816406 619.214844 326.605469 619.378906 327.421875 C 619.539062 328.234375 619.621094 329.054688 619.621094 329.882812 C 619.621094 330.710938 619.539062 331.53125 619.378906 332.347656 C 619.214844 333.160156 618.976562 333.949219 618.660156 334.714844 C 618.339844 335.480469 617.953125 336.207031 617.492188 336.898438 C 617.03125 337.585938 616.507812 338.222656 615.921875 338.808594 C 615.335938 339.394531 614.699219 339.917969 614.007812 340.378906 C 613.320312 340.839844 612.59375 341.230469 611.828125 341.546875 C 611.058594 341.863281 610.269531 342.101562 609.457031 342.265625 C 608.644531 342.425781 607.824219 342.507812 606.996094 342.507812 Z M 606.996094 342.507812 " fill-opacity="1" fill-rule="nonzero"/></svg>