<svg xmlns="http://www.w3.org/2000/svg" xmlns:xlink="http://www.w3.org/1999/xlink" width="1080" zoomAndPan="magnify" viewBox="0 0 810 809.999993" height="1080" preserveAspectRatio="xMidYMid meet" version="1.0"><path fill="#ffffff" d="M 354.324219 208.273438 L 88.582031 208.273438 C 81.621094 208.273438 75.925781 213.96875 75.925781 220.929688 C 75.925781 227.886719 81.621094 233.582031 88.582031 233.582031 L 354.324219 233.582031 C 361.285156 233.582031 366.976562 227.886719 366.976562 220.929688 C 366.976562 213.96875 361.285156 208.273438 354.324219 208.273438 Z M 354.324219 208.273438 " fill-opacity="1" fill-rule="nonzero"/><path fill="#ffffff" d="M 354.324219 258.890625 L 88.582031 258.890625 C 81.621094 258.890625 75.925781 264.585938 75.925781 271.546875 C 75.925781 278.507812 81.621094 284.199219 88.582031 284.199219 L 354.324219 284.199219 C 361.285156 284.199219 366.976562 278.507812 366.976562 271.546875 C 366.976562 264.585938 361.285156 258.890625 354.324219 258.890625 Z M 354.324219 258.890625 " fill-opacity="1" fill-rule="nonzero"/><path fill="#ffffff" d="M 354.324219 309.507812 L 88.582031 309.507812 C 81.621094 309.507812 75.925781 315.203125 75.925781 322.164062 C 75.925781 329.125 81.621094 334.816406 88.582031 334.816406 L 354.324219 334.816406 C 361.285156 334.816406 366.976562 329.125 366.976562 322.164062 C 366.976562 315.203125 361.285156 309.507812 354.324219 309.507812 Z M 354.324219 309.507812 " fill-opacity="1" fill-rule="nonzero"/><path fill="#ffffff" d="M 366.976562 682.816406 C 366.976562 675.855469 361.285156 670.160156 354.324219 670.160156 L 88.582031 670.160156 C 81.621094 670.160156 75.925781 675.855469 75.925781 682.816406 C 75.925781 689.773438 81.621094 695.46875 88.582031 695.46875 L 354.324219 695.46875 C 361.285156 695.46875 366.976562 689.773438 366.976562 682.816406 Z M 366.976562 682.816406 " fill-opacity="1" fill-rule="nonzero"/><path fill="#ffffff" d="M 88.582031 720.777344 C 81.621094 720.777344 75.925781 726.472656 75.925781 733.433594 C 75.925781 740.390625 81.621094 746.085938 88.582031 746.085938 L 272.070312 746.085938 C 279.03125 746.085938 284.722656 740.390625 284.722656 733.433594 C 284.722656 726.472656 279.03125 720.777344 272.070312 720.777344 Z M 88.582031 720.777344 " fill-opacity="1" fill-rule="nonzero"/><path fill="#ffffff" d="M 272.070312 493 C 279.03125 493 284.722656 487.304688 284.722656 480.34375 C 284.722656 473.382812 279.03125 467.691406 272.070312 467.691406 L 88.582031 467.691406 C 81.621094 467.691406 75.925781 473.382812 75.925781 480.34375 C 75.925781 487.304688 81.621094 493 88.582031 493 Z M 272.070312 493 " fill-opacity="1" fill-rule="nonzero"/><path fill="#ffffff" d="M 75.925781 594.234375 C 75.925781 608.152344 87.316406 619.542969 101.234375 619.542969 L 151.851562 619.542969 C 165.773438 619.542969 177.160156 608.152344 177.160156 594.234375 L 177.160156 543.617188 C 177.160156 529.695312 165.773438 518.308594 151.851562 518.308594 L 101.234375 518.308594 C 87.316406 518.308594 75.925781 529.695312 75.925781 543.617188 Z M 101.234375 543.617188 L 151.851562 543.617188 L 151.851562 594.234375 L 101.234375 594.234375 Z M 101.234375 543.617188 " fill-opacity="1" fill-rule="nonzero"/><path fill="#ffffff" d="M 346.730469 434.789062 L 364.449219 417.070312 L 88.582031 417.070312 C 81.621094 417.070312 75.925781 422.765625 75.925781 429.726562 C 75.925781 436.6875 81.621094 442.378906 88.582031 442.378906 L 340.402344 442.378906 C 342.300781 439.21875 344.199219 436.6875 346.730469 434.789062 Z M 346.730469 434.789062 " fill-opacity="1" fill-rule="nonzero"/><path fill="#ffffff" d="M 580.839844 200.046875 C 577.675781 189.925781 568.183594 182.964844 556.792969 182.964844 L 430.25 182.964844 C 416.332031 182.964844 404.941406 194.355469 404.941406 208.273438 L 404.941406 334.816406 C 404.941406 346.207031 412.535156 355.066406 422.023438 358.863281 L 446.066406 334.816406 L 430.25 334.816406 L 430.25 208.273438 L 556.792969 208.273438 L 556.792969 224.09375 Z M 580.839844 200.046875 " fill-opacity="1" fill-rule="nonzero"/><path fill="#ffffff" d="M 467.582031 567.027344 L 455.558594 570.824219 L 455.558594 594.234375 C 455.558594 608.152344 466.949219 619.542969 480.867188 619.542969 L 531.484375 619.542969 C 545.40625 619.542969 556.792969 608.152344 556.792969 594.234375 L 556.792969 543.617188 C 556.792969 529.695312 545.40625 518.308594 531.484375 518.308594 L 521.996094 518.308594 L 496.6875 543.617188 L 531.484375 543.617188 L 531.484375 594.234375 L 480.867188 594.234375 L 480.867188 559.433594 C 477.070312 562.597656 472.644531 565.128906 467.582031 567.027344 Z M 467.582031 567.027344 " fill-opacity="1" fill-rule="nonzero"/><path fill="#ffffff" d="M 309.402344 543.617188 L 316.992188 518.308594 L 291.050781 518.308594 C 277.132812 518.308594 265.742188 529.695312 265.742188 543.617188 L 265.742188 594.234375 C 265.742188 608.152344 277.132812 619.542969 291.050781 619.542969 L 341.667969 619.542969 C 353.058594 619.542969 363.183594 611.316406 365.710938 600.5625 L 353.691406 604.355469 C 349.894531 606.253906 345.464844 606.886719 341.667969 606.886719 C 331.546875 606.886719 322.6875 603.09375 315.09375 596.132812 C 314.460938 595.5 313.828125 594.867188 313.195312 594.234375 L 291.050781 594.234375 L 291.050781 543.617188 Z M 309.402344 543.617188 " fill-opacity="1" fill-rule="nonzero"/><path fill="#ffffff" d="M 658.03125 122.855469 L 658.03125 50.09375 C 658.03125 22.253906 635.253906 -0.523438 607.414062 -0.523438 L 50.617188 -0.523438 C 22.777344 -0.523438 0 22.253906 0 50.09375 L 0 758.742188 C 0 786.582031 22.777344 809.359375 50.617188 809.359375 L 607.414062 809.359375 C 635.253906 809.359375 658.03125 786.582031 658.03125 758.742188 L 658.03125 382.273438 L 632.722656 407.582031 L 632.722656 758.742188 C 632.722656 772.660156 621.332031 784.050781 607.414062 784.050781 L 50.617188 784.050781 C 36.699219 784.050781 25.308594 772.660156 25.308594 758.742188 L 25.308594 113.367188 L 632.722656 113.367188 L 632.722656 148.164062 Z M 25.308594 88.058594 L 25.308594 50.09375 C 25.308594 36.171875 36.699219 24.785156 50.617188 24.785156 L 607.414062 24.785156 C 621.332031 24.785156 632.722656 36.171875 632.722656 50.09375 L 632.722656 88.058594 Z M 25.308594 88.058594 " fill-opacity="1" fill-rule="nonzero"/><path fill="#ffffff" d="M 730.160156 104.507812 C 725.097656 99.445312 717.503906 99.445312 712.445312 104.507812 L 364.449219 452.503906 C 363.183594 453.769531 361.917969 455.667969 361.285156 457.566406 L 329.648438 565.128906 C 328.382812 569.558594 329.648438 574.621094 332.8125 577.78125 C 335.34375 580.3125 338.503906 581.578125 341.667969 581.578125 C 342.933594 581.578125 344.199219 581.578125 345.464844 580.945312 L 459.355469 542.984375 C 461.253906 542.351562 463.152344 541.085938 464.417969 539.820312 L 806.085938 198.148438 C 811.148438 193.089844 811.148438 185.496094 806.085938 180.433594 Z M 360.652344 549.308594 L 384.695312 468.320312 L 385.960938 467.058594 L 441.640625 522.734375 Z M 461.886719 506.917969 L 403.675781 448.707031 L 677.011719 175.371094 L 735.222656 233.582031 Z M 752.9375 215.867188 L 694.726562 157.65625 L 721.300781 131.082031 L 779.511719 189.292969 Z M 752.9375 215.867188 " fill-opacity="1" fill-rule="nonzero"/></svg>