<svg xmlns="http://www.w3.org/2000/svg" xmlns:xlink="http://www.w3.org/1999/xlink" width="1080" zoomAndPan="magnify" viewBox="0 0 810 809.999993" height="1080" preserveAspectRatio="xMidYMid meet" version="1.0"><path fill="#ffffff" d="M 320.203125 205.347656 C 320.203125 205.347656 320.835938 205.980469 320.835938 205.980469 C 342.351562 227.496094 372.09375 240.785156 405 240.785156 C 437.90625 240.785156 467.648438 227.496094 489.164062 205.980469 C 489.164062 205.980469 489.796875 205.347656 489.796875 205.347656 C 489.796875 205.347656 490.429688 204.714844 490.429688 204.714844 C 511.945312 183.199219 525.234375 153.457031 525.234375 120.550781 C 525.234375 87.644531 511.945312 57.902344 490.429688 36.386719 C 490.429688 36.386719 489.796875 35.753906 489.796875 35.753906 C 489.796875 35.753906 489.164062 35.121094 489.164062 35.121094 C 467.648438 13.605469 437.90625 0.316406 405 0.316406 C 372.09375 0.316406 342.351562 13.605469 320.835938 35.121094 C 320.835938 35.121094 320.203125 35.753906 320.203125 35.753906 C 320.203125 35.753906 319.570312 36.386719 319.570312 36.386719 C 298.054688 57.902344 284.765625 87.644531 284.765625 120.550781 C 284.765625 153.457031 298.054688 183.199219 319.570312 204.714844 C 319.570312 204.714844 319.570312 205.347656 320.203125 205.347656 Z M 322.734375 107.894531 L 310.710938 107.894531 C 313.242188 91.441406 319.570312 75.621094 329.0625 62.964844 L 337.289062 71.191406 C 339.820312 73.722656 342.984375 74.988281 346.148438 74.988281 C 349.3125 74.988281 352.476562 73.722656 355.007812 71.191406 C 360.070312 66.128906 360.070312 58.535156 355.007812 53.472656 L 346.78125 45.246094 C 359.4375 35.753906 374.625 28.792969 391.710938 26.894531 L 391.710938 38.285156 C 391.710938 45.246094 397.40625 50.941406 404.367188 50.941406 C 411.328125 50.941406 417.023438 45.246094 417.023438 38.285156 L 417.023438 26.261719 C 433.476562 28.792969 449.296875 35.121094 461.953125 44.613281 L 453.726562 52.839844 C 448.664062 57.902344 448.664062 65.496094 453.726562 70.558594 C 456.257812 73.089844 459.421875 74.355469 462.585938 74.355469 C 465.75 74.355469 468.914062 73.089844 471.445312 70.558594 L 479.671875 62.332031 C 489.164062 74.988281 496.125 90.175781 498.023438 107.261719 L 487.265625 107.261719 C 480.304688 107.261719 474.609375 112.957031 474.609375 119.917969 C 474.609375 126.878906 480.304688 132.574219 487.265625 132.574219 L 499.289062 132.574219 C 496.757812 149.027344 490.429688 164.847656 480.9375 177.503906 L 472.710938 169.277344 C 467.648438 164.214844 460.054688 164.214844 454.992188 169.277344 C 449.929688 174.339844 449.929688 181.933594 454.992188 186.996094 L 463.21875 195.222656 C 450.5625 204.714844 435.375 211.675781 418.289062 213.574219 L 418.289062 202.816406 C 418.289062 195.855469 412.59375 190.160156 405.632812 190.160156 C 398.671875 190.160156 392.976562 195.855469 392.976562 202.816406 L 392.976562 214.839844 C 376.523438 212.308594 360.703125 205.980469 348.046875 196.488281 L 356.273438 188.261719 C 361.335938 183.199219 361.335938 175.605469 356.273438 170.542969 C 351.210938 165.480469 343.617188 165.480469 338.554688 170.542969 L 330.328125 178.769531 C 320.835938 166.113281 313.875 150.925781 311.976562 133.839844 L 322.734375 133.839844 C 329.695312 133.839844 335.390625 128.144531 335.390625 121.183594 C 335.390625 114.222656 329.695312 107.894531 322.734375 107.894531 Z M 322.734375 107.894531 " fill-opacity="1" fill-rule="nonzero"/><path fill="#ffffff" d="M 373.359375 133.207031 L 405 133.207031 C 411.960938 133.207031 417.65625 127.511719 417.65625 120.550781 L 417.65625 82.582031 C 417.65625 75.621094 411.960938 69.925781 405 69.925781 C 398.039062 69.925781 392.34375 75.621094 392.34375 82.582031 L 392.34375 107.894531 L 373.359375 107.894531 C 366.398438 107.894531 360.703125 113.589844 360.703125 120.550781 C 360.703125 127.511719 366.398438 133.207031 373.359375 133.207031 Z M 373.359375 133.207031 " fill-opacity="1" fill-rule="nonzero"/><path fill="#ffffff" d="M 17.71875 448.980469 C 20.25 456.574219 23.414062 464.167969 27.210938 471.761719 C 23.414062 482.519531 25.3125 495.175781 34.171875 503.402344 L 48.09375 517.324219 C 53.789062 523.019531 61.382812 526.183594 69.609375 526.183594 C 73.40625 526.183594 76.570312 525.550781 80.367188 524.285156 C 87.328125 528.082031 94.921875 531.246094 103.148438 533.777344 C 108.210938 543.902344 118.335938 551.496094 130.359375 551.496094 L 149.976562 551.496094 C 162 551.496094 172.757812 544.535156 177.1875 533.777344 C 184.78125 531.246094 192.375 528.082031 199.96875 524.285156 C 203.132812 525.550781 206.929688 526.183594 210.726562 526.183594 C 218.953125 526.183594 226.546875 523.019531 232.242188 517.324219 L 246.164062 503.402344 C 255.023438 494.542969 256.921875 482.519531 253.125 471.761719 C 256.921875 464.800781 260.085938 457.207031 262.617188 448.980469 C 272.742188 443.917969 280.335938 433.792969 280.335938 421.769531 L 280.335938 402.152344 C 280.335938 390.128906 273.375 379.371094 262.617188 374.941406 C 260.085938 367.347656 256.921875 359.753906 253.125 352.160156 C 254.390625 348.996094 255.023438 345.199219 255.023438 341.402344 C 255.023438 333.175781 251.859375 325.582031 246.164062 319.886719 L 232.242188 305.964844 C 226.546875 300.269531 218.953125 297.105469 210.726562 297.105469 C 206.929688 297.105469 203.765625 297.738281 199.96875 299.003906 C 193.007812 295.207031 185.414062 292.042969 177.1875 289.511719 C 172.125 279.386719 162 271.792969 149.976562 271.792969 L 130.359375 271.792969 C 118.335938 271.792969 107.578125 278.753906 103.148438 289.511719 C 95.554688 292.042969 87.960938 295.207031 80.367188 299.003906 C 75.9375 298.371094 72.773438 297.738281 68.976562 297.738281 C 60.75 297.738281 53.15625 300.902344 47.460938 306.597656 L 33.539062 320.519531 C 28.476562 325.582031 25.3125 333.175781 25.3125 341.402344 C 25.3125 345.199219 25.945312 348.363281 27.210938 352.160156 C 23.414062 359.121094 20.25 366.714844 17.71875 374.941406 C 6.960938 379.371094 0 389.496094 0 402.152344 L 0 421.769531 C 0 433.792969 6.960938 443.917969 17.71875 448.980469 Z M 25.3125 402.152344 C 25.3125 399.621094 27.210938 397.089844 30.375 397.089844 L 38.601562 397.089844 C 41.132812 380.003906 48.09375 364.183594 57.585938 350.894531 L 51.890625 345.199219 C 49.992188 343.300781 49.992188 340.136719 51.890625 338.238281 L 65.8125 324.316406 C 66.445312 323.683594 67.710938 323.050781 68.976562 323.050781 C 70.242188 323.050781 71.507812 323.683594 72.140625 324.316406 L 77.835938 330.011719 C 91.125 319.886719 106.945312 313.558594 124.03125 311.027344 L 124.03125 302.800781 C 124.03125 300.269531 125.929688 297.738281 129.09375 297.738281 L 148.710938 297.738281 C 151.242188 297.738281 153.773438 299.636719 153.773438 302.800781 L 153.773438 311.027344 C 170.859375 313.558594 186.679688 320.519531 199.96875 330.011719 L 205.664062 324.316406 C 206.296875 323.683594 207.5625 323.050781 208.828125 323.050781 C 210.09375 323.050781 211.359375 323.683594 211.992188 324.316406 L 225.914062 338.238281 C 227.8125 340.136719 227.8125 343.300781 225.914062 345.199219 L 220.21875 350.894531 C 230.34375 364.183594 236.671875 380.003906 239.203125 397.089844 L 247.429688 397.089844 C 249.960938 397.089844 252.492188 398.988281 252.492188 402.152344 L 252.492188 421.769531 C 252.492188 424.300781 250.59375 426.832031 247.429688 426.832031 L 239.203125 426.832031 C 236.671875 443.917969 229.710938 459.738281 220.21875 473.027344 L 225.914062 478.722656 C 227.8125 480.621094 227.8125 483.785156 225.914062 485.683594 L 211.992188 499.605469 C 211.992188 500.238281 210.726562 500.238281 209.460938 500.238281 C 208.195312 500.238281 206.929688 499.605469 206.296875 498.972656 L 200.601562 493.277344 C 187.3125 503.402344 171.492188 509.730469 154.40625 512.261719 L 154.40625 520.488281 C 154.40625 523.019531 152.507812 525.550781 149.34375 525.550781 L 129.726562 525.550781 C 127.195312 525.550781 124.664062 523.652344 124.664062 520.488281 L 124.664062 512.261719 C 107.578125 509.730469 91.757812 502.769531 78.46875 493.277344 L 72.773438 498.972656 C 71.507812 500.238281 70.242188 500.238281 68.976562 500.238281 C 67.710938 500.238281 66.445312 499.605469 65.8125 498.972656 L 51.890625 485.050781 C 49.992188 483.152344 49.992188 479.988281 51.890625 478.089844 L 57.585938 472.394531 C 47.460938 459.105469 41.132812 443.285156 38.601562 426.199219 L 30.375 426.199219 C 27.210938 426.199219 25.3125 424.300781 25.3125 421.136719 Z M 25.3125 402.152344 " fill-opacity="1" fill-rule="nonzero"/><path fill="#ffffff" d="M 139.21875 487.582031 C 180.984375 487.582031 215.15625 453.410156 215.15625 411.644531 C 215.15625 369.878906 180.984375 335.707031 139.21875 335.707031 C 97.453125 335.707031 63.28125 369.878906 63.28125 411.644531 C 63.28125 453.410156 97.453125 487.582031 139.21875 487.582031 Z M 139.21875 361.019531 C 167.0625 361.019531 189.84375 383.800781 189.84375 411.644531 C 189.84375 439.488281 167.0625 462.269531 139.21875 462.269531 C 111.375 462.269531 88.59375 439.488281 88.59375 411.644531 C 88.59375 383.800781 111.375 361.019531 139.21875 361.019531 Z M 139.21875 361.019531 " fill-opacity="1" fill-rule="nonzero"/><path fill="#ffffff" d="M 652.429688 240.785156 L 682.171875 240.785156 C 650.53125 188.261719 604.96875 145.230469 549.914062 117.386719 C 549.914062 118.652344 549.914062 119.285156 549.914062 120.550781 C 549.914062 128.777344 549.28125 137.003906 548.015625 144.597656 C 590.414062 168.011719 626.484375 200.917969 652.429688 240.785156 Z M 652.429688 240.785156 " fill-opacity="1" fill-rule="nonzero"/><path fill="#ffffff" d="M 772.03125 291.410156 L 746.085938 291.410156 C 742.921875 276.855469 730.265625 266.097656 715.078125 266.097656 L 651.796875 266.097656 C 636.609375 266.097656 623.953125 276.855469 620.789062 291.410156 L 594.84375 291.410156 C 573.960938 291.410156 556.875 308.496094 556.875 329.378906 L 556.875 519.222656 C 556.875 540.105469 573.960938 557.191406 594.84375 557.191406 L 772.03125 557.191406 C 792.914062 557.191406 810 540.105469 810 519.222656 L 810 329.378906 C 810 308.496094 792.914062 291.410156 772.03125 291.410156 Z M 645.46875 297.738281 C 645.46875 293.941406 648 291.410156 651.796875 291.410156 L 715.078125 291.410156 C 718.875 291.410156 721.40625 293.941406 721.40625 297.738281 L 721.40625 310.394531 C 721.40625 314.191406 718.875 316.722656 715.078125 316.722656 L 651.796875 316.722656 C 648 316.722656 645.46875 314.191406 645.46875 310.394531 Z M 784.6875 519.222656 C 784.6875 526.183594 778.992188 531.878906 772.03125 531.878906 L 594.84375 531.878906 C 587.882812 531.878906 582.1875 526.183594 582.1875 519.222656 L 582.1875 329.378906 C 582.1875 322.417969 587.882812 316.722656 594.84375 316.722656 L 620.789062 316.722656 C 623.953125 331.277344 636.609375 342.035156 651.796875 342.035156 L 715.078125 342.035156 C 730.265625 342.035156 742.921875 331.277344 746.085938 316.722656 L 772.03125 316.722656 C 778.992188 316.722656 784.6875 322.417969 784.6875 329.378906 Z M 784.6875 519.222656 " fill-opacity="1" fill-rule="nonzero"/><path fill="#ffffff" d="M 734.0625 367.347656 L 632.8125 367.347656 C 625.851562 367.347656 620.15625 373.042969 620.15625 380.003906 C 620.15625 386.964844 625.851562 392.660156 632.8125 392.660156 L 734.0625 392.660156 C 741.023438 392.660156 746.71875 386.964844 746.71875 380.003906 C 746.71875 373.042969 741.023438 367.347656 734.0625 367.347656 Z M 734.0625 367.347656 " fill-opacity="1" fill-rule="nonzero"/><path fill="#ffffff" d="M 734.0625 417.972656 L 632.8125 417.972656 C 625.851562 417.972656 620.15625 423.667969 620.15625 430.628906 C 620.15625 437.589844 625.851562 443.285156 632.8125 443.285156 L 734.0625 443.285156 C 741.023438 443.285156 746.71875 437.589844 746.71875 430.628906 C 746.71875 423.667969 741.023438 417.972656 734.0625 417.972656 Z M 734.0625 417.972656 " fill-opacity="1" fill-rule="nonzero"/><path fill="#ffffff" d="M 734.0625 468.597656 L 632.8125 468.597656 C 625.851562 468.597656 620.15625 474.292969 620.15625 481.253906 C 620.15625 488.214844 625.851562 493.910156 632.8125 493.910156 L 734.0625 493.910156 C 741.023438 493.910156 746.71875 488.214844 746.71875 481.253906 C 746.71875 474.292969 741.023438 468.597656 734.0625 468.597656 Z M 734.0625 468.597656 " fill-opacity="1" fill-rule="nonzero"/><path fill="#ffffff" d="M 148.710938 247.113281 C 149.976562 247.113281 151.242188 247.113281 152.507812 247.113281 C 179.085938 204.714844 216.421875 169.277344 260.71875 144.597656 C 260.085938 137.003906 259.453125 128.777344 259.453125 120.550781 C 259.453125 119.285156 259.453125 118.652344 259.453125 117.386719 C 202.5 146.496094 155.039062 192.058594 123.398438 247.746094 C 125.296875 247.746094 127.195312 247.113281 129.09375 247.113281 Z M 148.710938 247.113281 " fill-opacity="1" fill-rule="nonzero"/><path fill="#ffffff" d="M 674.578125 582.503906 L 644.203125 582.503906 C 623.953125 610.347656 598.640625 633.761719 569.53125 653.378906 C 551.8125 645.785156 533.460938 637.558594 519.539062 631.863281 C 511.3125 628.066406 504.984375 625.535156 500.554688 623.636719 L 489.796875 588.832031 C 515.742188 555.925781 531.5625 509.730469 531.5625 467.332031 C 531.5625 391.394531 477.773438 329.378906 411.328125 329.378906 C 344.882812 329.378906 291.09375 391.394531 291.09375 467.332031 C 291.09375 509.730469 306.914062 555.925781 332.859375 588.832031 L 322.101562 623.003906 C 318.304688 624.902344 311.34375 627.433594 303.117188 631.230469 C 287.296875 638.191406 265.78125 647.683594 245.53125 655.910156 C 211.992188 634.394531 182.882812 607.183594 160.734375 574.277344 C 156.9375 574.910156 153.140625 575.542969 148.710938 575.542969 L 130.992188 575.542969 C 153.773438 611.613281 182.882812 642.621094 217.6875 667.300781 C 202.5 673.628906 191.109375 678.691406 189.210938 679.324219 C 185.414062 680.589844 182.25 683.753906 181.617188 687.550781 L 151.875 793.230469 C 150.609375 797.027344 151.875 801.457031 153.773438 804.621094 C 155.671875 807.785156 160.101562 809.683594 163.898438 809.683594 L 657.492188 809.683594 C 661.289062 809.683594 665.085938 807.785156 667.617188 804.621094 C 670.148438 801.457031 670.78125 797.660156 669.515625 793.230469 L 639.773438 687.550781 C 638.507812 683.753906 635.976562 680.589844 632.179688 679.324219 C 630.28125 678.691406 615.09375 672.363281 596.109375 663.503906 C 627.117188 641.988281 653.695312 614.144531 674.578125 582.503906 Z M 316.40625 467.332031 C 316.40625 405.316406 358.804688 354.691406 411.328125 354.691406 C 463.851562 354.691406 506.25 405.316406 506.25 467.332031 C 506.25 529.347656 463.851562 607.816406 411.328125 607.816406 C 358.804688 607.816406 316.40625 529.980469 316.40625 467.332031 Z M 617.625 701.472656 L 641.039062 785.003906 L 180.984375 785.003906 L 204.398438 701.472656 C 215.789062 696.410156 243.632812 685.019531 312.609375 654.644531 C 337.921875 643.886719 337.921875 643.253906 339.820312 642.621094 C 341.71875 640.722656 343.617188 638.824219 344.25 636.292969 L 352.476562 609.714844 C 369.5625 624.269531 389.8125 633.128906 410.695312 633.128906 C 431.578125 633.128906 451.828125 624.269531 468.914062 609.714844 L 477.140625 636.292969 C 477.773438 638.824219 479.671875 641.355469 481.570312 642.621094 C 482.835938 643.886719 483.46875 643.886719 508.148438 654.644531 C 578.390625 684.386719 606.234375 696.410156 617.625 701.472656 Z M 617.625 701.472656 " fill-opacity="1" fill-rule="nonzero"/></svg>