<svg xmlns="http://www.w3.org/2000/svg" xmlns:xlink="http://www.w3.org/1999/xlink" width="1080" zoomAndPan="magnify" viewBox="0 0 810 809.999993" height="1080" preserveAspectRatio="xMidYMid meet" version="1.0"><path fill="#ffffff" d="M 783.476562 0 L 548.988281 0 C 534.363281 0 522.464844 11.898438 522.464844 26.523438 L 522.464844 51.613281 L 199.9375 51.613281 C 192.949219 51.613281 187.28125 57.28125 187.28125 64.269531 L 187.28125 205.261719 C 82.910156 211.8125 0 298.792969 0 404.785156 C 0 510.78125 82.910156 597.757812 187.28125 604.3125 L 187.28125 745.726562 C 187.28125 752.71875 192.949219 758.382812 199.9375 758.382812 L 522.46875 758.382812 L 522.46875 783.476562 C 522.46875 798.101562 534.367188 810 548.988281 810 L 783.480469 810 C 798.101562 810 810 798.101562 810 783.476562 L 810 707.980469 C 810 693.355469 798.101562 681.457031 783.480469 681.457031 L 548.988281 681.457031 C 534.367188 681.457031 522.46875 693.355469 522.46875 707.980469 L 522.46875 733.070312 L 212.59375 733.070312 L 212.59375 604.3125 C 255.875 601.59375 295.472656 585.058594 326.988281 559.054688 L 352.25 584.3125 C 354.625 586.683594 357.839844 588.019531 361.199219 588.019531 L 522.46875 588.019531 L 522.46875 613.109375 C 522.46875 627.734375 534.367188 639.632812 548.988281 639.632812 L 783.480469 639.632812 C 798.101562 639.632812 810 627.734375 810 613.109375 L 810 537.617188 C 810 522.992188 798.101562 511.09375 783.480469 511.09375 L 548.988281 511.09375 C 534.367188 511.09375 522.46875 522.992188 522.46875 537.617188 L 522.46875 562.703125 L 366.441406 562.703125 L 345.46875 541.730469 C 376.429688 508.847656 396.394531 465.515625 399.453125 417.652344 L 522.46875 417.652344 L 522.46875 442.742188 C 522.46875 457.367188 534.367188 469.265625 548.988281 469.265625 L 783.480469 469.265625 C 798.101562 469.265625 810 457.367188 810 442.742188 L 810 367.246094 C 810 352.625 798.101562 340.726562 783.480469 340.726562 L 548.988281 340.726562 C 534.367188 340.726562 522.46875 352.625 522.46875 367.246094 L 522.46875 392.34375 L 399.480469 392.34375 C 397.796875 365.304688 390.621094 338.851562 378.457031 314.75 L 441.695312 251.511719 C 444.972656 248.234375 446.199219 243.429688 444.886719 238.984375 C 443.578125 234.539062 439.945312 231.167969 435.414062 230.191406 L 400.40625 222.644531 L 403.207031 219.847656 C 408.148438 214.90625 408.148438 206.890625 403.207031 201.949219 C 398.261719 197.007812 390.25 197.007812 385.308594 201.949219 L 382.507812 204.75 L 374.960938 169.738281 C 373.984375 165.210938 370.609375 161.574219 366.164062 160.265625 C 361.726562 158.960938 356.917969 160.179688 353.640625 163.457031 L 290.542969 226.550781 C 266.355469 214.25 239.78125 206.980469 212.59375 205.257812 L 212.59375 76.925781 L 522.46875 76.925781 L 522.46875 102.015625 C 522.46875 116.640625 534.367188 128.539062 548.988281 128.539062 L 783.480469 128.539062 C 798.101562 128.539062 810 116.640625 810 102.015625 L 810 26.523438 C 810 11.898438 798.101562 0 783.476562 0 Z M 547.78125 707.984375 C 547.78125 707.351562 548.355469 706.773438 548.988281 706.773438 L 783.480469 706.773438 C 784.113281 706.773438 784.6875 707.351562 784.6875 707.984375 L 784.6875 783.480469 C 784.6875 784.113281 784.113281 784.6875 783.480469 784.6875 L 548.988281 784.6875 C 548.355469 784.6875 547.78125 784.113281 547.78125 783.480469 Z M 547.78125 537.617188 C 547.78125 536.984375 548.355469 536.410156 548.988281 536.410156 L 783.480469 536.410156 C 784.113281 536.410156 784.6875 536.984375 784.6875 537.617188 L 784.6875 613.113281 C 784.6875 613.746094 784.113281 614.324219 783.480469 614.324219 L 548.988281 614.324219 C 548.355469 614.324219 547.78125 613.746094 547.78125 613.113281 Z M 547.78125 367.253906 C 547.78125 366.621094 548.355469 366.042969 548.988281 366.042969 L 783.480469 366.042969 C 784.113281 366.042969 784.6875 366.621094 784.6875 367.253906 L 784.6875 442.75 C 784.6875 443.382812 784.113281 443.960938 783.480469 443.960938 L 548.988281 443.960938 C 548.355469 443.960938 547.78125 443.382812 547.78125 442.75 Z M 25.3125 404.785156 C 25.3125 308.496094 103.648438 230.160156 199.9375 230.160156 C 226.167969 230.160156 252.042969 236.078125 275.492188 247.332031 C 275.519531 248.070312 275.585938 248.808594 275.746094 249.542969 L 286.730469 300.523438 L 284.796875 302.457031 C 261.75 283.3125 232.167969 271.78125 199.9375 271.78125 C 126.597656 271.78125 66.933594 331.449219 66.933594 404.785156 C 66.933594 478.125 126.597656 537.789062 199.9375 537.789062 C 273.273438 537.789062 332.941406 478.125 332.941406 404.785156 C 332.941406 372.773438 321.570312 343.367188 302.65625 320.390625 L 304.628906 318.421875 L 355.605469 329.40625 C 356.265625 329.546875 356.925781 329.617188 357.589844 329.652344 C 368.714844 353 374.5625 378.726562 374.5625 404.785156 C 374.5625 404.851562 374.558594 404.921875 374.558594 404.988281 C 374.558594 404.992188 374.558594 404.996094 374.558594 405 C 374.558594 405 374.558594 405 374.558594 405.003906 C 374.441406 501.195312 296.152344 579.410156 199.9375 579.410156 C 103.648438 579.414062 25.3125 501.074219 25.3125 404.785156 Z M 240.699219 404.785156 C 240.699219 427.261719 222.414062 445.546875 199.9375 445.546875 C 177.464844 445.546875 159.179688 427.261719 159.179688 404.785156 C 159.179688 382.3125 177.464844 364.027344 199.9375 364.027344 C 206.683594 364.027344 213.046875 365.683594 218.65625 368.597656 L 191.199219 396.050781 C 186.257812 400.992188 186.257812 409.003906 191.199219 413.949219 C 193.675781 416.421875 196.914062 417.65625 200.152344 417.65625 C 203.390625 417.65625 206.628906 416.421875 209.101562 413.949219 L 236.414062 386.632812 C 239.152344 392.105469 240.699219 398.265625 240.699219 404.785156 Z M 237.078125 350.175781 C 226.488281 342.949219 213.699219 338.714844 199.9375 338.714844 C 163.507812 338.714844 133.867188 368.355469 133.867188 404.789062 C 133.867188 441.21875 163.507812 470.859375 199.9375 470.859375 C 236.371094 470.859375 266.011719 441.21875 266.011719 404.789062 C 266.011719 391.246094 261.910156 378.648438 254.894531 368.160156 L 284.648438 338.40625 C 299.023438 356.714844 307.632812 379.757812 307.632812 404.789062 C 307.632812 464.167969 259.320312 512.480469 199.941406 512.480469 C 140.558594 512.480469 92.246094 464.167969 92.246094 404.785156 C 92.246094 345.40625 140.558594 297.09375 199.9375 297.09375 C 225.1875 297.09375 248.414062 305.851562 266.796875 320.457031 Z M 407.371094 250.039062 L 354.199219 303.210938 L 325.933594 297.121094 L 379.105469 243.949219 Z M 355.113281 197.78125 L 361.203125 226.050781 L 308.03125 279.222656 L 301.941406 250.953125 Z M 784.6875 102.015625 C 784.6875 102.648438 784.113281 103.226562 783.476562 103.226562 L 548.988281 103.226562 C 548.355469 103.226562 547.777344 102.652344 547.777344 102.015625 L 547.777344 26.523438 C 547.777344 25.890625 548.355469 25.3125 548.988281 25.3125 L 783.476562 25.3125 C 784.109375 25.3125 784.6875 25.890625 784.6875 26.523438 Z M 783.476562 170.367188 L 548.988281 170.367188 C 534.363281 170.367188 522.464844 182.265625 522.464844 196.886719 L 522.464844 221.980469 L 484.101562 221.980469 C 477.113281 221.980469 471.445312 227.644531 471.445312 234.636719 C 471.445312 241.625 477.113281 247.292969 484.101562 247.292969 L 522.464844 247.292969 L 522.464844 272.382812 C 522.464844 287.007812 534.363281 298.90625 548.988281 298.90625 L 783.476562 298.90625 C 798.101562 298.90625 810 287.007812 810 272.382812 L 810 196.886719 C 810 182.265625 798.101562 170.367188 783.476562 170.367188 Z M 784.6875 272.382812 C 784.6875 273.015625 784.113281 273.59375 783.476562 273.59375 L 548.988281 273.59375 C 548.355469 273.59375 547.777344 273.015625 547.777344 272.382812 L 547.777344 196.886719 C 547.777344 196.253906 548.355469 195.679688 548.988281 195.679688 L 783.476562 195.679688 C 784.109375 195.679688 784.6875 196.253906 784.6875 196.886719 Z M 746.519531 64.269531 C 746.519531 71.257812 740.855469 76.925781 733.863281 76.925781 L 598.601562 76.925781 C 591.613281 76.925781 585.945312 71.257812 585.945312 64.269531 C 585.945312 57.28125 591.613281 51.613281 598.601562 51.613281 L 733.863281 51.613281 C 740.855469 51.613281 746.519531 57.28125 746.519531 64.269531 Z M 746.519531 234.636719 C 746.519531 241.625 740.855469 247.292969 733.863281 247.292969 L 598.601562 247.292969 C 591.613281 247.292969 585.945312 241.625 585.945312 234.636719 C 585.945312 227.644531 591.613281 221.980469 598.601562 221.980469 L 733.863281 221.980469 C 740.855469 221.980469 746.519531 227.644531 746.519531 234.636719 Z M 585.945312 405 C 585.945312 398.011719 591.613281 392.34375 598.601562 392.34375 L 733.863281 392.34375 C 740.855469 392.34375 746.519531 398.011719 746.519531 405 C 746.519531 411.988281 740.855469 417.65625 733.863281 417.65625 L 598.601562 417.65625 C 591.613281 417.65625 585.945312 411.992188 585.945312 405 Z M 585.945312 575.367188 C 585.945312 568.375 591.613281 562.710938 598.601562 562.710938 L 733.863281 562.710938 C 740.855469 562.710938 746.519531 568.375 746.519531 575.367188 C 746.519531 582.355469 740.855469 588.023438 733.863281 588.023438 L 598.601562 588.023438 C 591.613281 588.023438 585.945312 582.355469 585.945312 575.367188 Z M 585.945312 745.730469 C 585.945312 738.742188 591.613281 733.074219 598.601562 733.074219 L 733.863281 733.074219 C 740.855469 733.074219 746.519531 738.742188 746.519531 745.730469 C 746.519531 752.71875 740.855469 758.386719 733.863281 758.386719 L 598.601562 758.386719 C 591.613281 758.386719 585.945312 752.71875 585.945312 745.730469 Z M 585.945312 745.730469 " fill-opacity="1" fill-rule="nonzero"/></svg>