<svg xmlns="http://www.w3.org/2000/svg" xmlns:xlink="http://www.w3.org/1999/xlink" width="1080" zoomAndPan="magnify" viewBox="0 0 810 809.999993" height="1080" preserveAspectRatio="xMidYMid meet" version="1.0"><defs><clipPath id="4e9ba8a0ac"><path d="M 175 126 L 773 126 L 773 728.851562 L 175 728.851562 Z M 175 126 " clip-rule="nonzero"/></clipPath><clipPath id="6a1fa5ab09"><path d="M 202 89.101562 L 256 89.101562 L 256 175 L 202 175 Z M 202 89.101562 " clip-rule="nonzero"/></clipPath><clipPath id="c4250ea7d9"><path d="M 282 89.101562 L 336 89.101562 L 336 175 L 282 175 Z M 282 89.101562 " clip-rule="nonzero"/></clipPath><clipPath id="f75f54608d"><path d="M 362 89.101562 L 416 89.101562 L 416 175 L 362 175 Z M 362 89.101562 " clip-rule="nonzero"/></clipPath><clipPath id="6fcb547c90"><path d="M 442 89.101562 L 496 89.101562 L 496 175 L 442 175 Z M 442 89.101562 " clip-rule="nonzero"/></clipPath><clipPath id="d9926081bf"><path d="M 522 89.101562 L 576 89.101562 L 576 175 L 522 175 Z M 522 89.101562 " clip-rule="nonzero"/></clipPath><clipPath id="33b4d78aca"><path d="M 602 89.101562 L 656 89.101562 L 656 175 L 602 175 Z M 602 89.101562 " clip-rule="nonzero"/></clipPath><clipPath id="6829a65c1b"><path d="M 682 89.101562 L 736 89.101562 L 736 175 L 682 175 Z M 682 89.101562 " clip-rule="nonzero"/></clipPath><clipPath id="56a77fea81"><path d="M 37 419 L 347 419 L 347 728.851562 L 37 728.851562 Z M 37 419 " clip-rule="nonzero"/></clipPath><clipPath id="2bf29efe6f"><path d="M 0 419 L 192 419 L 192 728.851562 L 0 728.851562 Z M 0 419 " clip-rule="nonzero"/></clipPath><clipPath id="5177bd8c7b"><path d="M 783 126 L 810 126 L 810 728.851562 L 783 728.851562 Z M 783 126 " clip-rule="nonzero"/></clipPath></defs><path fill="#ffffff" d="M 570.199219 126.609375 L 607.5 126.609375 L 607.5 137.269531 L 570.199219 137.269531 Z M 570.199219 126.609375 " fill-opacity="1" fill-rule="nonzero"/><path fill="#ffffff" d="M 410.328125 126.609375 L 447.632812 126.609375 L 447.632812 137.269531 L 410.328125 137.269531 Z M 410.328125 126.609375 " fill-opacity="1" fill-rule="nonzero"/><path fill="#ffffff" d="M 250.460938 126.609375 L 287.761719 126.609375 L 287.761719 137.269531 L 250.460938 137.269531 Z M 250.460938 126.609375 " fill-opacity="1" fill-rule="nonzero"/><path fill="#ffffff" d="M 175.855469 425.03125 L 165.199219 425.03125 L 165.199219 142.597656 C 165.199219 133.804688 172.390625 126.609375 181.183594 126.609375 L 207.828125 126.609375 L 207.828125 137.269531 L 181.183594 137.269531 C 178.253906 137.269531 175.855469 139.667969 175.855469 142.597656 Z M 175.855469 425.03125 " fill-opacity="1" fill-rule="nonzero"/><g clip-path="url(#4e9ba8a0ac)"><path fill="#ffffff" d="M 756.710938 728.78125 L 181.183594 728.78125 C 179.105469 728.78125 177.132812 728.410156 175.429688 727.664062 L 179.640625 717.859375 C 179.640625 717.859375 180.386719 718.125 181.238281 718.125 L 756.765625 718.125 C 759.695312 718.125 762.09375 715.726562 762.09375 712.796875 L 762.09375 142.597656 C 762.09375 139.667969 759.695312 137.269531 756.765625 137.269531 L 730.117188 137.269531 L 730.117188 126.609375 L 756.765625 126.609375 C 765.554688 126.609375 772.75 133.804688 772.75 142.597656 L 772.75 712.796875 C 772.75 721.589844 765.554688 728.78125 756.765625 728.78125 Z M 756.710938 728.78125 " fill-opacity="1" fill-rule="nonzero"/></g><path fill="#ffffff" d="M 330.394531 126.609375 L 367.699219 126.609375 L 367.699219 137.269531 L 330.394531 137.269531 Z M 330.394531 126.609375 " fill-opacity="1" fill-rule="nonzero"/><path fill="#ffffff" d="M 490.261719 126.609375 L 527.566406 126.609375 L 527.566406 137.269531 L 490.261719 137.269531 Z M 490.261719 126.609375 " fill-opacity="1" fill-rule="nonzero"/><path fill="#ffffff" d="M 650.132812 126.609375 L 687.433594 126.609375 L 687.433594 137.269531 L 650.132812 137.269531 Z M 650.132812 126.609375 " fill-opacity="1" fill-rule="nonzero"/><path fill="#ffffff" d="M 170.527344 206.546875 L 767.367188 206.546875 L 767.367188 217.203125 L 170.527344 217.203125 Z M 170.527344 206.546875 " fill-opacity="1" fill-rule="nonzero"/><g clip-path="url(#6a1fa5ab09)"><path fill="#ffffff" d="M 239.800781 174.570312 L 218.488281 174.570312 C 209.695312 174.570312 202.5 167.378906 202.5 158.585938 L 202.5 105.296875 C 202.5 96.503906 209.695312 89.308594 218.488281 89.308594 L 239.800781 89.308594 C 248.59375 89.308594 255.789062 96.503906 255.789062 105.296875 L 255.789062 158.585938 C 255.789062 167.378906 248.59375 174.570312 239.800781 174.570312 Z M 218.488281 99.964844 C 215.554688 99.964844 213.15625 102.363281 213.15625 105.296875 L 213.15625 158.585938 C 213.15625 161.515625 215.554688 163.914062 218.488281 163.914062 L 239.800781 163.914062 C 242.734375 163.914062 245.132812 161.515625 245.132812 158.585938 L 245.132812 105.296875 C 245.132812 102.363281 242.734375 99.964844 239.800781 99.964844 Z M 218.488281 99.964844 " fill-opacity="1" fill-rule="nonzero"/></g><g clip-path="url(#c4250ea7d9)"><path fill="#ffffff" d="M 319.738281 174.570312 L 298.421875 174.570312 C 289.628906 174.570312 282.433594 167.378906 282.433594 158.585938 L 282.433594 105.296875 C 282.433594 96.503906 289.628906 89.308594 298.421875 89.308594 L 319.738281 89.308594 C 328.53125 89.308594 335.722656 96.503906 335.722656 105.296875 L 335.722656 158.585938 C 335.722656 167.378906 328.53125 174.570312 319.738281 174.570312 Z M 298.421875 99.964844 C 295.488281 99.964844 293.09375 102.363281 293.09375 105.296875 L 293.09375 158.585938 C 293.09375 161.515625 295.488281 163.914062 298.421875 163.914062 L 319.738281 163.914062 C 322.667969 163.914062 325.066406 161.515625 325.066406 158.585938 L 325.066406 105.296875 C 325.066406 102.363281 322.667969 99.964844 319.738281 99.964844 Z M 298.421875 99.964844 " fill-opacity="1" fill-rule="nonzero"/></g><g clip-path="url(#f75f54608d)"><path fill="#ffffff" d="M 399.671875 174.570312 L 378.355469 174.570312 C 369.5625 174.570312 362.367188 167.378906 362.367188 158.585938 L 362.367188 105.296875 C 362.367188 96.503906 369.5625 89.308594 378.355469 89.308594 L 399.671875 89.308594 C 408.464844 89.308594 415.65625 96.503906 415.65625 105.296875 L 415.65625 158.585938 C 415.65625 167.378906 408.464844 174.570312 399.671875 174.570312 Z M 378.355469 99.964844 C 375.425781 99.964844 373.027344 102.363281 373.027344 105.296875 L 373.027344 158.585938 C 373.027344 161.515625 375.425781 163.914062 378.355469 163.914062 L 399.671875 163.914062 C 402.601562 163.914062 405 161.515625 405 158.585938 L 405 105.296875 C 405 102.363281 402.601562 99.964844 399.671875 99.964844 Z M 378.355469 99.964844 " fill-opacity="1" fill-rule="nonzero"/></g><g clip-path="url(#6fcb547c90)"><path fill="#ffffff" d="M 479.605469 174.570312 L 458.289062 174.570312 C 449.496094 174.570312 442.300781 167.378906 442.300781 158.585938 L 442.300781 105.296875 C 442.300781 96.503906 449.496094 89.308594 458.289062 89.308594 L 479.605469 89.308594 C 488.398438 89.308594 495.59375 96.503906 495.59375 105.296875 L 495.59375 158.585938 C 495.59375 167.378906 488.398438 174.570312 479.605469 174.570312 Z M 458.289062 99.964844 C 455.359375 99.964844 452.960938 102.363281 452.960938 105.296875 L 452.960938 158.585938 C 452.960938 161.515625 455.359375 163.914062 458.289062 163.914062 L 479.605469 163.914062 C 482.535156 163.914062 484.933594 161.515625 484.933594 158.585938 L 484.933594 105.296875 C 484.933594 102.363281 482.535156 99.964844 479.605469 99.964844 Z M 458.289062 99.964844 " fill-opacity="1" fill-rule="nonzero"/></g><g clip-path="url(#d9926081bf)"><path fill="#ffffff" d="M 559.539062 174.570312 L 538.222656 174.570312 C 529.429688 174.570312 522.238281 167.378906 522.238281 158.585938 L 522.238281 105.296875 C 522.238281 96.503906 529.429688 89.308594 538.222656 89.308594 L 559.539062 89.308594 C 568.332031 89.308594 575.527344 96.503906 575.527344 105.296875 L 575.527344 158.585938 C 575.527344 167.378906 568.332031 174.570312 559.539062 174.570312 Z M 538.222656 99.964844 C 535.292969 99.964844 532.894531 102.363281 532.894531 105.296875 L 532.894531 158.585938 C 532.894531 161.515625 535.292969 163.914062 538.222656 163.914062 L 559.539062 163.914062 C 562.46875 163.914062 564.867188 161.515625 564.867188 158.585938 L 564.867188 105.296875 C 564.867188 102.363281 562.46875 99.964844 559.539062 99.964844 Z M 538.222656 99.964844 " fill-opacity="1" fill-rule="nonzero"/></g><g clip-path="url(#33b4d78aca)"><path fill="#ffffff" d="M 639.472656 174.570312 L 618.15625 174.570312 C 609.363281 174.570312 602.171875 167.378906 602.171875 158.585938 L 602.171875 105.296875 C 602.171875 96.503906 609.363281 89.308594 618.15625 89.308594 L 639.472656 89.308594 C 648.265625 89.308594 655.460938 96.503906 655.460938 105.296875 L 655.460938 158.585938 C 655.460938 167.378906 648.265625 174.570312 639.472656 174.570312 Z M 618.15625 99.964844 C 615.226562 99.964844 612.828125 102.363281 612.828125 105.296875 L 612.828125 158.585938 C 612.828125 161.515625 615.226562 163.914062 618.15625 163.914062 L 639.472656 163.914062 C 642.40625 163.914062 644.800781 161.515625 644.800781 158.585938 L 644.800781 105.296875 C 644.800781 102.363281 642.40625 99.964844 639.472656 99.964844 Z M 618.15625 99.964844 " fill-opacity="1" fill-rule="nonzero"/></g><g clip-path="url(#6829a65c1b)"><path fill="#ffffff" d="M 719.40625 174.570312 L 698.09375 174.570312 C 689.300781 174.570312 682.105469 167.378906 682.105469 158.585938 L 682.105469 105.296875 C 682.105469 96.503906 689.300781 89.308594 698.09375 89.308594 L 719.40625 89.308594 C 728.199219 89.308594 735.394531 96.503906 735.394531 105.296875 L 735.394531 158.585938 C 735.394531 167.378906 728.199219 174.570312 719.40625 174.570312 Z M 698.09375 99.964844 C 695.160156 99.964844 692.761719 102.363281 692.761719 105.296875 L 692.761719 158.585938 C 692.761719 161.515625 695.160156 163.914062 698.09375 163.914062 L 719.40625 163.914062 C 722.339844 163.914062 724.738281 161.515625 724.738281 158.585938 L 724.738281 105.296875 C 724.738281 102.363281 722.339844 99.964844 719.40625 99.964844 Z M 698.09375 99.964844 " fill-opacity="1" fill-rule="nonzero"/></g><path fill="#ffffff" d="M 618.210938 691.480469 L 290.535156 691.480469 L 290.535156 680.820312 L 613.839844 680.820312 L 724.738281 569.925781 L 724.738281 254.503906 L 213.15625 254.503906 L 213.15625 424.394531 L 202.5 424.394531 L 202.5 243.847656 L 735.394531 243.847656 L 735.394531 574.296875 Z M 618.210938 691.480469 " fill-opacity="1" fill-rule="nonzero"/><path fill="#ffffff" d="M 618.15625 686.152344 L 607.5 686.152344 L 607.5 563.585938 L 730.066406 563.585938 L 730.066406 574.242188 L 618.15625 574.242188 Z M 618.15625 686.152344 " fill-opacity="1" fill-rule="nonzero"/><path fill="#ffffff" d="M 211.613281 638.191406 L 172.070312 638.191406 C 156.511719 638.191406 143.882812 625.558594 143.882812 610 L 143.882812 590.230469 L 154.539062 590.230469 L 154.539062 610 C 154.539062 619.644531 162.425781 627.53125 172.070312 627.53125 L 211.613281 627.53125 C 221.257812 627.53125 229.144531 619.644531 229.144531 610 L 229.144531 595.503906 C 229.144531 586.394531 222.003906 578.71875 212.890625 578.078125 L 170.152344 575.734375 C 155.390625 574.667969 143.882812 562.359375 143.882812 547.652344 L 143.882812 533.15625 C 143.882812 517.597656 156.511719 504.964844 172.070312 504.964844 L 211.613281 504.964844 C 227.171875 504.964844 239.800781 517.597656 239.800781 533.15625 L 239.800781 552.925781 L 229.144531 552.925781 L 229.144531 533.15625 C 229.144531 523.511719 221.257812 515.625 211.613281 515.625 L 172.070312 515.625 C 162.425781 515.625 154.539062 523.511719 154.539062 533.15625 L 154.539062 547.652344 C 154.539062 556.765625 161.679688 564.4375 170.792969 565.078125 L 213.53125 567.421875 C 228.292969 568.488281 239.800781 580.796875 239.800781 595.503906 L 239.800781 610 C 239.800781 625.558594 227.171875 638.191406 211.613281 638.191406 Z M 211.613281 638.191406 " fill-opacity="1" fill-rule="nonzero"/><path fill="#ffffff" d="M 186.511719 632.859375 L 197.171875 632.859375 L 197.171875 654.175781 L 186.511719 654.175781 Z M 186.511719 632.859375 " fill-opacity="1" fill-rule="nonzero"/><path fill="#ffffff" d="M 186.511719 488.980469 L 197.171875 488.980469 L 197.171875 510.296875 L 186.511719 510.296875 Z M 186.511719 488.980469 " fill-opacity="1" fill-rule="nonzero"/><g clip-path="url(#56a77fea81)"><path fill="#ffffff" d="M 191.84375 728.78125 C 106.632812 728.78125 37.300781 659.453125 37.300781 574.242188 C 37.300781 489.03125 106.632812 419.703125 191.84375 419.703125 C 277.050781 419.703125 346.382812 489.03125 346.382812 574.242188 C 346.382812 659.453125 277.050781 728.78125 191.84375 728.78125 Z M 191.84375 430.359375 C 112.492188 430.359375 47.960938 494.894531 47.960938 574.242188 C 47.960938 653.589844 112.492188 718.125 191.84375 718.125 C 271.191406 718.125 335.722656 653.589844 335.722656 574.242188 C 335.722656 494.894531 271.191406 430.359375 191.84375 430.359375 Z M 191.84375 691.480469 C 127.203125 691.480469 74.605469 638.882812 74.605469 574.242188 C 74.605469 509.601562 127.203125 457.003906 191.84375 457.003906 C 256.480469 457.003906 309.078125 509.601562 309.078125 574.242188 C 309.078125 638.882812 256.480469 691.480469 191.84375 691.480469 Z M 191.84375 467.664062 C 133.0625 467.664062 85.261719 515.464844 85.261719 574.242188 C 85.261719 633.019531 133.0625 680.820312 191.84375 680.820312 C 250.621094 680.820312 298.421875 633.019531 298.421875 574.242188 C 298.421875 515.464844 250.621094 467.664062 191.84375 467.664062 Z M 191.84375 467.664062 " fill-opacity="1" fill-rule="nonzero"/></g><g clip-path="url(#2bf29efe6f)"><path fill="#ffffff" d="M 191.84375 728.78125 L 154.539062 728.78125 C 69.328125 728.78125 0 659.453125 0 574.242188 C 0 489.03125 69.328125 419.703125 154.539062 419.703125 L 191.84375 419.703125 L 191.84375 430.359375 L 154.539062 430.359375 C 75.191406 430.359375 10.65625 494.894531 10.65625 574.242188 C 10.65625 653.589844 75.191406 718.125 154.539062 718.125 L 191.84375 718.125 Z M 191.84375 728.78125 " fill-opacity="1" fill-rule="nonzero"/></g><path fill="#ffffff" d="M 458.289062 382.402344 L 362.367188 382.402344 L 362.367188 286.480469 L 458.289062 286.480469 Z M 373.027344 371.742188 L 447.632812 371.742188 L 447.632812 297.136719 L 373.027344 297.136719 Z M 373.027344 371.742188 " fill-opacity="1" fill-rule="nonzero"/><path fill="#ffffff" d="M 575.527344 382.402344 L 479.605469 382.402344 L 479.605469 286.480469 L 575.527344 286.480469 Z M 490.261719 371.742188 L 564.867188 371.742188 L 564.867188 297.136719 L 490.261719 297.136719 Z M 490.261719 371.742188 " fill-opacity="1" fill-rule="nonzero"/><path fill="#ffffff" d="M 692.761719 382.402344 L 596.84375 382.402344 L 596.84375 286.480469 L 692.761719 286.480469 Z M 607.5 371.742188 L 682.105469 371.742188 L 682.105469 297.136719 L 607.5 297.136719 Z M 607.5 371.742188 " fill-opacity="1" fill-rule="nonzero"/><path fill="#ffffff" d="M 458.289062 499.636719 L 362.367188 499.636719 L 362.367188 403.714844 L 458.289062 403.714844 Z M 373.027344 488.980469 L 447.632812 488.980469 L 447.632812 414.375 L 373.027344 414.375 Z M 373.027344 488.980469 " fill-opacity="1" fill-rule="nonzero"/><path fill="#ffffff" d="M 575.527344 499.636719 L 479.605469 499.636719 L 479.605469 403.714844 L 575.527344 403.714844 Z M 490.261719 488.980469 L 564.867188 488.980469 L 564.867188 414.375 L 490.261719 414.375 Z M 490.261719 488.980469 " fill-opacity="1" fill-rule="nonzero"/><path fill="#ffffff" d="M 692.761719 499.636719 L 596.84375 499.636719 L 596.84375 403.714844 L 692.761719 403.714844 Z M 607.5 488.980469 L 682.105469 488.980469 L 682.105469 414.375 L 607.5 414.375 Z M 607.5 488.980469 " fill-opacity="1" fill-rule="nonzero"/><path fill="#ffffff" d="M 692.761719 547.597656 L 682.105469 547.597656 L 682.105469 531.609375 L 607.5 531.609375 L 607.5 547.597656 L 596.84375 547.597656 L 596.84375 520.953125 L 692.761719 520.953125 Z M 692.761719 547.597656 " fill-opacity="1" fill-rule="nonzero"/><path fill="#ffffff" d="M 458.289062 616.875 L 362.367188 616.875 L 362.367188 520.953125 L 458.289062 520.953125 Z M 373.027344 606.214844 L 447.632812 606.214844 L 447.632812 531.609375 L 373.027344 531.609375 Z M 373.027344 606.214844 " fill-opacity="1" fill-rule="nonzero"/><path fill="#ffffff" d="M 341.050781 382.402344 L 245.132812 382.402344 L 245.132812 286.480469 L 341.050781 286.480469 Z M 255.789062 371.742188 L 330.394531 371.742188 L 330.394531 297.136719 L 255.789062 297.136719 Z M 255.789062 371.742188 " fill-opacity="1" fill-rule="nonzero"/><path fill="#ffffff" d="M 341.050781 483.652344 L 330.394531 483.652344 L 330.394531 414.375 L 250.460938 414.375 L 250.460938 403.714844 L 341.050781 403.714844 Z M 341.050781 483.652344 " fill-opacity="1" fill-rule="nonzero"/><path fill="#ffffff" d="M 575.527344 616.875 L 479.605469 616.875 L 479.605469 520.953125 L 575.527344 520.953125 Z M 490.261719 606.214844 L 564.867188 606.214844 L 564.867188 531.609375 L 490.261719 531.609375 Z M 490.261719 606.214844 " fill-opacity="1" fill-rule="nonzero"/><path fill="#ffffff" d="M 575.527344 669.789062 L 564.867188 669.789062 L 564.867188 648.847656 L 373.027344 648.847656 L 373.027344 669.789062 L 362.367188 669.789062 L 362.367188 638.191406 L 575.527344 638.191406 Z M 575.527344 669.789062 " fill-opacity="1" fill-rule="nonzero"/><path fill="#ffffff" d="M 133.222656 158.585938 C 121.445312 158.585938 111.90625 149.046875 111.90625 137.269531 C 111.90625 125.492188 121.445312 115.953125 133.222656 115.953125 C 145 115.953125 154.539062 125.492188 154.539062 137.269531 C 154.539062 149.046875 145 158.585938 133.222656 158.585938 Z M 133.222656 126.609375 C 127.363281 126.609375 122.566406 131.40625 122.566406 137.269531 C 122.566406 143.128906 127.363281 147.925781 133.222656 147.925781 C 139.085938 147.925781 143.882812 143.128906 143.882812 137.269531 C 143.882812 131.40625 139.085938 126.609375 133.222656 126.609375 Z M 133.222656 126.609375 " fill-opacity="1" fill-rule="nonzero"/><path fill="#ffffff" d="M 69.277344 393.058594 L 58.617188 393.058594 L 58.617188 131.941406 L 117.238281 131.941406 L 117.238281 142.597656 L 69.277344 142.597656 Z M 69.277344 393.058594 " fill-opacity="1" fill-rule="nonzero"/><path fill="#ffffff" d="M 63.949219 430.359375 C 52.171875 430.359375 42.632812 420.824219 42.632812 409.046875 C 42.632812 397.269531 52.171875 387.730469 63.949219 387.730469 C 75.722656 387.730469 85.261719 397.269531 85.261719 409.046875 C 85.261719 420.824219 75.722656 430.359375 63.949219 430.359375 Z M 63.949219 398.386719 C 58.085938 398.386719 53.289062 403.183594 53.289062 409.046875 C 53.289062 414.90625 58.085938 419.703125 63.949219 419.703125 C 69.808594 419.703125 74.605469 414.90625 74.605469 409.046875 C 74.605469 403.183594 69.808594 398.386719 63.949219 398.386719 Z M 63.949219 398.386719 " fill-opacity="1" fill-rule="nonzero"/><path fill="#ffffff" d="M 149.210938 227.859375 L 85.261719 227.859375 L 85.261719 169.242188 L 149.210938 169.242188 Z M 95.921875 217.203125 L 138.550781 217.203125 L 138.550781 179.902344 L 95.921875 179.902344 Z M 95.921875 217.203125 " fill-opacity="1" fill-rule="nonzero"/><path fill="#ffffff" d="M 149.210938 302.464844 L 85.261719 302.464844 L 85.261719 243.847656 L 149.210938 243.847656 Z M 95.921875 291.808594 L 138.550781 291.808594 L 138.550781 254.503906 L 95.921875 254.503906 Z M 95.921875 291.808594 " fill-opacity="1" fill-rule="nonzero"/><path fill="#ffffff" d="M 149.210938 377.070312 L 85.261719 377.070312 L 85.261719 318.453125 L 149.210938 318.453125 Z M 95.921875 366.414062 L 138.550781 366.414062 L 138.550781 329.109375 L 95.921875 329.109375 Z M 95.921875 366.414062 " fill-opacity="1" fill-rule="nonzero"/><g clip-path="url(#5177bd8c7b)"><path fill="#ffffff" d="M 794.011719 728.78125 L 783.355469 728.78125 L 783.355469 718.125 L 794.011719 718.125 C 796.945312 718.125 799.34375 715.726562 799.34375 712.796875 L 799.34375 142.597656 C 799.34375 139.667969 796.945312 137.269531 794.011719 137.269531 L 783.355469 137.269531 L 783.355469 126.609375 L 794.011719 126.609375 C 802.804688 126.609375 810 133.804688 810 142.597656 L 810 712.796875 C 810 721.589844 802.804688 728.78125 794.011719 728.78125 Z M 794.011719 728.78125 " fill-opacity="1" fill-rule="nonzero"/></g></svg>