<svg xmlns="http://www.w3.org/2000/svg" xmlns:xlink="http://www.w3.org/1999/xlink" width="1080" zoomAndPan="magnify" viewBox="0 0 810 809.999993" height="1080" preserveAspectRatio="xMidYMid meet" version="1.0"><path fill="#ffffff" d="M 406.585938 809.496094 C 298.507812 809.898438 196.75 768.179688 120.054688 692.035156 C 43.355469 615.890625 0.90625 514.433594 0.503906 406.359375 C 0.101562 298.285156 41.820312 196.523438 117.964844 119.828125 C 194.109375 43.128906 295.566406 0.679688 403.640625 0.277344 C 511.714844 -0.125 613.476562 41.59375 690.171875 117.738281 C 766.871094 193.882812 809.320312 295.339844 809.722656 403.414062 C 810.125 511.492188 768.40625 613.25 692.261719 689.945312 C 616.117188 766.644531 514.660156 809.09375 406.585938 809.496094 Z M 403.816406 44.085938 C 307.441406 44.4375 216.980469 82.285156 149.089844 150.675781 C 81.203125 219.070312 43.984375 309.808594 44.335938 406.183594 C 44.691406 502.558594 82.535156 593.019531 150.929688 660.910156 C 219.320312 728.796875 310.058594 766.015625 406.433594 765.664062 C 502.808594 765.308594 593.269531 727.464844 661.160156 659.070312 C 729.050781 590.679688 766.265625 499.941406 765.914062 403.566406 C 765.5625 307.191406 727.714844 216.730469 659.324219 148.839844 C 590.929688 80.949219 500.191406 43.734375 403.816406 44.085938 Z M 403.816406 44.085938 " fill-opacity="1" fill-rule="nonzero"/><path fill="#ffffff" d="M 304.800781 228.101562 C 328.730469 223.121094 363.003906 220.277344 395.640625 220.152344 C 446.242188 219.976562 478.929688 229.109375 501.851562 249.695312 C 520.421875 265.949219 530.839844 290.9375 530.941406 319.246094 C 531.117188 367.683594 500.769531 399.890625 462.171875 413.101562 L 462.171875 414.738281 C 490.503906 424.425781 507.464844 450.496094 516.320312 488.542969 C 528.476562 539.648438 537.308594 574.976562 544.980469 589.117188 L 496.015625 589.292969 C 490 578.976562 481.722656 547.449219 471.203125 501.777344 C 460.132812 451.199219 440.480469 432.226562 397.476562 430.765625 L 352.863281 430.917969 L 353.441406 589.824219 L 306.109375 590 Z M 352.761719 394.984375 L 401.199219 394.808594 C 451.804688 394.632812 483.8125 366.753906 483.660156 324.855469 C 483.484375 277.523438 449.136719 256.964844 399.0625 256.589844 C 376.214844 256.664062 359.882812 258.902344 352.285156 261.117188 Z M 352.761719 394.984375 " fill-opacity="1" fill-rule="nonzero"/></svg>
