<svg xmlns="http://www.w3.org/2000/svg" xmlns:xlink="http://www.w3.org/1999/xlink" width="1080" zoomAndPan="magnify" viewBox="0 0 810 809.999993" height="1080" preserveAspectRatio="xMidYMid meet" version="1.0"><defs><clipPath id="d9f6ad58d8"><path d="M 0 16.199219 L 803 16.199219 L 803 793.949219 L 0 793.949219 Z M 0 16.199219 " clip-rule="nonzero"/></clipPath></defs><g clip-path="url(#d9f6ad58d8)"><path fill="#ffffff" d="M 770.910156 583.992188 C 746.152344 556.847656 707.652344 528.578125 661.269531 505.570312 L 660.667969 505.269531 C 656.15625 503.042969 651.660156 500.933594 647.167969 498.867188 L 647.167969 99.71875 C 647.167969 74.417969 623.695312 52.632812 585.738281 37.867188 C 551.390625 24.484375 504.246094 16.199219 452.445312 16.199219 C 400.648438 16.199219 353.5 24.484375 319.136719 37.847656 C 281.199219 52.613281 257.707031 74.398438 257.707031 99.699219 L 257.707031 269.542969 C 238.046875 266.8125 216.941406 265.308594 194.972656 265.308594 C 143.171875 265.308594 96.027344 273.59375 61.660156 286.953125 C 23.722656 301.742188 0.253906 323.527344 0.253906 348.824219 L 0.253906 710.339844 C 0.253906 735.636719 23.722656 757.425781 61.679688 772.191406 C 96.046875 785.574219 143.191406 793.835938 194.992188 793.835938 C 246.792969 793.835938 293.9375 785.550781 328.304688 772.191406 C 360.785156 759.550781 382.652344 741.757812 388.269531 721.035156 C 396.234375 722.15625 404.398438 723.121094 412.804688 723.820312 C 425.644531 724.90625 438.90625 725.46875 452.445312 725.46875 C 464.582031 725.46875 476.582031 725.003906 488.316406 724.101562 C 498.46875 723.339844 508.519531 722.175781 518.390625 720.730469 C 527.398438 725.96875 536.765625 731.0625 546.515625 735.898438 L 547.117188 736.199219 C 593.441406 759.109375 639.28125 772.570312 675.914062 775.820312 C 716.421875 779.414062 747.09375 770.304688 758.308594 747.636719 L 798.414062 666.644531 C 809.667969 643.957031 798.3125 614.042969 770.910156 583.992188 Z M 649.933594 528 C 693.53125 549.605469 729.460938 575.886719 752.3125 600.921875 C 772.574219 623.132812 782.042969 643.074219 775.902344 655.472656 L 775.882812 655.492188 C 769.722656 667.890625 748.117188 672.445312 718.207031 669.773438 C 684.480469 666.785156 641.769531 654.105469 598.035156 632.441406 C 554.421875 610.832031 518.46875 584.53125 495.621094 559.476562 C 475.355469 537.265625 465.90625 517.324219 472.046875 504.925781 C 478.1875 492.527344 499.792969 487.953125 529.722656 490.621094 C 558.132812 493.152344 592.941406 502.558594 629.332031 518.410156 C 629.53125 518.507812 629.734375 518.589844 629.933594 518.667969 C 636.535156 521.558594 643.175781 524.628906 649.855469 527.9375 Z M 409.351562 574.824219 C 404.519531 584.574219 403.875 595.6875 406.886719 607.542969 C 405.421875 607.382812 403.957031 607.261719 402.511719 607.101562 C 398.199219 606.601562 393.945312 606.039062 389.710938 605.417969 L 389.710938 540.476562 C 395.871094 541.320312 402.25 542.0625 408.890625 542.683594 C 414.066406 543.164062 419.34375 543.546875 424.699219 543.867188 Z M 621.96875 461.191406 C 621.96875 464.964844 620.566406 468.777344 617.917969 472.566406 C 615.449219 476.117188 611.976562 479.589844 607.644531 482.960938 C 580.28125 473.46875 554.339844 467.613281 531.871094 465.625 C 491.367188 462.035156 460.691406 471.144531 449.476562 493.8125 L 436.878906 519.25 C 428.109375 518.949219 419.523438 518.410156 411.160156 517.644531 C 403.976562 516.984375 396.816406 516.082031 389.710938 515.039062 L 389.710938 450.097656 C 397.214844 451.140625 404.898438 452.023438 412.804688 452.6875 C 425.644531 453.769531 438.90625 454.332031 452.445312 454.332031 C 504.246094 454.332031 551.390625 446.046875 585.757812 432.683594 C 600.042969 427.128906 612.257812 420.566406 621.96875 413.222656 Z M 621.96875 370.832031 C 621.96875 384.695312 604.675781 398.359375 576.6875 409.25 C 545.152344 421.53125 501.238281 429.132812 452.445312 429.132812 C 439.484375 429.132812 426.925781 428.589844 414.871094 427.589844 C 406.222656 426.867188 397.835938 425.882812 389.710938 424.679688 L 389.710938 359.757812 C 397.175781 360.78125 404.820312 361.664062 412.664062 362.328125 C 425.523438 363.410156 438.84375 363.992188 452.425781 363.992188 C 504.226562 363.992188 551.371094 355.707031 585.738281 342.34375 C 600.019531 336.789062 612.238281 330.226562 621.949219 322.886719 L 621.949219 370.832031 Z M 621.96875 190.074219 C 621.96875 203.9375 604.675781 217.601562 576.6875 228.496094 C 545.152344 240.773438 501.238281 248.375 452.445312 248.375 C 403.65625 248.375 359.742188 240.773438 328.203125 228.496094 C 300.238281 217.601562 282.921875 203.9375 282.921875 190.074219 L 282.921875 142.109375 C 292.632812 149.472656 304.851562 156.011719 319.136719 161.566406 C 353.5 174.949219 400.648438 183.214844 452.445312 183.214844 C 504.246094 183.214844 551.390625 174.929688 585.757812 161.566406 C 600.042969 156.011719 612.257812 149.449219 621.96875 142.109375 Z M 282.441406 273.792969 C 281.78125 261.035156 281.878906 246.429688 282.179688 231.886719 C 292.011719 239.488281 304.488281 246.230469 319.136719 251.945312 C 353.5 265.328125 400.648438 273.59375 452.445312 273.59375 C 504.246094 273.59375 551.390625 265.308594 585.757812 251.945312 C 600.042969 246.390625 612.257812 239.828125 621.96875 232.488281 L 621.96875 280.476562 C 621.96875 294.335938 604.675781 308 576.6875 318.894531 C 545.152344 331.171875 501.238281 338.773438 452.445312 338.773438 C 439.445312 338.773438 426.828125 338.234375 414.75 337.210938 C 405.140625 336.40625 395.832031 335.285156 386.882812 333.878906 C 379.582031 314.980469 358.535156 298.75 328.304688 286.976562 C 314.820312 281.71875 299.355469 277.265625 282.441406 273.792969 Z M 364.496094 439.203125 C 364.496094 453.066406 347.203125 466.730469 319.214844 477.621094 C 287.679688 489.902344 243.761719 497.503906 194.972656 497.503906 C 146.183594 497.503906 102.265625 489.902344 70.730469 477.621094 C 42.761719 466.730469 25.449219 453.066406 25.449219 439.203125 L 25.449219 391.214844 C 35.160156 398.578125 47.378906 405.121094 61.660156 410.675781 C 96.027344 424.058594 143.171875 432.324219 194.972656 432.324219 C 246.773438 432.324219 293.917969 424.039062 328.285156 410.675781 C 342.566406 405.121094 354.785156 398.558594 364.496094 391.214844 Z M 61.679688 501.054688 C 96.046875 514.4375 143.191406 522.703125 194.992188 522.703125 C 246.792969 522.703125 293.9375 514.417969 328.304688 501.054688 C 342.585938 495.496094 354.804688 488.9375 364.515625 481.59375 L 364.515625 529.582031 C 364.515625 543.445312 347.222656 557.109375 319.234375 568 C 287.699219 580.277344 243.78125 587.882812 194.992188 587.882812 C 146.203125 587.882812 102.285156 580.277344 70.75 568 C 42.78125 557.109375 25.46875 543.445312 25.46875 529.582031 L 25.46875 481.59375 C 35.160156 488.9375 47.398438 495.496094 61.679688 501.054688 Z M 25.46875 619.941406 L 25.46875 571.953125 C 35.179688 579.316406 47.398438 585.855469 61.679688 591.414062 C 96.046875 604.792969 143.191406 613.058594 194.992188 613.058594 C 246.792969 613.058594 293.9375 604.773438 328.304688 591.414062 C 342.585938 585.855469 354.804688 579.296875 364.515625 571.953125 L 364.515625 619.941406 C 364.515625 633.804688 347.222656 647.464844 319.234375 658.359375 C 287.699219 670.636719 243.78125 678.242188 194.992188 678.242188 C 146.203125 678.242188 102.285156 670.636719 70.75 658.359375 C 42.761719 647.464844 25.46875 633.804688 25.46875 619.941406 Z M 328.183594 61.300781 C 359.71875 49.019531 403.636719 41.417969 452.425781 41.417969 C 501.214844 41.417969 545.132812 49.019531 576.667969 61.300781 C 604.636719 72.191406 621.949219 85.855469 621.949219 99.71875 C 621.949219 113.582031 604.65625 127.242188 576.667969 138.136719 C 545.132812 150.414062 501.214844 158.015625 452.425781 158.015625 C 403.636719 158.015625 359.71875 150.414062 328.183594 138.136719 C 300.21875 127.242188 282.902344 113.582031 282.902344 99.71875 C 282.921875 85.855469 300.21875 72.171875 328.183594 61.300781 Z M 70.730469 310.40625 C 102.265625 298.128906 146.183594 290.527344 194.972656 290.527344 C 220.992188 290.527344 245.589844 292.710938 267.695312 296.585938 C 267.816406 296.605469 267.917969 296.625 268.039062 296.644531 C 287.257812 300.035156 304.589844 304.710938 319.234375 310.40625 C 347.203125 321.300781 364.515625 334.960938 364.515625 348.824219 C 364.515625 362.6875 347.222656 376.351562 319.234375 387.242188 C 287.699219 399.523438 243.78125 407.125 194.992188 407.125 C 146.203125 407.125 102.285156 399.523438 70.75 387.242188 C 42.78125 376.351562 25.46875 362.6875 25.46875 348.824219 C 25.46875 334.960938 42.761719 321.300781 70.730469 310.40625 Z M 319.234375 748.738281 C 287.699219 761.015625 243.78125 768.621094 194.992188 768.621094 C 146.203125 768.621094 102.285156 761.015625 70.75 748.738281 C 42.78125 737.84375 25.46875 724.183594 25.46875 710.320312 L 25.46875 662.332031 C 35.179688 669.695312 47.398438 676.234375 61.679688 681.792969 C 96.046875 695.171875 143.191406 703.4375 194.992188 703.4375 C 246.792969 703.4375 293.9375 695.152344 328.304688 681.792969 C 342.585938 676.234375 354.804688 669.675781 364.515625 662.332031 L 364.515625 710.320312 C 364.496094 724.164062 347.203125 737.84375 319.234375 748.738281 Z M 452.445312 700.230469 C 439.484375 700.230469 426.925781 699.6875 414.871094 698.683594 C 406.222656 697.960938 397.835938 696.980469 389.710938 695.773438 L 389.710938 630.855469 C 392.984375 631.296875 396.273438 631.738281 399.664062 632.121094 C 405.800781 632.820312 412.140625 633.402344 418.703125 633.863281 C 423.578125 641.628906 429.675781 649.53125 436.878906 657.457031 C 449.539062 671.320312 465.789062 685.484375 484.824219 699.085938 C 474.433594 699.828125 463.621094 700.230469 452.445312 700.230469 Z M 735.78125 736.480469 C 729.640625 748.878906 708.035156 753.453125 678.101562 750.785156 C 644.378906 747.796875 601.667969 735.117188 557.972656 713.488281 L 557.871094 713.449219 C 514.277344 691.84375 478.347656 665.5625 455.496094 640.523438 C 448.03125 632.359375 442.054688 624.496094 437.78125 617.191406 C 437.359375 616.089844 436.777344 615.066406 436.074219 614.144531 C 430.078125 602.890625 428.351562 593.140625 431.921875 585.9375 L 453.207031 542.945312 C 458.625 553.835938 466.671875 565.132812 476.980469 576.449219 C 501.796875 603.632812 540.398438 631.980469 586.921875 655.03125 C 633.363281 678.019531 679.304688 691.542969 716.019531 694.8125 C 731.285156 696.175781 745.148438 695.714844 757.105469 693.429688 Z M 735.78125 736.480469 " fill-opacity="1" fill-rule="nonzero"/></g></svg>