<svg xmlns="http://www.w3.org/2000/svg" xmlns:xlink="http://www.w3.org/1999/xlink" width="1080" zoomAndPan="magnify" viewBox="0 0 810 809.999993" height="1080" preserveAspectRatio="xMidYMid meet" version="1.0"><defs><clipPath id="9c7479292f"><path d="M 31 74.925781 L 780 74.925781 L 780 734.925781 L 31 734.925781 Z M 31 74.925781 " clip-rule="nonzero"/></clipPath></defs><path fill="#ffffff" d="M 480.355469 610.511719 C 480.355469 610.511719 517.722656 610.511719 517.722656 610.511719 C 534.082031 610.238281 534.101562 585.871094 517.722656 585.601562 L 480.355469 585.601562 C 463.996094 585.871094 463.976562 610.238281 480.355469 610.511719 Z M 480.355469 610.511719 " fill-opacity="1" fill-rule="nonzero"/><g clip-path="url(#9c7479292f)"><path fill="#ffffff" d="M 692.039062 348.03125 C 691.980469 347.320312 691.664062 346.683594 691.492188 346 C 808.703125 262.972656 750.347656 75.382812 604.910156 74.925781 C 523.734375 74.925781 457.601562 140.007812 455.628906 220.722656 C 424.640625 209.128906 386.605469 209.128906 355.617188 220.722656 C 353.644531 140.007812 287.511719 74.925781 206.335938 74.925781 C 60.488281 75.964844 2.582031 262.328125 119.753906 345.996094 C 119.578125 346.683594 119.265625 347.320312 119.210938 348.03125 C 65.179688 379.5 31.566406 439.839844 31.957031 502.523438 L 31.957031 552.34375 C 31.957031 557.320312 34.925781 561.832031 39.5 563.789062 C 101.019531 589.964844 169.457031 601.898438 236.332031 596.839844 C 228.914062 621.554688 231.8125 663.382812 231.246094 689.355469 C 231.246094 694.339844 234.226562 698.855469 238.8125 700.8125 C 291.3125 723.136719 348.652344 734.824219 405.621094 735.066406 C 462.589844 734.84375 520.199219 723.179688 572.457031 700.800781 C 577.03125 698.84375 580 694.328125 580 689.355469 C 579.234375 663.070312 582.367188 622.101562 574.820312 596.835938 C 641.726562 601.914062 710.199219 589.972656 771.746094 563.789062 C 776.320312 561.832031 779.289062 557.320312 779.289062 552.34375 L 779.289062 502.523438 C 779.703125 439.921875 746.042969 379.4375 692.039062 348.03125 Z M 604.910156 99.835938 C 673.59375 99.835938 729.464844 155.714844 729.464844 224.390625 C 731.40625 313.109375 632.570312 376.449219 552.96875 337.339844 C 545.664062 292.507812 518.4375 254.375 480.605469 232.3125 C 475.820312 161.054688 533.449219 99.558594 604.910156 99.835938 Z M 660.160156 363.148438 C 650.859375 382.554688 631.925781 414.53125 604.898438 423.191406 C 582.308594 416.007812 565.339844 392.601562 554.515625 372.71875 C 554.707031 370.199219 554.835938 367.667969 554.898438 365.117188 C 588.148438 377.441406 627.808594 376.496094 660.160156 363.148438 Z M 405.621094 236.847656 C 474.304688 236.847656 530.175781 292.726562 530.175781 361.402344 C 523.332031 526.640625 287.886719 526.589844 281.066406 361.398438 C 281.066406 292.726562 336.941406 236.847656 405.621094 236.847656 Z M 460.90625 500.144531 C 452.171875 519.761719 429.699219 553.527344 405.636719 560.203125 C 378.65625 551.546875 359.742188 519.679688 350.382812 500.160156 C 384.21875 514.304688 427.074219 514.300781 460.90625 500.144531 Z M 81.78125 224.390625 C 81.78125 155.714844 137.652344 99.835938 206.335938 99.835938 C 277.796875 99.558594 335.425781 161.054688 330.640625 232.3125 C 292.808594 254.375 265.582031 292.507812 258.277344 337.339844 C 178.667969 376.449219 79.84375 313.109375 81.78125 224.390625 Z M 256.730469 372.710938 C 245.90625 392.589844 228.941406 416 206.347656 423.191406 C 179.367188 414.546875 160.453125 382.671875 151.09375 363.148438 C 183.445312 376.496094 223.097656 377.441406 256.34375 365.117188 C 256.410156 367.664062 256.539062 370.195312 256.730469 372.710938 Z M 146.328125 568.484375 C 115.652344 563.785156 85.453125 555.597656 56.871094 544.035156 L 56.871094 502.523438 C 56.621094 450.109375 83.507812 399.847656 127.691406 371.992188 C 135.0625 387.785156 147.925781 410.511719 166.523438 427.453125 Z M 206.335938 573.144531 C 194.589844 573.144531 182.8125 572.546875 171.058594 571.488281 L 189.445312 443.085938 C 201.335938 449.75 211.328125 449.757812 223.226562 443.121094 L 241.582031 571.394531 C 229.78125 572.449219 217.972656 573.144531 206.335938 573.144531 Z M 263.675781 407.953125 C 273.726562 438.507812 293.371094 464.679688 319.042969 483.007812 C 318.871094 483.675781 318.550781 484.292969 318.492188 484.988281 C 295.589844 498.476562 276.457031 516.710938 261.988281 538.171875 L 246.140625 427.4375 C 252.671875 421.492188 258.507812 414.871094 263.675781 407.953125 Z M 345.621094 705.460938 C 315.042969 700.753906 284.847656 692.578125 256.15625 681.035156 L 256.15625 639.53125 C 255.996094 587.035156 282.460938 537.179688 326.980469 509.011719 C 334.355469 524.804688 347.214844 547.523438 365.8125 564.460938 L 345.617188 705.460938 Z M 405.621094 710.15625 C 393.890625 710.15625 382.113281 709.558594 370.347656 708.488281 L 388.734375 580.09375 C 400.460938 586.722656 410.683594 586.785156 422.511719 580.09375 L 440.902344 708.5 C 429.148438 709.558594 417.367188 710.15625 405.621094 710.15625 Z M 555.089844 681.046875 C 526.503906 692.605469 496.304688 700.792969 465.632812 705.492188 L 445.417969 564.351562 C 462.925781 549.234375 477.359375 524.296875 484.289062 509.007812 C 528.242188 536.453125 555.46875 587.800781 555.089844 639.53125 Z M 549.191406 538.640625 C 535 516.851562 515.046875 498.03125 492.75 485.042969 C 492.695312 484.328125 492.378906 483.695312 492.203125 483.007812 C 517.871094 464.679688 537.519531 438.507812 547.570312 407.953125 C 552.738281 414.871094 558.574219 421.492188 565.105469 427.4375 Z M 604.910156 573.144531 C 593.273438 573.144531 581.464844 572.449219 569.664062 571.394531 L 588.019531 443.121094 C 599.921875 449.765625 609.917969 449.746094 621.796875 443.085938 L 640.1875 571.488281 C 628.433594 572.546875 616.65625 573.144531 604.910156 573.144531 Z M 754.375 544.035156 C 725.792969 555.597656 695.59375 563.785156 664.917969 568.484375 L 644.71875 427.453125 C 663.371094 410.472656 676.234375 387.699219 683.566406 371.984375 C 727.738281 399.835938 754.632812 450.164062 754.375 502.523438 L 754.375 544.039062 Z M 754.375 544.035156 " fill-opacity="1" fill-rule="nonzero"/></g><path fill="#ffffff" d="M 667.1875 461.046875 C 667.1875 467.929688 672.765625 473.5 679.644531 473.5 L 717.011719 473.5 C 723.886719 473.5 729.464844 467.929688 729.464844 461.046875 C 729.464844 454.160156 723.886719 448.589844 717.011719 448.589844 L 679.644531 448.589844 C 672.765625 448.589844 667.1875 454.160156 667.1875 461.046875 Z M 667.1875 461.046875 " fill-opacity="1" fill-rule="nonzero"/><path fill="#ffffff" d="M 81.78125 461.046875 C 81.78125 467.929688 87.355469 473.5 94.234375 473.5 L 131.601562 473.5 C 138.480469 473.5 144.058594 467.929688 144.058594 461.046875 C 144.058594 454.160156 138.480469 448.589844 131.601562 448.589844 L 94.234375 448.589844 C 87.355469 448.589844 81.78125 454.160156 81.78125 461.046875 Z M 81.78125 461.046875 " fill-opacity="1" fill-rule="nonzero"/></svg>