<svg xmlns="http://www.w3.org/2000/svg" xmlns:xlink="http://www.w3.org/1999/xlink" width="1080" zoomAndPan="magnify" viewBox="0 0 810 809.999993" height="1080" preserveAspectRatio="xMidYMid meet" version="1.0"><defs><clipPath id="1e61147ae3"><path d="M 72.394531 0 L 737 0 L 737 810 L 72.394531 810 Z M 72.394531 0 " clip-rule="nonzero"/></clipPath></defs><path fill="#ffffff" d="M 194.300781 384.972656 L 194.300781 255.886719 L 221.433594 255.886719 L 221.433594 341.050781 L 248.851562 327.332031 L 276.257812 341.050781 L 276.257812 255.886719 L 303.390625 255.886719 L 303.390625 384.972656 L 248.851562 357.671875 L 194.300781 384.972656 " fill-opacity="1" fill-rule="nonzero"/><path fill="#a6a6a6" d="M 194.300781 384.972656 L 200.339844 384.972656 L 200.339844 261.914062 L 215.394531 261.914062 L 215.394531 341.050781 C 215.394531 343.152344 216.480469 345.085938 218.261719 346.183594 C 220.042969 347.292969 222.261719 347.386719 224.136719 346.453125 L 248.851562 334.078125 L 273.554688 346.453125 C 275.429688 347.386719 277.648438 347.292969 279.429688 346.183594 C 281.210938 345.085938 282.296875 343.152344 282.296875 341.050781 L 282.296875 261.925781 L 297.351562 261.925781 L 297.351562 375.191406 L 251.554688 352.269531 C 249.855469 351.421875 247.835938 351.421875 246.152344 352.269531 L 191.597656 379.570312 L 194.300781 384.972656 L 200.339844 384.972656 L 194.300781 384.972656 L 197.003906 390.375 L 248.851562 364.421875 L 300.691406 390.375 C 302.566406 391.308594 304.785156 391.214844 306.566406 390.117188 C 308.359375 389.007812 309.433594 387.074219 309.433594 384.972656 L 309.433594 255.886719 C 309.433594 254.292969 308.792969 252.734375 307.660156 251.601562 C 306.542969 250.480469 304.984375 249.832031 303.390625 249.832031 L 276.257812 249.832031 C 274.664062 249.832031 273.109375 250.480469 271.988281 251.601562 C 270.867188 252.734375 270.21875 254.292969 270.21875 255.886719 L 270.21875 331.269531 L 251.554688 321.925781 C 249.855469 321.078125 247.847656 321.078125 246.152344 321.925781 L 227.476562 331.269531 L 227.476562 255.886719 C 227.476562 254.292969 226.828125 252.734375 225.707031 251.601562 C 224.585938 250.480469 223.027344 249.84375 221.433594 249.84375 L 194.300781 249.84375 C 192.707031 249.84375 191.152344 250.480469 190.03125 251.601562 C 188.910156 252.734375 188.261719 254.292969 188.261719 255.886719 L 188.261719 384.972656 C 188.261719 387.074219 189.335938 389.007812 191.128906 390.117188 C 192.910156 391.214844 195.125 391.308594 197.003906 390.375 L 194.300781 384.972656 " fill-opacity="1" fill-rule="nonzero"/><path fill="#ffffff" d="M 577.410156 430.003906 L 577.410156 454.777344 L 640.714844 454.777344 L 640.714844 430.003906 L 577.410156 430.003906 " fill-opacity="1" fill-rule="nonzero"/><path fill="#a6a6a6" d="M 577.410156 430.003906 L 571.371094 430.003906 L 571.371094 454.777344 C 571.371094 456.371094 572.019531 457.929688 573.140625 459.046875 C 574.269531 460.167969 575.828125 460.816406 577.410156 460.816406 L 640.714844 460.816406 C 642.332031 460.816406 643.851562 460.191406 644.984375 459.046875 C 646.128906 457.902344 646.753906 456.394531 646.753906 454.777344 L 646.753906 430.003906 C 646.753906 428.386719 646.128906 426.878906 644.984375 425.734375 C 643.851562 424.589844 642.332031 423.964844 640.714844 423.964844 L 577.410156 423.964844 C 575.828125 423.964844 574.269531 424.613281 573.140625 425.734375 C 572.019531 426.851562 571.371094 428.410156 571.371094 430.003906 L 577.410156 430.003906 L 577.410156 436.042969 L 634.675781 436.042969 L 634.675781 448.738281 L 583.449219 448.738281 L 583.449219 430.003906 L 577.410156 430.003906 L 577.410156 436.042969 L 577.410156 430.003906 " fill-opacity="1" fill-rule="nonzero"/><path fill="#ffffff" d="M 560.894531 430.003906 L 318.691406 430.003906 L 318.691406 454.777344 L 560.894531 454.777344 L 560.894531 430.003906 " fill-opacity="1" fill-rule="nonzero"/><path fill="#a6a6a6" d="M 560.894531 430.003906 L 560.894531 423.964844 L 318.691406 423.964844 C 317.101562 423.964844 315.542969 424.613281 314.421875 425.734375 C 313.289062 426.851562 312.652344 428.410156 312.652344 430.003906 L 312.652344 454.777344 C 312.652344 456.371094 313.289062 457.929688 314.421875 459.046875 C 315.542969 460.167969 317.101562 460.816406 318.691406 460.816406 L 560.894531 460.816406 C 562.507812 460.816406 564.03125 460.191406 565.175781 459.046875 C 566.308594 457.902344 566.933594 456.394531 566.933594 454.777344 L 566.933594 430.003906 C 566.933594 428.410156 566.296875 426.851562 565.175781 425.734375 C 564.042969 424.613281 562.484375 423.964844 560.894531 423.964844 L 560.894531 430.003906 L 554.851562 430.003906 L 554.851562 448.738281 L 324.734375 448.738281 L 324.734375 436.042969 L 560.894531 436.042969 L 560.894531 430.003906 L 554.851562 430.003906 L 560.894531 430.003906 " fill-opacity="1" fill-rule="nonzero"/><path fill="#ffffff" d="M 302.175781 430.003906 L 165.941406 430.003906 L 165.941406 454.777344 L 302.175781 454.777344 L 302.175781 430.003906 " fill-opacity="1" fill-rule="nonzero"/><path fill="#a6a6a6" d="M 302.175781 430.003906 L 302.175781 423.964844 L 165.941406 423.964844 C 164.347656 423.964844 162.789062 424.613281 161.667969 425.734375 C 160.535156 426.851562 159.898438 428.410156 159.898438 430.003906 L 159.898438 454.777344 C 159.898438 456.371094 160.535156 457.929688 161.667969 459.046875 C 162.789062 460.167969 164.347656 460.816406 165.941406 460.816406 L 302.175781 460.816406 C 303.792969 460.816406 305.3125 460.191406 306.445312 459.046875 C 307.589844 457.902344 308.214844 456.394531 308.214844 454.777344 L 308.214844 430.003906 C 308.214844 428.410156 307.578125 426.851562 306.445312 425.734375 C 305.324219 424.613281 303.769531 423.964844 302.175781 423.964844 L 302.175781 430.003906 L 296.136719 430.003906 L 296.136719 448.738281 L 171.980469 448.738281 L 171.980469 436.042969 L 302.175781 436.042969 L 302.175781 430.003906 L 296.136719 430.003906 L 302.175781 430.003906 " fill-opacity="1" fill-rule="nonzero"/><path fill="#ffffff" d="M 402.632812 491.941406 L 165.941406 491.941406 L 165.941406 516.703125 L 402.632812 516.703125 L 402.632812 491.941406 " fill-opacity="1" fill-rule="nonzero"/><path fill="#a6a6a6" d="M 402.632812 491.941406 L 402.632812 485.898438 L 165.941406 485.898438 C 164.347656 485.898438 162.789062 486.535156 161.667969 487.65625 C 160.535156 488.789062 159.898438 490.347656 159.898438 491.941406 L 159.898438 516.703125 C 159.898438 518.296875 160.535156 519.851562 161.667969 520.972656 C 162.789062 522.105469 164.347656 522.742188 165.941406 522.742188 L 402.632812 522.742188 C 404.222656 522.742188 405.78125 522.105469 406.902344 520.972656 C 408.035156 519.851562 408.671875 518.296875 408.671875 516.703125 L 408.671875 491.941406 C 408.671875 490.347656 408.035156 488.789062 406.902344 487.65625 C 405.78125 486.535156 404.222656 485.898438 402.632812 485.898438 L 402.632812 491.941406 L 396.589844 491.941406 L 396.589844 510.664062 L 171.980469 510.664062 L 171.980469 497.980469 L 402.632812 497.980469 L 402.632812 491.941406 L 396.589844 491.941406 L 402.632812 491.941406 " fill-opacity="1" fill-rule="nonzero"/><path fill="#ffffff" d="M 421.90625 491.941406 L 421.90625 516.703125 L 640.714844 516.703125 L 640.714844 491.941406 L 421.90625 491.941406 " fill-opacity="1" fill-rule="nonzero"/><path fill="#a6a6a6" d="M 421.90625 491.941406 L 415.867188 491.941406 L 415.867188 516.703125 C 415.867188 518.296875 416.515625 519.851562 417.636719 520.972656 C 418.757812 522.105469 420.316406 522.742188 421.90625 522.742188 L 640.714844 522.742188 C 642.308594 522.742188 643.863281 522.105469 644.984375 520.972656 C 646.117188 519.851562 646.753906 518.296875 646.753906 516.703125 L 646.753906 491.941406 C 646.753906 490.347656 646.117188 488.789062 644.984375 487.65625 C 643.863281 486.535156 642.308594 485.898438 640.714844 485.898438 L 421.90625 485.898438 C 420.316406 485.898438 418.757812 486.535156 417.636719 487.65625 C 416.515625 488.789062 415.867188 490.347656 415.867188 491.941406 L 421.90625 491.941406 L 421.90625 497.980469 L 634.675781 497.980469 L 634.675781 510.664062 L 427.949219 510.664062 L 427.949219 491.941406 L 421.90625 491.941406 L 421.90625 497.980469 L 421.90625 491.941406 " fill-opacity="1" fill-rule="nonzero"/><path fill="#ffffff" d="M 318.691406 553.863281 L 165.941406 553.863281 L 165.941406 578.640625 L 318.691406 578.640625 L 318.691406 553.863281 " fill-opacity="1" fill-rule="nonzero"/><path fill="#a6a6a6" d="M 318.691406 553.863281 L 318.691406 547.824219 L 165.941406 547.824219 C 164.347656 547.824219 162.789062 548.460938 161.667969 549.59375 C 160.535156 550.714844 159.898438 552.273438 159.898438 553.863281 L 159.898438 578.640625 C 159.898438 580.21875 160.535156 581.777344 161.667969 582.910156 C 162.789062 584.03125 164.347656 584.679688 165.941406 584.679688 L 318.691406 584.679688 C 320.285156 584.679688 321.84375 584.03125 322.964844 582.910156 C 324.085938 581.777344 324.734375 580.21875 324.734375 578.640625 L 324.734375 553.863281 C 324.734375 552.273438 324.085938 550.714844 322.964844 549.59375 C 321.84375 548.460938 320.285156 547.824219 318.691406 547.824219 L 318.691406 553.863281 L 312.652344 553.863281 L 312.652344 572.585938 L 171.980469 572.585938 L 171.980469 559.90625 L 318.691406 559.90625 L 318.691406 553.863281 L 312.652344 553.863281 L 318.691406 553.863281 " fill-opacity="1" fill-rule="nonzero"/><path fill="#ffffff" d="M 567.78125 553.863281 L 346.214844 553.863281 L 346.214844 578.640625 L 567.78125 578.640625 L 567.78125 553.863281 " fill-opacity="1" fill-rule="nonzero"/><path fill="#a6a6a6" d="M 567.78125 553.863281 L 567.78125 547.824219 L 346.214844 547.824219 C 344.625 547.824219 343.066406 548.460938 341.945312 549.59375 C 340.824219 550.714844 340.175781 552.273438 340.175781 553.863281 L 340.175781 578.640625 C 340.175781 580.21875 340.824219 581.777344 341.945312 582.910156 C 343.066406 584.03125 344.625 584.679688 346.214844 584.679688 L 567.78125 584.679688 C 569.375 584.679688 570.933594 584.03125 572.054688 582.910156 C 573.175781 581.777344 573.824219 580.21875 573.824219 578.640625 L 573.824219 553.863281 C 573.824219 552.273438 573.175781 550.714844 572.054688 549.59375 C 570.933594 548.460938 569.375 547.824219 567.78125 547.824219 L 567.78125 553.863281 L 561.742188 553.863281 L 561.742188 572.585938 L 352.257812 572.585938 L 352.257812 559.90625 L 567.78125 559.90625 L 567.78125 553.863281 L 561.742188 553.863281 L 567.78125 553.863281 " fill-opacity="1" fill-rule="nonzero"/><path fill="#ffffff" d="M 582.917969 553.863281 L 582.917969 578.640625 L 640.714844 578.640625 L 640.714844 553.863281 L 582.917969 553.863281 " fill-opacity="1" fill-rule="nonzero"/><path fill="#a6a6a6" d="M 582.917969 553.863281 L 576.878906 553.863281 L 576.878906 578.640625 C 576.878906 580.21875 577.527344 581.777344 578.648438 582.910156 C 579.769531 584.03125 581.328125 584.679688 582.917969 584.679688 L 640.714844 584.679688 C 642.308594 584.679688 643.863281 584.03125 644.984375 582.910156 C 646.117188 581.777344 646.753906 580.21875 646.753906 578.640625 L 646.753906 553.863281 C 646.753906 552.273438 646.117188 550.714844 644.984375 549.59375 C 643.863281 548.460938 642.308594 547.824219 640.714844 547.824219 L 582.917969 547.824219 C 581.328125 547.824219 579.769531 548.460938 578.648438 549.59375 C 577.527344 550.714844 576.878906 552.273438 576.878906 553.863281 L 582.917969 553.863281 L 582.917969 559.90625 L 634.675781 559.90625 L 634.675781 572.585938 L 588.960938 572.585938 L 588.960938 553.863281 L 582.917969 553.863281 L 582.917969 559.90625 L 582.917969 553.863281 " fill-opacity="1" fill-rule="nonzero"/><path fill="#ffffff" d="M 254.007812 615.789062 L 165.941406 615.789062 L 165.941406 640.5625 L 254.007812 640.5625 L 254.007812 615.789062 " fill-opacity="1" fill-rule="nonzero"/><path fill="#a6a6a6" d="M 254.007812 615.789062 L 254.007812 609.75 L 165.941406 609.75 C 164.347656 609.75 162.789062 610.398438 161.667969 611.519531 C 160.535156 612.640625 159.898438 614.195312 159.898438 615.789062 L 159.898438 640.5625 C 159.898438 642.15625 160.535156 643.714844 161.667969 644.835938 C 162.789062 645.953125 164.347656 646.605469 165.941406 646.605469 L 254.007812 646.605469 C 255.625 646.605469 257.144531 645.976562 258.277344 644.835938 C 259.421875 643.691406 260.046875 642.179688 260.046875 640.5625 L 260.046875 615.789062 C 260.046875 614.171875 259.421875 612.664062 258.277344 611.519531 C 257.144531 610.375 255.625 609.75 254.007812 609.75 L 254.007812 615.789062 L 247.96875 615.789062 L 247.96875 634.523438 L 171.96875 634.523438 L 171.96875 621.828125 L 254.007812 621.828125 L 254.007812 615.789062 L 247.96875 615.789062 L 254.007812 615.789062 " fill-opacity="1" fill-rule="nonzero"/><path fill="#ffffff" d="M 496.21875 615.789062 L 270.523438 615.789062 L 270.523438 640.5625 L 496.21875 640.5625 L 496.21875 615.789062 " fill-opacity="1" fill-rule="nonzero"/><path fill="#a6a6a6" d="M 496.21875 615.789062 L 496.21875 609.75 L 270.523438 609.75 C 268.929688 609.75 267.386719 610.398438 266.253906 611.519531 C 265.132812 612.640625 264.484375 614.195312 264.484375 615.789062 L 264.484375 640.5625 C 264.484375 642.15625 265.132812 643.714844 266.253906 644.835938 C 267.386719 645.953125 268.929688 646.605469 270.523438 646.605469 L 496.21875 646.605469 C 497.835938 646.605469 499.347656 645.976562 500.492188 644.835938 C 501.636719 643.691406 502.261719 642.179688 502.261719 640.5625 L 502.261719 615.789062 C 502.261719 614.195312 501.609375 612.640625 500.492188 611.519531 C 499.371094 610.398438 497.8125 609.75 496.21875 609.75 L 496.21875 615.789062 L 490.179688 615.789062 L 490.179688 634.523438 L 276.5625 634.523438 L 276.5625 621.828125 L 496.21875 621.828125 L 496.21875 615.789062 L 490.179688 615.789062 L 496.21875 615.789062 " fill-opacity="1" fill-rule="nonzero"/><path fill="#ffffff" d="M 514.105469 615.789062 L 514.105469 640.5625 L 640.714844 640.5625 L 640.714844 615.789062 L 514.105469 615.789062 " fill-opacity="1" fill-rule="nonzero"/><path fill="#a6a6a6" d="M 514.105469 615.789062 L 508.0625 615.789062 L 508.0625 640.5625 C 508.0625 642.15625 508.714844 643.714844 509.835938 644.835938 C 510.964844 645.953125 512.523438 646.605469 514.105469 646.605469 L 640.714844 646.605469 C 642.332031 646.605469 643.851562 645.976562 644.984375 644.835938 C 646.128906 643.691406 646.753906 642.179688 646.753906 640.5625 L 646.753906 615.789062 C 646.753906 614.171875 646.128906 612.664062 644.984375 611.519531 C 643.851562 610.375 642.332031 609.75 640.714844 609.75 L 514.105469 609.75 C 512.523438 609.75 510.964844 610.398438 509.835938 611.519531 C 508.714844 612.640625 508.0625 614.195312 508.0625 615.789062 L 514.105469 615.789062 L 514.105469 621.828125 L 634.675781 621.828125 L 634.675781 634.523438 L 520.144531 634.523438 L 520.144531 615.789062 L 514.105469 615.789062 L 514.105469 621.828125 L 514.105469 615.789062 " fill-opacity="1" fill-rule="nonzero"/><path fill="#ffffff" d="M 359.984375 677.714844 L 165.941406 677.714844 L 165.941406 702.488281 L 359.984375 702.488281 L 359.984375 677.714844 " fill-opacity="1" fill-rule="nonzero"/><path fill="#a6a6a6" d="M 359.984375 677.714844 L 359.984375 671.671875 L 165.941406 671.671875 C 164.347656 671.671875 162.789062 672.320312 161.667969 673.441406 C 160.535156 674.574219 159.898438 676.132812 159.898438 677.714844 L 159.898438 702.488281 C 159.898438 704.082031 160.535156 705.636719 161.667969 706.757812 C 162.789062 707.878906 164.347656 708.527344 165.941406 708.527344 L 359.984375 708.527344 C 361.5625 708.527344 363.121094 707.878906 364.253906 706.757812 C 365.375 705.636719 366.023438 704.082031 366.023438 702.488281 L 366.023438 677.714844 C 366.023438 676.132812 365.375 674.574219 364.253906 673.441406 C 363.121094 672.320312 361.5625 671.671875 359.984375 671.671875 L 359.984375 677.714844 L 353.941406 677.714844 L 353.941406 696.449219 L 171.980469 696.449219 L 171.980469 683.753906 L 359.984375 683.753906 L 359.984375 677.714844 L 353.941406 677.714844 L 359.984375 677.714844 " fill-opacity="1" fill-rule="nonzero"/><path fill="#ffffff" d="M 496.21875 677.714844 L 393.003906 677.714844 L 393.003906 702.488281 L 496.21875 702.488281 L 496.21875 677.714844 " fill-opacity="1" fill-rule="nonzero"/><path fill="#a6a6a6" d="M 496.21875 677.714844 L 496.21875 671.671875 L 393.003906 671.671875 C 391.410156 671.671875 389.867188 672.320312 388.734375 673.441406 C 387.613281 674.574219 386.964844 676.132812 386.964844 677.714844 L 386.964844 702.488281 C 386.964844 704.082031 387.613281 705.636719 388.734375 706.757812 C 389.867188 707.878906 391.410156 708.527344 393.003906 708.527344 L 496.21875 708.527344 C 497.8125 708.527344 499.371094 707.878906 500.492188 706.757812 C 501.609375 705.636719 502.261719 704.082031 502.261719 702.488281 L 502.261719 677.714844 C 502.261719 676.132812 501.609375 674.574219 500.492188 673.441406 C 499.371094 672.320312 497.8125 671.671875 496.21875 671.671875 L 496.21875 677.714844 L 490.179688 677.714844 L 490.179688 696.449219 L 399.042969 696.449219 L 399.042969 683.753906 L 496.21875 683.753906 L 496.21875 677.714844 L 490.179688 677.714844 L 496.21875 677.714844 " fill-opacity="1" fill-rule="nonzero"/><path fill="#ffffff" d="M 659.660156 776.824219 L 150.035156 776.824219 C 125.699219 776.824219 105.972656 757.109375 105.972656 732.785156 L 105.972656 77.226562 C 105.972656 52.898438 125.699219 33.164062 150.035156 33.164062 L 513.738281 33.164062 L 703.710938 300.253906 L 703.710938 732.785156 C 703.710938 757.109375 683.988281 776.824219 659.660156 776.824219 Z M 703.710938 77.226562 L 703.710938 186.480469 L 602.394531 33.164062 L 659.660156 33.164062 C 683.988281 33.164062 703.710938 52.898438 703.710938 77.226562 Z M 659.660156 6.027344 L 150.035156 6.027344 C 110.773438 6.027344 78.839844 37.964844 78.839844 77.226562 L 78.839844 732.785156 C 78.839844 772.035156 110.773438 803.96875 150.035156 803.96875 L 659.660156 803.96875 C 698.910156 803.96875 730.847656 772.035156 730.847656 732.785156 L 730.847656 77.226562 C 730.847656 37.964844 698.910156 6.027344 659.660156 6.027344 " fill-opacity="1" fill-rule="nonzero"/><g clip-path="url(#1e61147ae3)"><path fill="#a6a6a6" d="M 659.660156 776.824219 L 659.660156 770.78125 L 150.035156 770.78125 C 139.515625 770.78125 130.039062 766.535156 123.152344 759.644531 C 116.261719 752.757812 112.027344 743.296875 112.015625 732.785156 L 112.015625 77.226562 C 112.027344 66.714844 116.261719 57.242188 123.152344 50.351562 C 130.039062 43.460938 139.515625 39.214844 150.035156 39.203125 L 510.625 39.203125 L 697.671875 302.179688 L 697.671875 732.785156 C 697.671875 743.296875 693.425781 752.757812 686.535156 759.644531 C 679.632812 766.535156 670.171875 770.78125 659.660156 770.78125 L 659.660156 782.863281 C 687.324219 782.863281 709.753906 760.449219 709.753906 732.785156 L 709.753906 300.253906 C 709.753906 298.992188 709.363281 297.777344 708.632812 296.75 L 518.671875 29.671875 C 517.527344 28.078125 515.710938 27.121094 513.738281 27.121094 L 150.035156 27.121094 C 122.347656 27.132812 99.945312 49.5625 99.933594 77.226562 L 99.933594 732.785156 C 99.933594 760.449219 122.359375 782.863281 150.035156 782.863281 L 659.660156 782.863281 Z M 703.710938 77.226562 L 697.671875 77.226562 L 697.671875 166.390625 L 613.628906 39.203125 L 659.660156 39.203125 C 670.171875 39.214844 679.632812 43.449219 686.535156 50.351562 C 693.425781 57.242188 697.671875 66.714844 697.671875 77.226562 L 709.753906 77.226562 C 709.753906 49.5625 687.324219 27.132812 659.660156 27.121094 L 602.394531 27.121094 C 600.179688 27.121094 598.125 28.359375 597.074219 30.308594 C 596.027344 32.253906 596.132812 34.648438 597.359375 36.5 L 698.675781 189.820312 C 700.136719 192.039062 702.898438 193.039062 705.445312 192.273438 C 708.007812 191.507812 709.753906 189.148438 709.753906 186.480469 L 709.753906 77.226562 Z M 659.660156 6.027344 L 659.660156 -0.0117188 L 150.035156 -0.0117188 C 107.4375 0.0117188 72.8125 34.625 72.800781 77.226562 L 72.800781 732.785156 C 72.8125 775.382812 107.4375 809.996094 150.035156 810.007812 L 659.660156 810.007812 C 702.261719 809.996094 736.875 775.371094 736.886719 732.785156 L 736.886719 77.226562 C 736.875 34.625 702.261719 0.0117188 659.660156 -0.0117188 L 659.660156 12.070312 C 677.628906 12.082031 693.886719 19.371094 705.707031 31.179688 C 717.515625 43 724.804688 59.257812 724.804688 77.226562 L 724.804688 732.785156 C 724.804688 750.75 717.515625 767.007812 705.707031 778.816406 C 693.886719 790.625 677.628906 797.929688 659.660156 797.929688 L 150.035156 797.929688 C 132.058594 797.929688 115.8125 790.625 103.992188 778.816406 C 92.171875 767.007812 84.878906 750.75 84.878906 732.785156 L 84.878906 77.226562 C 84.878906 59.257812 92.171875 43 103.992188 31.179688 C 115.8125 19.371094 132.058594 12.082031 150.035156 12.070312 L 659.660156 12.070312 L 659.660156 6.027344 " fill-opacity="1" fill-rule="nonzero"/></g><path fill="#ffffff" d="M 215.84375 247.519531 C 218.828125 247.519531 223.273438 247.699219 227.804688 249.148438 C 233.75 251.097656 238.398438 254.835938 242.503906 258.140625 C 244.355469 259.613281 247.367188 262.03125 248.851562 262.644531 C 250.328125 262.03125 253.324219 259.613281 255.1875 258.140625 C 259.292969 254.835938 263.941406 251.097656 269.875 249.148438 C 274.40625 247.699219 278.875 247.519531 281.835938 247.519531 C 283.691406 247.519531 285.578125 247.59375 287.453125 247.6875 C 288.953125 247.746094 290.414062 247.816406 291.878906 247.816406 C 293.398438 247.816406 294.320312 247.722656 294.804688 247.640625 C 295.59375 246.199219 296.488281 242.886719 297.140625 240.597656 C 298.542969 235.429688 300.148438 229.566406 303.910156 224.410156 C 307.625 219.300781 312.675781 215.988281 317.125 213.074219 C 319.023438 211.835938 322.03125 209.851562 323.175781 208.648438 C 322.929688 207.066406 321.785156 203.953125 320.957031 201.828125 C 319.058594 196.734375 316.898438 190.953125 316.898438 184.417969 C 316.898438 177.882812 319.046875 172.113281 320.957031 167.015625 C 321.796875 164.808594 323.011719 161.589844 323.199219 160.042969 C 322.328125 159.171875 319.082031 157.058594 317.125 155.761719 C 312.675781 152.847656 307.625 149.542969 303.910156 144.4375 C 300.148438 139.269531 298.53125 133.417969 297.128906 128.25 C 296.488281 125.949219 295.582031 122.632812 294.804688 121.195312 C 294.320312 121.125 293.398438 121.019531 291.855469 121.019531 C 290.414062 121.019531 288.953125 121.089844 287.453125 121.148438 C 285.566406 121.242188 283.691406 121.324219 281.835938 121.324219 C 278.875 121.324219 274.40625 121.148438 269.875 119.683594 C 263.941406 117.75 259.292969 114.011719 255.1875 110.707031 C 253.324219 109.21875 250.328125 106.800781 248.851562 106.199219 C 247.367188 106.800781 244.355469 109.21875 242.503906 110.707031 C 238.398438 114.011719 233.738281 117.75 227.804688 119.683594 C 223.273438 121.148438 218.828125 121.324219 215.855469 121.324219 C 214.003906 121.324219 212.113281 121.242188 210.214844 121.160156 C 208.753906 121.089844 207.277344 121.019531 205.816406 121.019531 C 204.28125 121.019531 203.375 121.125 202.878906 121.195312 C 202.121094 122.632812 201.191406 125.949219 200.566406 128.25 C 199.148438 133.417969 197.546875 139.269531 193.769531 144.4375 C 190.066406 149.542969 185.015625 152.847656 180.570312 155.761719 C 178.679688 157 175.671875 158.980469 174.527344 160.183594 C 174.765625 161.765625 175.933594 164.878906 176.722656 167.015625 C 178.632812 172.113281 180.792969 177.882812 180.792969 184.417969 C 180.792969 190.953125 178.632812 196.734375 176.722656 201.828125 C 175.910156 204.023438 174.695312 207.257812 174.492188 208.800781 C 175.367188 209.664062 178.597656 211.773438 180.570312 213.074219 C 185.015625 215.988281 190.066406 219.300781 193.78125 224.410156 C 197.546875 229.578125 199.148438 235.429688 200.566406 240.597656 C 201.191406 242.886719 202.097656 246.199219 202.878906 247.640625 C 203.375 247.722656 204.28125 247.816406 205.816406 247.816406 C 207.253906 247.816406 208.753906 247.746094 210.214844 247.6875 C 212.101562 247.59375 213.992188 247.519531 215.84375 247.519531 Z M 248.851562 289.863281 C 238.671875 289.863281 231.0625 283.75 225.515625 279.28125 C 223.570312 277.722656 220.632812 275.363281 219.417969 274.972656 C 219.144531 274.878906 218.214844 274.65625 215.84375 274.65625 C 214.402344 274.65625 212.929688 274.738281 211.429688 274.785156 C 209.542969 274.878906 207.65625 274.949219 205.816406 274.949219 C 200.765625 274.949219 193.296875 274.40625 186.855469 269.722656 C 178.824219 263.859375 176.367188 254.953125 174.410156 247.792969 C 173.667969 245.148438 172.6875 241.527344 171.839844 240.371094 C 171.046875 239.273438 167.957031 237.246094 165.691406 235.769531 C 159.769531 231.878906 151.664062 226.570312 148.539062 217.011719 C 145.53125 207.730469 148.738281 199.175781 151.300781 192.296875 C 152.347656 189.5 153.660156 186.03125 153.660156 184.417969 C 153.660156 182.800781 152.347656 179.332031 151.300781 176.535156 C 148.738281 169.671875 145.53125 161.117188 148.539062 151.832031 C 151.652344 142.277344 159.769531 136.957031 165.691406 133.074219 C 167.957031 131.589844 171.046875 129.558594 171.839844 128.460938 C 172.6875 127.304688 173.667969 123.695312 174.410156 121.054688 C 176.367188 113.890625 178.824219 104.972656 186.855469 99.121094 C 193.296875 94.425781 200.765625 93.882812 205.816406 93.882812 C 207.667969 93.882812 209.542969 93.953125 211.441406 94.050781 C 212.929688 94.109375 214.414062 94.191406 215.855469 94.191406 C 218.214844 94.191406 219.144531 93.964844 219.417969 93.871094 C 220.621094 93.484375 223.558594 91.125 225.515625 89.554688 C 231.0625 85.09375 238.671875 78.984375 248.851562 78.984375 C 259.019531 78.984375 266.628906 85.09375 272.1875 89.554688 C 274.121094 91.125 277.058594 93.484375 278.261719 93.871094 C 278.546875 93.953125 279.476562 94.191406 281.835938 94.191406 C 283.277344 94.191406 284.773438 94.109375 286.273438 94.050781 C 288.148438 93.953125 290.035156 93.882812 291.855469 93.882812 C 296.925781 93.882812 304.382812 94.425781 310.835938 99.121094 C 318.871094 104.972656 321.324219 113.878906 323.292969 121.042969 C 324.011719 123.683594 325.003906 127.304688 325.855469 128.460938 C 326.667969 129.558594 329.734375 131.589844 332 133.074219 C 337.921875 136.957031 346.050781 142.265625 349.140625 151.820312 C 352.160156 161.117188 348.964844 169.671875 346.382812 176.535156 C 345.332031 179.332031 344.035156 182.800781 344.035156 184.417969 C 344.035156 186.03125 345.332031 189.5 346.382812 192.296875 C 348.964844 199.175781 352.160156 207.730469 349.140625 217.011719 C 346.050781 226.570312 337.921875 231.878906 332 235.769531 C 329.734375 237.246094 326.667969 239.273438 325.855469 240.371094 C 325.015625 241.527344 324.011719 245.148438 323.292969 247.78125 C 321.324219 254.953125 318.871094 263.859375 310.835938 269.722656 C 304.382812 274.40625 296.925781 274.949219 291.878906 274.949219 C 290.035156 274.949219 288.148438 274.878906 286.273438 274.785156 C 284.773438 274.738281 283.289062 274.65625 281.835938 274.65625 C 279.476562 274.65625 278.546875 274.878906 278.261719 274.972656 C 277.058594 275.363281 274.121094 277.722656 272.1875 279.28125 C 266.628906 283.75 259.019531 289.863281 248.851562 289.863281 " fill-opacity="1" fill-rule="nonzero"/><path fill="#a6a6a6" d="M 215.84375 247.519531 L 215.84375 253.5625 C 218.578125 253.550781 222.390625 253.738281 225.953125 254.90625 L 225.941406 254.894531 C 230.578125 256.394531 234.613281 259.519531 238.71875 262.835938 C 239.648438 263.589844 240.925781 264.605469 242.222656 265.570312 C 242.871094 266.054688 243.53125 266.527344 244.214844 266.964844 C 244.921875 267.410156 245.574219 267.824219 246.5625 268.226562 C 248.039062 268.839844 249.679688 268.828125 251.152344 268.226562 C 252.132812 267.8125 252.792969 267.398438 253.488281 266.964844 C 254.503906 266.300781 255.480469 265.570312 256.4375 264.839844 C 257.371094 264.121094 258.265625 263.402344 258.949219 262.847656 L 258.972656 262.835938 C 263.066406 259.519531 267.113281 256.394531 271.75 254.894531 L 271.738281 254.90625 C 275.289062 253.75 279.125 253.550781 281.835938 253.5625 C 283.523438 253.5625 285.328125 253.632812 287.195312 253.714844 C 288.667969 253.773438 290.226562 253.855469 291.878906 253.855469 C 293.660156 253.855469 294.839844 253.761719 295.851562 253.585938 C 297.65625 253.265625 299.214844 252.144531 300.101562 250.542969 C 300.523438 249.75 300.796875 249.078125 301.066406 248.371094 C 301.835938 246.292969 302.460938 243.933594 302.941406 242.222656 L 302.953125 242.1875 C 304.359375 237.007812 305.832031 231.996094 308.792969 227.972656 L 308.792969 227.960938 C 311.683594 223.949219 315.96875 221.023438 320.4375 218.121094 L 320.414062 218.132812 C 321.382812 217.507812 322.65625 216.671875 323.90625 215.785156 C 324.542969 215.339844 325.15625 214.890625 325.757812 214.40625 C 326.359375 213.933594 326.925781 213.460938 327.550781 212.8125 C 328.839844 211.457031 329.429688 209.582031 329.144531 207.730469 C 329.015625 206.925781 328.851562 206.265625 328.648438 205.570312 C 328.070312 203.539062 327.234375 201.324219 326.597656 199.671875 L 326.621094 199.71875 C 324.699219 194.609375 322.929688 189.597656 322.941406 184.417969 C 322.929688 179.238281 324.6875 174.222656 326.621094 169.140625 C 327.035156 168.03125 327.5625 166.625 328.035156 165.210938 C 328.273438 164.515625 328.507812 163.808594 328.695312 163.097656 C 328.898438 162.378906 329.074219 161.695312 329.191406 160.796875 C 329.429688 158.945312 328.792969 157.09375 327.457031 155.761719 C 326.808594 155.136719 326.335938 154.78125 325.769531 154.34375 C 324.132812 153.128906 321.925781 151.703125 320.4375 150.722656 L 320.425781 150.710938 C 315.96875 147.808594 311.683594 144.882812 308.792969 140.882812 C 305.820312 136.839844 304.335938 131.824219 302.953125 126.65625 L 302.941406 126.632812 C 302.625 125.488281 302.222656 124.027344 301.785156 122.597656 C 301.550781 121.878906 301.328125 121.171875 301.066406 120.476562 C 300.796875 119.765625 300.535156 119.105469 300.125 118.339844 C 299.226562 116.664062 297.621094 115.53125 295.746094 115.226562 C 294.898438 115.09375 293.660156 114.976562 291.855469 114.976562 C 290.214844 114.976562 288.667969 115.058594 287.195312 115.117188 L 287.183594 115.117188 C 285.304688 115.203125 283.523438 115.285156 281.835938 115.285156 C 279.125 115.285156 275.289062 115.09375 271.738281 113.9375 L 271.75 113.9375 C 267.113281 112.453125 263.066406 109.328125 258.972656 106 L 258.960938 105.988281 C 258.03125 105.257812 256.769531 104.230469 255.46875 103.273438 C 254.820312 102.789062 254.160156 102.320312 253.476562 101.871094 C 252.78125 101.433594 252.121094 101.019531 251.128906 100.609375 C 249.679688 100.019531 248.039062 100.007812 246.574219 100.609375 C 245.585938 101.019531 244.921875 101.421875 244.226562 101.871094 C 243.199219 102.53125 242.210938 103.261719 241.253906 103.992188 C 240.3125 104.726562 239.414062 105.433594 238.71875 106 C 234.625 109.328125 230.566406 112.453125 225.929688 113.9375 C 222.390625 115.09375 218.578125 115.285156 215.855469 115.285156 C 214.167969 115.285156 212.363281 115.203125 210.488281 115.117188 L 210.511719 115.117188 C 209.035156 115.058594 207.464844 114.976562 205.816406 114.976562 C 204.023438 114.976562 202.78125 115.09375 201.945312 115.226562 C 200.070312 115.519531 198.429688 116.6875 197.546875 118.363281 C 197.144531 119.117188 196.882812 119.777344 196.625 120.476562 C 195.871094 122.527344 195.222656 124.898438 194.738281 126.65625 L 194.738281 126.644531 C 193.332031 131.824219 191.859375 136.839844 188.898438 140.871094 L 188.886719 140.882812 C 186.007812 144.882812 181.726562 147.796875 177.253906 150.710938 C 176.308594 151.335938 175.023438 152.175781 173.785156 153.058594 C 173.148438 153.496094 172.535156 153.957031 171.933594 154.429688 C 171.320312 154.921875 170.753906 155.382812 170.128906 156.054688 C 168.855469 157.402344 168.277344 159.242188 168.546875 161.082031 C 168.675781 161.90625 168.855469 162.566406 169.042969 163.277344 C 169.632812 165.304688 170.46875 167.5 171.046875 169.105469 L 171.058594 169.140625 C 172.996094 174.234375 174.777344 179.238281 174.753906 184.417969 C 174.777344 189.597656 172.996094 194.609375 171.070312 199.71875 L 171.070312 199.695312 C 170.660156 200.804688 170.128906 202.21875 169.65625 203.625 C 169.410156 204.332031 169.183594 205.039062 168.984375 205.746094 C 168.792969 206.464844 168.617188 207.164062 168.5 208.046875 C 168.265625 209.910156 168.902344 211.75 170.234375 213.074219 C 170.882812 213.710938 171.355469 214.050781 171.921875 214.488281 C 173.5625 215.703125 175.753906 217.132812 177.253906 218.121094 C 181.726562 221.023438 186.007812 223.960938 188.910156 227.960938 C 191.859375 232.007812 193.332031 237.007812 194.738281 242.199219 L 194.738281 242.1875 C 195.054688 243.332031 195.445312 244.796875 195.894531 246.222656 C 196.117188 246.953125 196.355469 247.664062 196.613281 248.371094 C 196.882812 249.078125 197.15625 249.761719 197.59375 250.554688 C 198.464844 252.15625 200.035156 253.277344 201.851562 253.597656 C 202.855469 253.761719 204.035156 253.855469 205.816406 253.855469 C 207.453125 253.855469 209.023438 253.773438 210.488281 253.714844 C 212.351562 253.632812 214.167969 253.5625 215.84375 253.5625 L 215.84375 241.480469 C 213.824219 241.480469 211.855469 241.5625 209.957031 241.644531 C 208.46875 241.707031 207.054688 241.777344 205.816406 241.777344 C 205.167969 241.777344 204.695312 241.753906 204.375 241.730469 C 204.058594 241.71875 203.914062 241.679688 203.914062 241.679688 L 202.878906 247.640625 L 208.175781 244.726562 L 207.726562 244.972656 L 208.175781 244.738281 L 208.175781 244.726562 L 207.726562 244.972656 L 208.175781 244.738281 C 208.175781 244.726562 208.03125 244.429688 207.890625 244.027344 C 207.429688 242.789062 206.839844 240.65625 206.394531 239.015625 L 206.394531 239.003906 C 204.953125 233.847656 203.21875 227.136719 198.664062 220.847656 C 194.125 214.640625 188.320312 210.949219 183.882812 208.011719 C 182.894531 207.363281 181.617188 206.535156 180.535156 205.792969 C 179.992188 205.417969 179.496094 205.074219 179.140625 204.804688 L 178.738281 204.496094 L 178.679688 204.4375 L 177.476562 205.804688 L 178.765625 204.519531 L 178.679688 204.4375 L 177.476562 205.804688 L 178.765625 204.519531 L 174.492188 208.800781 L 180.484375 209.546875 L 179.53125 209.425781 L 180.484375 209.570312 L 180.484375 209.546875 L 179.53125 209.425781 L 180.484375 209.570312 C 180.484375 209.570312 180.546875 209.261719 180.664062 208.859375 C 181.015625 207.609375 181.785156 205.523438 182.386719 203.953125 L 182.386719 203.941406 C 184.273438 198.84375 186.820312 192.308594 186.832031 184.417969 C 186.820312 176.535156 184.273438 169.988281 182.375 164.890625 L 182.386719 164.9375 C 181.984375 163.84375 181.511719 162.578125 181.136719 161.460938 C 180.945312 160.90625 180.78125 160.386719 180.675781 159.972656 L 180.535156 159.476562 L 180.507812 159.335938 L 180.496094 159.300781 L 174.527344 160.183594 L 178.929688 164.324219 L 178.574219 163.996094 L 178.917969 164.335938 L 178.929688 164.324219 L 178.574219 163.996094 L 178.917969 164.335938 C 178.929688 164.324219 179.1875 164.089844 179.542969 163.820312 C 180.628906 162.957031 182.527344 161.695312 183.882812 160.820312 C 188.320312 157.882812 194.125 154.203125 198.652344 147.988281 L 198.640625 148 C 203.21875 141.710938 204.953125 134.996094 206.394531 129.84375 L 206.394531 129.832031 C 206.699219 128.710938 207.078125 127.363281 207.429688 126.195312 C 207.621094 125.617188 207.796875 125.085938 207.949219 124.6875 L 208.140625 124.191406 L 208.199219 124.050781 L 208.210938 124.027344 L 202.878906 121.195312 L 203.808594 127.164062 C 203.964844 127.140625 204.539062 127.058594 205.816406 127.058594 C 207.078125 127.058594 208.457031 127.117188 209.933594 127.1875 L 209.957031 127.1875 C 211.867188 127.28125 213.835938 127.363281 215.855469 127.363281 C 219.0625 127.351562 224.160156 127.199219 229.667969 125.429688 C 236.925781 123.046875 242.175781 118.695312 246.292969 115.414062 C 247.210938 114.671875 248.367188 113.738281 249.40625 112.972656 C 249.925781 112.59375 250.410156 112.253906 250.761719 112.027344 L 251.164062 111.78125 L 251.222656 111.757812 L 250.550781 110.398438 L 251.117188 111.792969 L 251.222656 111.757812 L 250.550781 110.398438 L 251.117188 111.792969 L 248.851562 106.199219 L 246.5625 111.792969 L 247.140625 110.398438 L 246.46875 111.746094 L 246.5625 111.792969 L 247.140625 110.398438 L 246.46875 111.746094 C 246.46875 111.746094 246.765625 111.910156 247.128906 112.15625 C 248.285156 112.9375 250.113281 114.375 251.410156 115.425781 L 251.398438 115.414062 C 255.503906 118.695312 260.753906 123.046875 268.011719 125.429688 L 268.023438 125.429688 C 273.519531 127.199219 278.617188 127.351562 281.835938 127.363281 C 283.855469 127.363281 285.824219 127.28125 287.734375 127.1875 L 287.722656 127.1875 C 289.222656 127.117188 290.613281 127.058594 291.855469 127.058594 C 293.140625 127.058594 293.742188 127.140625 293.859375 127.164062 L 294.804688 121.195312 L 289.480469 124.050781 L 289.625 123.980469 L 289.480469 124.050781 L 289.625 123.980469 L 289.480469 124.050781 C 289.492188 124.085938 289.636719 124.390625 289.789062 124.804688 C 290.25 126.066406 290.851562 128.203125 291.3125 129.855469 L 291.300781 129.832031 C 292.726562 134.996094 294.472656 141.710938 299.027344 148 C 303.570312 154.203125 309.371094 157.894531 313.820312 160.820312 L 313.808594 160.808594 C 314.789062 161.460938 316.0625 162.296875 317.148438 163.039062 C 317.691406 163.417969 318.183594 163.773438 318.539062 164.03125 L 318.941406 164.335938 L 319.011719 164.398438 L 320.203125 163.050781 L 318.929688 164.324219 L 319.011719 164.398438 L 320.203125 163.050781 L 318.929688 164.324219 L 323.199219 160.042969 L 317.207031 159.289062 L 318.148438 159.40625 L 317.207031 159.265625 L 317.207031 159.289062 L 318.148438 159.40625 L 317.207031 159.265625 C 317.21875 159.265625 317.148438 159.558594 317.027344 159.972656 C 316.675781 161.222656 315.910156 163.3125 315.308594 164.902344 L 315.308594 164.890625 C 313.40625 170 310.871094 176.535156 310.859375 184.417969 C 310.871094 192.308594 313.417969 198.84375 315.308594 203.941406 L 315.320312 203.988281 C 315.71875 205.027344 316.191406 206.265625 316.558594 207.375 C 316.746094 207.929688 316.910156 208.449219 317.027344 208.859375 C 317.148438 209.261719 317.207031 209.570312 317.207031 209.570312 L 323.175781 208.648438 L 318.796875 204.484375 L 319.011719 204.683594 L 318.796875 204.484375 L 319.011719 204.683594 L 318.796875 204.484375 C 318.773438 204.507812 318.515625 204.742188 318.160156 205.015625 C 317.066406 205.875 315.164062 207.140625 313.832031 208 L 313.808594 208.011719 C 309.371094 210.949219 303.570312 214.640625 299.027344 220.859375 L 299.027344 220.847656 C 294.460938 227.136719 292.738281 233.847656 291.3125 239.003906 L 291.3125 238.96875 C 290.992188 240.125 290.613281 241.46875 290.25 242.636719 C 290.070312 243.214844 289.894531 243.746094 289.753906 244.136719 L 289.566406 244.605469 L 289.492188 244.75 L 289.871094 244.9375 L 289.507812 244.738281 L 289.492188 244.75 L 289.871094 244.9375 L 289.507812 244.738281 L 294.804688 247.640625 L 293.753906 241.691406 L 293.742188 241.691406 C 293.625 241.707031 292.996094 241.777344 291.878906 241.777344 C 290.613281 241.777344 289.222656 241.707031 287.722656 241.644531 C 285.824219 241.5625 283.855469 241.480469 281.835938 241.480469 C 278.617188 241.492188 273.519531 241.644531 268.023438 243.402344 L 268.011719 243.414062 C 260.753906 245.796875 255.503906 250.140625 251.398438 253.421875 L 251.410156 253.40625 C 250.480469 254.164062 249.3125 255.09375 248.273438 255.863281 C 247.753906 256.25 247.269531 256.59375 246.917969 256.816406 L 246.515625 257.066406 L 246.457031 257.101562 L 247.117188 258.433594 L 246.550781 257.054688 L 246.457031 257.101562 L 247.117188 258.433594 L 246.550781 257.054688 L 248.851562 262.644531 L 251.140625 257.054688 L 250.597656 258.386719 L 251.234375 257.101562 L 251.140625 257.054688 L 250.597656 258.386719 L 251.234375 257.101562 C 251.234375 257.101562 250.929688 256.921875 250.550781 256.675781 C 249.394531 255.898438 247.566406 254.457031 246.292969 253.421875 C 242.175781 250.140625 236.9375 245.796875 229.679688 243.414062 L 229.667969 243.402344 C 224.160156 241.644531 219.074219 241.492188 215.84375 241.480469 Z M 248.851562 289.863281 L 248.851562 283.820312 C 244.996094 283.820312 241.574219 282.6875 238.316406 280.929688 C 235.050781 279.171875 232.0625 276.800781 229.304688 274.574219 C 228.324219 273.792969 227.050781 272.769531 225.789062 271.824219 C 225.140625 271.351562 224.503906 270.902344 223.839844 270.480469 C 223.132812 270.054688 222.542969 269.652344 221.28125 269.214844 L 219.417969 274.972656 L 221.363281 269.253906 C 220.621094 269.003906 219.984375 268.886719 219.109375 268.78125 C 218.261719 268.675781 217.210938 268.613281 215.84375 268.613281 C 214.203125 268.613281 212.644531 268.699219 211.195312 268.757812 L 211.160156 268.757812 C 209.285156 268.839844 207.480469 268.910156 205.816406 268.910156 C 203.515625 268.910156 200.835938 268.78125 198.148438 268.191406 C 195.457031 267.613281 192.8125 266.585938 190.40625 264.839844 C 187.351562 262.597656 185.359375 259.835938 183.789062 256.617188 C 182.230469 253.394531 181.207031 249.773438 180.238281 246.199219 L 180.226562 246.152344 C 179.859375 244.855469 179.414062 243.226562 178.917969 241.667969 C 178.65625 240.890625 178.398438 240.125 178.078125 239.359375 C 177.75 238.566406 177.441406 237.835938 176.710938 236.796875 L 171.839844 240.371094 L 176.746094 236.84375 C 175.980469 235.804688 175.378906 235.324219 174.753906 234.78125 C 173.820312 234 172.839844 233.292969 171.839844 232.609375 C 170.847656 231.914062 169.832031 231.265625 168.984375 230.710938 L 169.007812 230.722656 C 166.046875 228.785156 162.882812 226.675781 160.230469 224.152344 C 157.574219 221.601562 155.464844 218.734375 154.285156 215.136719 C 153.625 213.109375 153.363281 211.160156 153.363281 209.191406 C 153.339844 204.332031 155.109375 199.292969 156.960938 194.421875 L 156.960938 194.410156 C 157.480469 193.015625 158.09375 191.390625 158.613281 189.773438 C 158.886719 188.957031 159.121094 188.15625 159.320312 187.308594 C 159.511719 186.457031 159.6875 185.621094 159.699219 184.417969 C 159.6875 183.214844 159.511719 182.375 159.320312 181.527344 C 159.027344 180.277344 158.625 179.0625 158.210938 177.859375 C 157.800781 176.652344 157.351562 175.472656 156.960938 174.4375 L 156.960938 174.425781 C 155.109375 169.539062 153.339844 164.503906 153.363281 159.640625 C 153.363281 157.671875 153.625 155.726562 154.285156 153.707031 L 154.285156 153.695312 C 155.464844 150.097656 157.5625 147.242188 160.230469 144.695312 C 162.882812 142.160156 166.046875 140.058594 168.996094 138.125 C 170.140625 137.378906 171.53125 136.472656 172.839844 135.527344 C 173.503906 135.054688 174.140625 134.574219 174.753906 134.054688 C 175.390625 133.5 175.980469 133.015625 176.746094 131.976562 L 171.839844 128.460938 L 176.699219 132.046875 C 177.441406 131.011719 177.738281 130.265625 178.078125 129.488281 C 178.550781 128.332031 178.917969 127.175781 179.269531 125.996094 C 179.625 124.828125 179.957031 123.660156 180.226562 122.679688 L 180.238281 122.644531 C 181.207031 119.070312 182.230469 115.4375 183.789062 112.21875 C 185.359375 108.996094 187.351562 106.246094 190.40625 104.007812 L 190.417969 104.007812 C 192.8125 102.25 195.457031 101.234375 198.148438 100.644531 C 200.835938 100.054688 203.515625 99.925781 205.816406 99.925781 C 207.503906 99.925781 209.296875 99.996094 211.148438 100.078125 L 211.171875 100.089844 C 212.644531 100.148438 214.214844 100.21875 215.855469 100.21875 C 217.222656 100.21875 218.261719 100.160156 219.121094 100.066406 C 219.996094 99.960938 220.632812 99.839844 221.421875 99.570312 L 219.417969 93.871094 L 221.28125 99.617188 C 222.542969 99.179688 223.132812 98.78125 223.828125 98.355469 C 224.820312 97.730469 225.777344 97.023438 226.71875 96.300781 C 227.652344 95.582031 228.558594 94.863281 229.292969 94.273438 L 229.304688 94.261719 C 232.0625 92.03125 235.050781 89.660156 238.316406 87.914062 C 241.574219 86.15625 244.996094 85.023438 248.851562 85.023438 C 252.710938 85.023438 256.105469 86.15625 259.375 87.914062 C 262.632812 89.660156 265.628906 92.03125 268.398438 94.261719 L 268.375 94.25 C 269.367188 95.039062 270.640625 96.066406 271.902344 97.011719 C 272.554688 97.480469 273.191406 97.929688 273.851562 98.355469 C 274.558594 98.78125 275.148438 99.179688 276.398438 99.617188 L 276.503906 99.652344 C 277.011719 99.804688 277.707031 99.960938 278.546875 100.054688 C 279.40625 100.160156 280.457031 100.21875 281.835938 100.21875 C 283.488281 100.21875 285.058594 100.136719 286.507812 100.089844 L 286.554688 100.078125 C 288.410156 99.996094 290.191406 99.925781 291.855469 99.925781 C 294.164062 99.925781 296.855469 100.054688 299.535156 100.644531 C 302.222656 101.234375 304.867188 102.25 307.285156 104.007812 C 310.328125 106.234375 312.332031 108.996094 313.902344 112.21875 C 315.460938 115.4375 316.5 119.070312 317.476562 122.644531 L 317.464844 122.632812 C 317.832031 123.957031 318.269531 125.59375 318.773438 127.152344 C 319.035156 127.941406 319.292969 128.710938 319.613281 129.488281 C 319.941406 130.265625 320.25 131.011719 320.992188 132.046875 L 320.96875 132.023438 C 321.722656 133.027344 322.3125 133.511719 322.941406 134.054688 C 323.859375 134.832031 324.839844 135.527344 325.84375 136.222656 C 326.832031 136.910156 327.824219 137.558594 328.671875 138.125 L 328.683594 138.125 C 331.644531 140.058594 334.808594 142.160156 337.460938 144.695312 C 340.128906 147.230469 342.226562 150.085938 343.394531 153.683594 C 344.058594 155.726562 344.316406 157.671875 344.328125 159.652344 C 344.339844 164.503906 342.570312 169.539062 340.71875 174.425781 L 340.71875 174.4375 C 340.199219 175.828125 339.585938 177.457031 339.066406 179.074219 C 338.808594 179.886719 338.558594 180.6875 338.371094 181.539062 C 338.183594 182.386719 338.003906 183.214844 337.992188 184.417969 C 338.003906 185.621094 338.183594 186.445312 338.371094 187.308594 C 338.664062 188.558594 339.054688 189.773438 339.46875 190.976562 C 339.878906 192.179688 340.328125 193.359375 340.71875 194.410156 L 340.71875 194.421875 C 342.570312 199.292969 344.339844 204.332031 344.328125 209.179688 C 344.316406 211.148438 344.058594 213.109375 343.394531 215.136719 C 342.226562 218.746094 340.128906 221.601562 337.460938 224.152344 C 334.808594 226.675781 331.644531 228.785156 328.683594 230.722656 L 328.707031 230.710938 C 327.5625 231.453125 326.160156 232.363281 324.851562 233.304688 C 324.203125 233.777344 323.566406 234.25 322.953125 234.769531 C 322.328125 235.3125 321.738281 235.804688 320.980469 236.796875 L 320.957031 236.820312 C 320.238281 237.847656 319.941406 238.578125 319.613281 239.359375 C 319.152344 240.488281 318.773438 241.65625 318.410156 242.847656 C 318.054688 244.027344 317.738281 245.195312 317.464844 246.199219 L 317.476562 246.1875 C 316.5 249.761719 315.460938 253.394531 313.902344 256.617188 C 312.332031 259.835938 310.328125 262.597656 307.273438 264.839844 L 307.285156 264.839844 C 304.867188 266.585938 302.222656 267.613281 299.535156 268.191406 C 296.855469 268.78125 294.175781 268.910156 291.878906 268.910156 C 290.203125 268.910156 288.410156 268.839844 286.53125 268.757812 L 286.507812 268.757812 C 285.058594 268.699219 283.488281 268.613281 281.835938 268.613281 C 280.46875 268.613281 279.429688 268.675781 278.570312 268.78125 C 277.707031 268.886719 277.046875 269.003906 276.339844 269.242188 L 278.261719 274.972656 L 276.410156 269.214844 C 275.148438 269.652344 274.558594 270.054688 273.851562 270.480469 C 272.859375 271.117188 271.902344 271.824219 270.960938 272.542969 C 270.027344 273.261719 269.121094 273.984375 268.398438 274.574219 C 265.628906 276.800781 262.632812 279.171875 259.375 280.929688 C 256.105469 282.6875 252.710938 283.820312 248.851562 283.820312 L 248.851562 295.902344 C 255.164062 295.902344 260.648438 293.980469 265.121094 291.5625 C 269.59375 289.140625 273.179688 286.214844 275.960938 283.988281 C 276.929688 283.207031 278.097656 282.277344 279.089844 281.546875 C 279.585938 281.179688 280.03125 280.871094 280.304688 280.695312 L 280.550781 280.542969 L 279.300781 278.171875 L 280.125 280.71875 C 280.480469 280.601562 280.550781 280.542969 280.550781 280.542969 L 279.300781 278.171875 L 280.125 280.71875 L 280.199219 280.695312 L 279.195312 277.710938 L 279.820312 280.800781 L 280.199219 280.695312 L 279.195312 277.710938 L 279.820312 280.800781 L 279.808594 280.71875 L 279.820312 280.800781 L 279.808594 280.71875 L 279.820312 280.800781 C 279.902344 280.777344 280.527344 280.695312 281.835938 280.695312 C 283.089844 280.695312 284.492188 280.765625 286.027344 280.824219 L 286.003906 280.824219 C 287.890625 280.90625 289.859375 280.992188 291.878906 280.992188 C 294.625 280.992188 298.1875 280.847656 302.117188 280 C 306.035156 279.148438 310.351562 277.546875 314.386719 274.609375 L 314.398438 274.609375 C 319.375 270.984375 322.621094 266.363281 324.78125 261.878906 C 326.9375 257.382812 328.128906 252.972656 329.121094 249.386719 L 329.121094 249.375 C 329.476562 248.0625 329.886719 246.578125 330.277344 245.375 C 330.464844 244.785156 330.65625 244.265625 330.785156 243.933594 L 330.914062 243.652344 L 330.265625 243.320312 L 330.890625 243.6875 L 330.914062 243.652344 L 330.265625 243.320312 L 330.890625 243.6875 L 328.367188 242.199219 L 330.738281 243.910156 L 330.890625 243.6875 L 328.367188 242.199219 L 330.738281 243.910156 L 330.726562 243.945312 L 328.238281 242.117188 L 330.539062 244.171875 L 330.726562 243.945312 L 328.238281 242.117188 L 330.539062 244.171875 L 329.792969 243.511719 L 330.5 244.21875 L 330.539062 244.171875 L 329.792969 243.511719 L 330.5 244.21875 C 330.511719 244.195312 330.75 243.980469 331.066406 243.734375 C 332.058594 242.96875 333.828125 241.789062 335.292969 240.832031 L 335.316406 240.820312 C 338.277344 238.875 342.132812 236.371094 345.804688 232.890625 C 349.460938 229.414062 352.964844 224.824219 354.886719 218.867188 C 355.960938 215.550781 356.410156 212.269531 356.410156 209.179688 C 356.386719 201.535156 353.847656 195.082031 352.03125 190.175781 L 352.03125 190.1875 C 351.511719 188.792969 350.957031 187.296875 350.570312 186.070312 C 350.367188 185.46875 350.214844 184.925781 350.132812 184.570312 L 350.0625 184.214844 L 349.96875 184.238281 L 350.0625 184.226562 L 350.0625 184.214844 L 349.96875 184.238281 L 350.0625 184.226562 L 347.832031 184.417969 L 350.074219 184.417969 L 350.0625 184.226562 L 347.832031 184.417969 L 350.074219 184.417969 L 347.84375 184.417969 L 350.0625 184.605469 L 350.074219 184.417969 L 347.84375 184.417969 L 350.0625 184.605469 L 349.367188 184.546875 L 350.0625 184.628906 L 350.0625 184.605469 L 349.367188 184.546875 L 350.0625 184.628906 C 350.050781 184.605469 350.285156 183.554688 350.675781 182.421875 C 351.066406 181.265625 351.558594 179.921875 352.03125 178.648438 L 352.03125 178.660156 C 353.847656 173.753906 356.386719 167.300781 356.410156 159.652344 C 356.410156 156.5625 355.960938 153.285156 354.886719 149.957031 C 352.964844 144 349.460938 139.421875 345.804688 135.941406 C 342.132812 132.460938 338.277344 129.972656 335.304688 128.011719 L 335.304688 128.023438 C 334.183594 127.28125 332.910156 126.445312 331.90625 125.726562 C 331.410156 125.371094 330.984375 125.039062 330.726562 124.816406 L 330.5 124.617188 L 329.839844 125.289062 L 330.550781 124.664062 L 330.5 124.617188 L 329.839844 125.289062 L 330.550781 124.664062 L 328.226562 126.726562 L 330.726562 124.898438 L 330.550781 124.664062 L 328.226562 126.726562 L 330.726562 124.898438 L 330.714844 124.875 L 328.285156 126.65625 L 330.878906 125.113281 L 330.714844 124.875 L 328.285156 126.65625 L 330.878906 125.113281 L 330.042969 125.605469 L 330.902344 125.171875 L 330.878906 125.113281 L 330.042969 125.605469 L 330.902344 125.171875 C 330.890625 125.148438 330.761719 124.863281 330.621094 124.472656 C 330.171875 123.269531 329.59375 121.171875 329.121094 119.460938 L 329.121094 119.449219 C 328.128906 115.863281 326.9375 111.449219 324.78125 106.957031 C 322.621094 102.472656 319.363281 97.847656 314.386719 94.238281 C 310.351562 91.300781 306.035156 89.695312 302.117188 88.835938 C 298.1875 87.984375 294.613281 87.84375 291.855469 87.84375 C 289.871094 87.84375 287.890625 87.925781 285.976562 88.019531 L 286.027344 88.007812 C 284.492188 88.078125 283.066406 88.148438 281.835938 88.148438 C 280.847656 88.148438 280.257812 88.089844 279.996094 88.066406 L 279.820312 88.042969 L 279.359375 90.285156 L 280.03125 88.089844 L 279.820312 88.042969 L 279.359375 90.285156 L 280.03125 88.089844 L 278.261719 93.871094 L 280.140625 88.125 L 279.324219 90.628906 L 280.550781 88.292969 C 280.550781 88.292969 280.480469 88.246094 280.140625 88.125 L 279.324219 90.628906 L 280.550781 88.292969 C 280.539062 88.292969 280.269531 88.125 279.925781 87.890625 C 278.875 87.183594 277.226562 85.863281 275.984375 84.859375 L 275.960938 84.847656 C 273.179688 82.617188 269.59375 79.703125 265.109375 77.285156 C 260.648438 74.867188 255.164062 72.929688 248.851562 72.941406 C 242.527344 72.929688 237.042969 74.855469 232.570312 77.285156 C 228.101562 79.703125 224.515625 82.617188 221.71875 84.859375 L 221.730469 84.847656 C 220.761719 85.625 219.582031 86.570312 218.589844 87.300781 C 218.109375 87.667969 217.660156 87.972656 217.363281 88.148438 L 217.128906 88.292969 L 218.390625 90.699219 L 217.566406 88.125 C 217.199219 88.246094 217.128906 88.304688 217.128906 88.292969 L 218.390625 90.699219 L 217.566406 88.125 L 217.421875 88.171875 L 218.542969 91.359375 L 217.847656 88.042969 L 217.421875 88.171875 L 218.542969 91.359375 L 217.847656 88.042969 L 217.90625 88.328125 L 217.859375 88.042969 L 217.847656 88.042969 L 217.90625 88.328125 L 217.859375 88.042969 C 217.789062 88.054688 217.152344 88.148438 215.855469 88.148438 C 214.617188 88.148438 213.199219 88.078125 211.703125 88.007812 L 211.726562 88.019531 C 209.800781 87.925781 207.820312 87.84375 205.816406 87.84375 C 203.078125 87.84375 199.492188 87.984375 195.574219 88.835938 C 191.644531 89.695312 187.328125 91.300781 183.292969 94.238281 L 183.304688 94.238281 C 178.316406 97.859375 175.070312 102.484375 172.914062 106.96875 C 170.742188 111.460938 169.574219 115.875 168.582031 119.460938 L 168.59375 119.414062 C 168.21875 120.757812 167.804688 122.269531 167.414062 123.460938 C 167.226562 124.0625 167.035156 124.570312 166.90625 124.886719 L 166.789062 125.171875 L 167.601562 125.582031 L 166.8125 125.113281 L 166.789062 125.171875 L 167.601562 125.582031 L 166.8125 125.113281 L 169.421875 126.667969 L 166.976562 124.875 L 166.8125 125.113281 L 169.421875 126.667969 L 166.976562 124.875 L 166.929688 124.933594 L 168.855469 126.316406 L 167.179688 124.628906 L 166.929688 124.933594 L 168.855469 126.316406 L 167.179688 124.628906 C 167.167969 124.652344 166.929688 124.863281 166.613281 125.113281 C 165.632812 125.878906 163.851562 127.058594 162.378906 128.011719 C 159.414062 129.972656 155.558594 132.460938 151.890625 135.953125 C 148.230469 139.421875 144.726562 144.011719 142.792969 149.96875 L 142.804688 149.957031 C 141.707031 153.285156 141.273438 156.5625 141.285156 159.640625 C 141.308594 167.300781 143.832031 173.753906 145.648438 178.660156 L 145.648438 178.648438 C 146.167969 180.050781 146.734375 181.550781 147.125 182.777344 C 147.324219 183.390625 147.476562 183.921875 147.558594 184.273438 L 147.628906 184.617188 L 147.785156 184.59375 L 147.628906 184.617188 L 147.785156 184.59375 L 147.628906 184.617188 L 149.871094 184.417969 L 147.617188 184.417969 L 147.628906 184.617188 L 149.871094 184.417969 L 147.617188 184.417969 L 149.882812 184.417969 L 147.628906 184.226562 L 147.617188 184.417969 L 149.882812 184.417969 L 147.628906 184.226562 L 148.375 184.289062 L 147.628906 184.203125 L 147.628906 184.226562 L 148.375 184.289062 L 147.628906 184.203125 C 147.640625 184.226562 147.394531 185.277344 147.015625 186.398438 C 146.628906 187.566406 146.121094 188.910156 145.648438 190.1875 L 145.648438 190.175781 C 143.832031 195.082031 141.308594 201.546875 141.285156 209.191406 C 141.273438 212.28125 141.71875 215.550781 142.792969 218.878906 C 144.738281 224.835938 148.242188 229.414062 151.902344 232.890625 C 155.558594 236.371094 159.414062 238.875 162.378906 240.820312 L 162.402344 240.832031 C 163.519531 241.5625 164.796875 242.402344 165.796875 243.121094 C 166.292969 243.476562 166.71875 243.804688 166.964844 244.015625 L 167.179688 244.207031 L 168.867188 242.507812 L 166.929688 243.898438 L 167.179688 244.207031 L 168.867188 242.507812 L 166.929688 243.898438 L 166.964844 243.945312 L 169.382812 242.175781 L 166.8125 243.710938 L 166.964844 243.945312 L 169.382812 242.175781 L 166.8125 243.710938 L 167.625 243.226562 L 166.777344 243.664062 L 166.8125 243.710938 L 167.625 243.226562 L 166.777344 243.664062 C 166.789062 243.6875 166.929688 243.96875 167.074219 244.359375 C 167.519531 245.574219 168.109375 247.664062 168.59375 249.421875 L 168.582031 249.386719 C 169.574219 252.972656 170.742188 257.371094 172.914062 261.867188 C 175.070312 266.363281 178.316406 270.984375 183.292969 274.609375 C 187.339844 277.546875 191.660156 279.148438 195.574219 280 C 199.492188 280.847656 203.078125 280.992188 205.816406 280.992188 C 207.820312 280.992188 209.800781 280.90625 211.691406 280.824219 L 211.667969 280.824219 C 213.199219 280.765625 214.605469 280.695312 215.84375 280.695312 C 216.84375 280.695312 217.449219 280.742188 217.71875 280.777344 L 217.859375 280.789062 L 217.871094 280.800781 L 218.449219 277.839844 L 217.484375 280.683594 L 217.871094 280.800781 L 218.449219 277.839844 L 217.484375 280.683594 L 217.566406 280.71875 L 218.378906 278.171875 L 217.140625 280.542969 C 217.140625 280.542969 217.210938 280.601562 217.566406 280.71875 L 218.378906 278.171875 L 217.140625 280.542969 C 217.152344 280.554688 217.421875 280.707031 217.765625 280.941406 C 218.816406 281.664062 220.480469 282.972656 221.71875 283.988281 C 224.515625 286.214844 228.089844 289.140625 232.570312 291.5625 C 237.042969 293.980469 242.527344 295.902344 248.851562 295.902344 L 248.851562 289.863281 " fill-opacity="1" fill-rule="nonzero"/></svg>