<svg xmlns="http://www.w3.org/2000/svg" xmlns:xlink="http://www.w3.org/1999/xlink" width="1080" zoomAndPan="magnify" viewBox="0 0 810 809.999993" height="1080" preserveAspectRatio="xMidYMid meet" version="1.0"><defs><clipPath id="090cfeb1ee"><path d="M 0 30.882812 L 810 30.882812 L 810 779.382812 L 0 779.382812 Z M 0 30.882812 " clip-rule="nonzero"/></clipPath></defs><g clip-path="url(#090cfeb1ee)"><path fill="#ffffff" d="M 738.519531 489.765625 C 744.9375 462.074219 748.214844 433.59375 748.214844 404.914062 C 748.214844 304.984375 709.300781 211.042969 638.644531 140.386719 C 567.988281 69.730469 474.058594 30.832031 374.132812 30.832031 C 274.207031 30.832031 180.261719 69.746094 109.605469 140.402344 C 38.96875 211.042969 0.0507812 304.984375 0.0507812 404.914062 C 0.0507812 504.839844 38.96875 598.785156 109.621094 669.441406 C 180.277344 740.09375 274.222656 779.011719 374.148438 779.011719 C 463.203125 779.011719 548.898438 747.421875 616.496094 689.90625 C 636.945312 706.707031 663.089844 716.824219 691.574219 716.824219 C 756.851562 716.824219 809.964844 663.710938 809.964844 598.429688 C 809.949219 549.820312 780.511719 507.980469 738.519531 489.765625 Z M 20.214844 404.914062 C 20.214844 209.765625 178.984375 50.996094 374.132812 50.996094 C 569.28125 50.996094 728.066406 209.765625 728.066406 404.914062 C 728.066406 431.410156 725.128906 457.742188 719.332031 483.347656 C 710.410156 481.199219 701.117188 480.019531 691.554688 480.019531 C 669.777344 480.019531 649.363281 485.953125 631.820312 496.269531 L 631.820312 403.0625 C 631.820312 397.503906 627.300781 392.984375 621.738281 392.984375 L 556.898438 392.984375 C 545.554688 392.984375 535.996094 400.628906 533.019531 411.027344 L 449.679688 384.832031 C 434.742188 380.144531 420.339844 380.480469 405.65625 385.875 L 399.253906 388.226562 L 331.976562 375.492188 C 317.070312 372.667969 303.511719 373.808594 289.277344 379.085938 L 213.75 407.078125 C 209.71875 398.761719 201.230469 393.015625 191.386719 393.015625 L 126.542969 393.015625 C 120.980469 393.015625 116.460938 397.535156 116.460938 403.097656 L 116.460938 562.625 C 116.460938 568.1875 120.980469 572.707031 126.542969 572.707031 L 191.386719 572.707031 C 198.996094 572.707031 205.820312 569.261719 210.390625 563.832031 C 247.105469 606.058594 282.054688 634.960938 349.734375 665.996094 C 356.894531 669.273438 363.730469 670.882812 370.066406 670.882812 C 381.542969 670.882812 391.324219 665.574219 398.226562 655.222656 C 402.007812 649.5625 404.007812 643.074219 404.195312 636.421875 C 405.90625 636.691406 407.636719 636.824219 409.351562 636.824219 C 420.339844 636.824219 431.128906 631.515625 437.664062 621.703125 C 440.539062 617.402344 442.25 612.664062 442.957031 607.855469 C 447.023438 609.539062 451.375 610.429688 455.796875 610.429688 C 458.046875 610.429688 460.316406 610.210938 462.566406 609.757812 C 471.472656 607.976562 479.152344 602.851562 484.160156 595.320312 C 487.6875 590.03125 489.484375 584.082031 489.769531 578.148438 C 491.113281 578.316406 492.476562 578.417969 493.851562 578.417969 C 496.105469 578.417969 498.375 578.199219 500.625 577.746094 C 509.53125 575.964844 517.210938 570.839844 522.214844 563.3125 C 524.570312 559.785156 526.148438 555.953125 527.023438 552.039062 L 532.398438 552.039062 C 534.398438 563.75 544.597656 572.707031 556.882812 572.707031 L 576.003906 572.707031 C 574.152344 581.007812 573.144531 589.609375 573.144531 598.449219 C 573.144531 627.96875 584.035156 654.988281 601.980469 675.757812 C 538.246094 729.425781 457.761719 758.882812 374.117188 758.882812 C 178.984375 758.832031 20.214844 600.0625 20.214844 404.914062 Z M 582.4375 552.507812 L 556.898438 552.507812 C 554.359375 552.507812 552.210938 550.359375 552.210938 547.820312 L 552.210938 424.539062 C 552.210938 424.503906 552.210938 424.472656 552.210938 424.453125 L 552.210938 417.867188 C 552.210938 415.332031 554.359375 413.179688 556.898438 413.179688 L 611.65625 413.179688 L 611.65625 511.171875 C 599.15625 522.582031 589.125 536.679688 582.4375 552.507812 Z M 525.460938 531.839844 C 523.007812 525.675781 518.722656 520.144531 512.789062 516.199219 L 405.636719 444.785156 C 402.96875 443.003906 399.589844 442.601562 396.582031 443.710938 L 355.917969 458.613281 C 352.054688 460.027344 347.855469 459.839844 344.074219 458.09375 C 340.292969 456.347656 337.4375 453.253906 336.023438 449.390625 C 334.613281 445.523438 334.796875 441.324219 336.546875 437.542969 C 338.292969 433.761719 341.382812 430.90625 345.25 429.496094 L 412.59375 404.792969 C 423.097656 400.945312 432.960938 400.710938 443.628906 404.074219 L 532.046875 431.863281 L 532.046875 531.839844 Z M 486.308594 555.9375 L 474.730469 548.222656 L 400.984375 499.074219 C 396.347656 495.984375 390.097656 497.242188 387.003906 501.882812 C 383.914062 506.519531 385.171875 512.769531 389.808594 515.863281 L 463.558594 565.011719 C 469.875 569.226562 471.605469 577.8125 467.390625 584.132812 C 465.355469 587.171875 462.246094 589.257812 458.617188 589.980469 C 454.988281 590.703125 451.308594 589.980469 448.265625 587.960938 L 374.519531 538.8125 C 369.882812 535.722656 363.632812 536.984375 360.539062 541.621094 C 357.449219 546.257812 358.707031 552.507812 363.347656 555.601562 L 417.082031 591.40625 C 423.414062 595.625 425.128906 604.210938 420.914062 610.527344 C 416.695312 616.863281 408.109375 618.578125 401.773438 614.359375 L 388.28125 605.371094 C 388.28125 605.371094 388.265625 605.355469 388.265625 605.355469 L 348.039062 578.554688 C 343.402344 575.460938 337.148438 576.722656 334.058594 581.359375 C 330.964844 585.996094 332.226562 592.246094 336.863281 595.339844 L 377.089844 622.140625 C 380.585938 624.457031 382.953125 628.039062 383.792969 632.1875 C 384.636719 636.339844 383.8125 640.554688 381.476562 644.050781 C 377.863281 649.460938 372.269531 654.132812 358.171875 647.664062 C 287.683594 615.335938 255.640625 586.769531 216.269531 539.605469 L 216.269531 427.664062 L 296.300781 397.988281 C 307.089844 393.992188 316.9375 393.152344 328.226562 395.300781 L 362.355469 401.753906 L 338.308594 410.558594 C 329.386719 413.835938 322.261719 420.40625 318.246094 429.058594 C 314.230469 437.730469 313.828125 447.40625 317.085938 456.328125 C 320.347656 465.25 326.933594 472.375 335.585938 476.390625 C 344.242188 480.40625 353.9375 480.8125 362.859375 477.550781 L 398.714844 464.410156 L 501.617188 532.984375 C 507.949219 537.203125 509.664062 545.789062 505.449219 552.121094 C 503.414062 555.164062 500.304688 557.246094 496.675781 557.96875 C 493.03125 558.675781 489.351562 557.953125 486.308594 555.9375 Z M 196.089844 417.851562 L 196.089844 547.820312 C 196.089844 550.359375 193.941406 552.507812 191.402344 552.507812 L 136.625 552.507812 L 136.625 413.144531 L 191.386719 413.144531 C 193.941406 413.144531 196.089844 415.296875 196.089844 417.851562 Z M 691.554688 696.644531 C 637.398438 696.644531 593.328125 652.585938 593.328125 598.414062 C 593.328125 544.242188 637.382812 500.183594 691.554688 500.183594 C 745.726562 500.183594 789.785156 544.257812 789.785156 598.414062 C 789.785156 652.570312 745.726562 696.644531 691.554688 696.644531 Z M 743.828125 562.539062 C 747.761719 566.472656 747.761719 572.855469 743.828125 576.789062 L 686.328125 634.289062 C 684.449219 636.1875 681.878906 637.246094 679.207031 637.246094 C 676.535156 637.246094 673.964844 636.1875 672.082031 634.289062 L 639.28125 601.503906 C 635.351562 597.574219 635.351562 591.1875 639.28125 587.257812 C 643.214844 583.324219 649.597656 583.324219 653.546875 587.257812 L 679.207031 612.914062 L 729.582031 562.539062 C 733.511719 558.589844 739.878906 558.589844 743.828125 562.539062 Z M 382.382812 351.226562 C 440.925781 351.226562 488.558594 303.589844 488.558594 245.050781 C 488.558594 186.507812 440.925781 138.875 382.382812 138.875 C 323.84375 138.875 276.207031 186.507812 276.207031 245.050781 C 276.207031 303.589844 323.84375 351.226562 382.382812 351.226562 Z M 382.382812 159.035156 C 429.800781 159.035156 468.398438 197.617188 468.398438 245.050781 C 468.398438 292.484375 429.816406 331.0625 382.382812 331.0625 C 334.964844 331.0625 296.371094 292.484375 296.371094 245.050781 C 296.371094 197.617188 334.964844 159.035156 382.382812 159.035156 Z M 347.972656 222.953125 C 347.972656 208.789062 358.203125 196.757812 372.300781 192.625 L 372.300781 184.105469 C 372.300781 178.542969 376.820312 174.023438 382.382812 174.023438 C 387.945312 174.023438 392.464844 178.542969 392.464844 184.105469 L 392.464844 192.304688 C 403.351562 195.078125 412.324219 202.539062 416.140625 212.605469 C 418.105469 217.8125 415.484375 223.625 410.277344 225.609375 C 405.066406 227.574219 399.253906 224.953125 397.269531 219.746094 C 395.390625 214.753906 389.507812 211.257812 383.003906 211.257812 C 374.941406 211.257812 368.132812 216.621094 368.132812 222.953125 C 368.132812 229.070312 371.042969 231.203125 385.457031 235.605469 C 397.925781 239.421875 416.777344 245.183594 416.777344 267.128906 C 416.777344 281.292969 406.546875 293.324219 392.449219 297.457031 L 392.449219 305.976562 C 392.449219 311.539062 387.929688 316.058594 382.367188 316.058594 C 376.804688 316.058594 372.285156 311.539062 372.285156 305.976562 L 372.285156 297.777344 C 361.414062 295.003906 352.425781 287.542969 348.609375 277.480469 C 346.644531 272.269531 349.265625 266.457031 354.472656 264.472656 C 359.683594 262.492188 365.496094 265.128906 367.480469 270.320312 C 369.378906 275.3125 375.242188 278.808594 381.761719 278.808594 C 389.828125 278.808594 396.632812 273.445312 396.632812 267.113281 C 396.632812 261.265625 393.757812 259.214844 379.578125 254.878906 C 366.992188 251.050781 347.972656 245.234375 347.972656 222.953125 Z M 347.972656 222.953125 " fill-opacity="1" fill-rule="nonzero"/></g></svg>
