<svg xmlns="http://www.w3.org/2000/svg" xmlns:xlink="http://www.w3.org/1999/xlink" width="1080" zoomAndPan="magnify" viewBox="0 0 810 809.999993" height="1080" preserveAspectRatio="xMidYMid meet" version="1.0"><path fill="#ffffff" d="M 408.449219 483 C 415.351562 483 420.996094 477.355469 420.996094 470.457031 L 420.996094 460.417969 C 425.386719 458.535156 429.148438 456.027344 432.285156 452.265625 C 437.933594 445.992188 440.441406 437.835938 440.441406 429.683594 C 440.441406 413.375 429.148438 396.4375 407.195312 396.4375 L 398.414062 396.4375 C 390.886719 396.4375 390.257812 390.164062 390.257812 387.65625 C 390.257812 385.144531 390.886719 383.265625 392.140625 382.007812 C 393.394531 380.753906 395.277344 379.5 398.414062 379.5 L 422.25 379.5 C 429.148438 379.5 434.796875 373.855469 434.796875 366.953125 C 434.796875 360.054688 429.148438 354.410156 422.25 354.410156 L 420.367188 354.410156 L 420.367188 345 C 420.367188 338.101562 414.722656 332.453125 407.824219 332.453125 C 400.921875 332.453125 395.277344 338.101562 395.277344 345 L 395.277344 354.410156 C 375.203125 355.664062 365.167969 371.972656 365.167969 387.65625 C 365.167969 403.964844 377.085938 421.527344 398.414062 421.527344 L 407.195312 421.527344 C 414.09375 421.527344 415.351562 426.546875 415.351562 429.683594 C 415.351562 432.191406 414.722656 434.074219 413.46875 435.957031 C 412.214844 437.835938 410.332031 438.464844 407.195312 438.464844 L 383.359375 438.464844 C 376.460938 438.464844 370.8125 444.109375 370.8125 451.007812 C 370.8125 457.910156 376.460938 463.554688 383.359375 463.554688 L 395.90625 463.554688 L 395.90625 470.457031 C 395.90625 477.355469 401.550781 483 408.449219 483 Z M 408.449219 483 " fill-opacity="1" fill-rule="nonzero"/><path fill="#ffffff" d="M 449.222656 496.800781 C 452.988281 498.054688 456.121094 499.9375 459.257812 501.191406 C 466.160156 504.328125 472.433594 506.835938 477.449219 508.71875 C 490.621094 499.308594 501.914062 486.765625 510.066406 472.964844 C 503.167969 467.945312 496.894531 462.300781 490.621094 456.65625 C 481.214844 474.21875 466.785156 488.019531 449.222656 496.800781 Z M 449.222656 496.800781 " fill-opacity="1" fill-rule="nonzero"/><path fill="#ffffff" d="M 331.921875 478.609375 C 314.359375 460.417969 303.066406 435.328125 303.066406 407.726562 C 303.066406 352.527344 348.230469 307.363281 403.433594 307.363281 C 420.367188 307.363281 436.675781 311.753906 451.105469 319.28125 C 452.988281 311.128906 455.496094 302.972656 458.632812 294.820312 C 442.324219 286.664062 423.503906 282.273438 404.058594 282.273438 C 335.058594 282.273438 278.605469 338.726562 278.605469 407.726562 C 278.605469 435.957031 288.011719 461.671875 303.695312 483 C 313.105469 481.117188 322.511719 479.238281 331.921875 478.609375 Z M 331.921875 478.609375 " fill-opacity="1" fill-rule="nonzero"/><path fill="#ffffff" d="M 792.339844 513.738281 C 786.070312 506.835938 771.015625 496.800781 746.550781 504.328125 C 731.496094 508.71875 683.824219 542.589844 644.933594 571.445312 C 648.070312 580.855469 648.695312 590.265625 648.070312 600.300781 C 693.859375 565.800781 742.785156 531.300781 754.078125 528.164062 C 760.351562 526.28125 769.132812 525.027344 774.777344 531.300781 C 780.421875 536.945312 781.679688 547.609375 778.542969 557.019531 C 769.757812 583.363281 602.90625 721.363281 534.53125 759 C 474.941406 792.246094 435.421875 773.429688 406.566406 759.628906 C 375.832031 745.199219 311.222656 720.109375 253.511719 710.074219 L 253.511719 715.09375 C 253.511719 721.992188 252.257812 728.890625 251.003906 735.164062 C 305.578125 745.199219 367.675781 769.039062 395.90625 782.835938 C 413.46875 790.992188 438.558594 802.910156 470.550781 802.910156 C 492.503906 802.910156 518.222656 797.265625 547.078125 780.957031 C 607.296875 747.710938 789.203125 604.691406 803.003906 565.171875 C 808.023438 546.355469 804.257812 526.28125 792.339844 513.738281 Z M 792.339844 513.738281 " fill-opacity="1" fill-rule="nonzero"/><path fill="#ffffff" d="M 369.558594 527.535156 C 400.296875 530.671875 420.996094 539.457031 438.558594 547.609375 C 449.222656 552.628906 459.886719 557.019531 471.175781 559.527344 C 484.976562 562.664062 501.285156 562.664062 518.851562 563.292969 C 548.332031 563.917969 582.203125 565.171875 592.867188 578.972656 C 596.632812 583.992188 599.769531 593.402344 596.632812 602.808594 C 593.496094 612.21875 585.339844 619.746094 572.167969 623.511719 C 538.921875 634.171875 447.339844 643.582031 409.703125 638.566406 C 402.804688 637.308594 396.53125 642.328125 395.277344 649.226562 C 394.648438 656.128906 399.039062 662.402344 405.941406 663.65625 C 414.09375 664.910156 424.132812 665.539062 436.050781 665.539062 C 483.09375 665.539062 550.214844 657.382812 579.070312 647.972656 C 599.769531 641.699219 614.195312 628.527344 619.839844 610.964844 C 624.859375 595.28125 621.722656 576.464844 611.6875 563.917969 C 593.496094 540.710938 555.230469 539.457031 518.222656 538.199219 C 501.914062 537.574219 486.230469 537.574219 474.941406 535.0625 C 466.160156 533.183594 457.378906 529.417969 447.339844 524.402344 C 428.523438 516.246094 405.3125 505.582031 370.1875 502.445312 C 331.921875 498.683594 278.605469 513.109375 245.359375 523.144531 C 248.496094 530.671875 250.378906 538.828125 251.003906 547.609375 C 283.621094 538.199219 335.058594 524.402344 369.558594 527.535156 Z M 369.558594 527.535156 " fill-opacity="1" fill-rule="nonzero"/><path fill="#ffffff" d="M 177.613281 501.820312 L 14.523438 501.820312 C 7.621094 501.820312 1.976562 507.464844 1.976562 514.363281 C 1.976562 521.265625 7.621094 526.910156 14.523438 526.910156 L 114.886719 526.910156 L 114.886719 740.183594 L 14.523438 740.183594 C 7.621094 740.183594 1.976562 745.828125 1.976562 752.726562 C 1.976562 759.628906 7.621094 765.273438 14.523438 765.273438 L 177.613281 765.273438 C 205.214844 765.273438 227.796875 742.691406 227.796875 715.09375 L 227.796875 552 C 227.796875 524.402344 205.214844 501.820312 177.613281 501.820312 Z M 202.703125 715.09375 C 202.703125 728.890625 191.414062 740.183594 177.613281 740.183594 L 139.976562 740.183594 L 139.976562 526.910156 L 177.613281 526.910156 C 191.414062 526.910156 202.703125 538.199219 202.703125 552 Z M 202.703125 715.09375 " fill-opacity="1" fill-rule="nonzero"/><path fill="#ffffff" d="M 597.886719 476.726562 C 666.886719 476.726562 723.339844 420.273438 723.339844 351.273438 C 723.339844 282.273438 666.886719 225.820312 597.886719 225.820312 C 528.886719 225.820312 472.433594 282.273438 472.433594 351.273438 C 472.433594 420.273438 528.886719 476.726562 597.886719 476.726562 Z M 597.886719 250.910156 C 653.085938 250.910156 698.25 296.074219 698.25 351.273438 C 698.25 406.472656 653.085938 451.636719 597.886719 451.636719 C 542.6875 451.636719 497.523438 406.472656 497.523438 351.273438 C 497.523438 296.074219 542.6875 250.910156 597.886719 250.910156 Z M 597.886719 250.910156 " fill-opacity="1" fill-rule="nonzero"/><path fill="#ffffff" d="M 593.496094 365.074219 L 602.277344 365.074219 C 609.175781 365.074219 610.433594 370.089844 610.433594 373.226562 C 610.433594 375.738281 609.804688 377.617188 608.550781 379.5 C 607.296875 381.382812 605.414062 382.007812 602.277344 382.007812 L 578.441406 382.007812 C 571.542969 382.007812 565.894531 387.65625 565.894531 394.554688 C 565.894531 401.453125 571.542969 407.101562 578.441406 407.101562 L 590.988281 407.101562 L 590.988281 414 C 590.988281 420.902344 596.632812 426.546875 603.53125 426.546875 C 610.433594 426.546875 616.078125 420.902344 616.078125 414 L 616.078125 403.964844 C 620.46875 402.082031 624.230469 399.574219 627.367188 395.808594 C 633.015625 389.535156 635.523438 381.382812 635.523438 373.226562 C 635.523438 356.917969 624.230469 339.980469 602.277344 339.980469 L 593.496094 339.980469 C 585.96875 339.980469 585.339844 333.710938 585.339844 331.199219 C 585.339844 328.691406 585.96875 326.808594 587.222656 325.554688 C 588.476562 324.300781 590.359375 323.046875 593.496094 323.046875 L 617.332031 323.046875 C 624.230469 323.046875 629.878906 317.402344 629.878906 310.5 C 629.878906 303.601562 624.230469 297.953125 617.332031 297.953125 L 615.449219 297.953125 L 615.449219 288.546875 C 615.449219 281.644531 609.804688 276 602.90625 276 C 596.003906 276 590.359375 281.644531 590.359375 288.546875 L 590.359375 297.953125 C 570.285156 299.210938 560.25 315.519531 560.25 331.199219 C 560.25 347.507812 572.167969 365.074219 593.496094 365.074219 Z M 593.496094 365.074219 " fill-opacity="1" fill-rule="nonzero"/><path fill="#ffffff" d="M 597.886719 200.726562 C 604.785156 200.726562 610.433594 195.082031 610.433594 188.183594 L 610.433594 75.273438 C 610.433594 68.371094 604.785156 62.726562 597.886719 62.726562 C 590.988281 62.726562 585.339844 68.371094 585.339844 75.273438 L 585.339844 188.183594 C 585.339844 195.082031 590.988281 200.726562 597.886719 200.726562 Z M 597.886719 200.726562 " fill-opacity="1" fill-rule="nonzero"/><path fill="#ffffff" d="M 597.886719 37.636719 C 604.785156 37.636719 610.433594 31.992188 610.433594 25.089844 L 610.433594 12.546875 C 610.433594 5.644531 604.785156 0 597.886719 0 C 590.988281 0 585.339844 5.644531 585.339844 12.546875 L 585.339844 25.089844 C 585.339844 31.992188 590.988281 37.636719 597.886719 37.636719 Z M 597.886719 37.636719 " fill-opacity="1" fill-rule="nonzero"/><path fill="#ffffff" d="M 685.703125 219.546875 C 692.605469 219.546875 698.25 213.898438 698.25 207 L 698.25 94.089844 C 698.25 87.191406 692.605469 81.546875 685.703125 81.546875 C 678.804688 81.546875 673.160156 87.191406 673.160156 94.089844 L 673.160156 207 C 673.160156 213.898438 678.804688 219.546875 685.703125 219.546875 Z M 685.703125 219.546875 " fill-opacity="1" fill-rule="nonzero"/><path fill="#ffffff" d="M 685.703125 56.453125 C 692.605469 56.453125 698.25 50.808594 698.25 43.910156 L 698.25 31.363281 C 698.25 24.464844 692.605469 18.816406 685.703125 18.816406 C 678.804688 18.816406 673.160156 24.464844 673.160156 31.363281 L 673.160156 43.910156 C 673.160156 50.808594 678.804688 56.453125 685.703125 56.453125 Z M 685.703125 56.453125 " fill-opacity="1" fill-rule="nonzero"/><path fill="#ffffff" d="M 510.066406 219.546875 C 516.96875 219.546875 522.613281 213.898438 522.613281 207 L 522.613281 94.089844 C 522.613281 87.191406 516.96875 81.546875 510.066406 81.546875 C 503.167969 81.546875 497.523438 87.191406 497.523438 94.089844 L 497.523438 207 C 497.523438 213.898438 503.167969 219.546875 510.066406 219.546875 Z M 510.066406 219.546875 " fill-opacity="1" fill-rule="nonzero"/><path fill="#ffffff" d="M 510.066406 56.453125 C 516.96875 56.453125 522.613281 50.808594 522.613281 43.910156 L 522.613281 31.363281 C 522.613281 24.464844 516.96875 18.816406 510.066406 18.816406 C 503.167969 18.816406 497.523438 24.464844 497.523438 31.363281 L 497.523438 43.910156 C 497.523438 50.808594 503.167969 56.453125 510.066406 56.453125 Z M 510.066406 56.453125 " fill-opacity="1" fill-rule="nonzero"/></svg>