<svg xmlns="http://www.w3.org/2000/svg" xmlns:xlink="http://www.w3.org/1999/xlink" width="1080" zoomAndPan="magnify" viewBox="0 0 810 809.999993" height="1080" preserveAspectRatio="xMidYMid meet" version="1.0"><defs><clipPath id="6bb0fc034a"><path d="M 131.625 85 L 678.375 85 L 678.375 810 L 131.625 810 Z M 131.625 85 " clip-rule="nonzero"/></clipPath></defs><g clip-path="url(#6bb0fc034a)"><path fill="#ffffff" d="M 621.691406 85.234375 L 532.859375 85.234375 C 533.492188 88.53125 533.820312 91.933594 533.820312 95.417969 L 533.820312 133.726562 L 621.402344 133.726562 C 625.890625 133.726562 629.539062 137.375 629.539062 141.863281 L 629.539062 598.363281 C 629.621094 598.386719 629.722656 598.386719 629.804688 598.386719 L 629.804688 752.394531 C 629.804688 756.863281 626.15625 760.511719 621.691406 760.511719 L 188.332031 760.511719 C 183.84375 760.511719 180.195312 756.863281 180.195312 752.394531 L 180.195312 141.863281 C 180.195312 137.375 183.84375 133.726562 188.332031 133.726562 L 275.914062 133.726562 L 275.914062 95.417969 C 275.914062 91.933594 276.242188 88.53125 276.855469 85.234375 L 188.332031 85.234375 C 157.074219 85.234375 131.679688 110.628906 131.679688 141.863281 L 131.679688 752.394531 C 131.679688 783.632812 157.074219 809.027344 188.332031 809.027344 L 621.691406 809.027344 C 652.925781 809.027344 678.320312 783.632812 678.320312 752.394531 L 678.320312 141.863281 C 678.320312 110.628906 652.925781 85.234375 621.691406 85.234375 " fill-opacity="1" fill-rule="nonzero"/></g><path fill="#ffffff" d="M 405 92.898438 C 388.070312 92.898438 374.359375 79.1875 374.359375 62.257812 C 374.359375 45.328125 388.070312 31.613281 405 31.613281 C 421.929688 31.613281 435.640625 45.328125 435.640625 62.257812 C 435.640625 79.1875 421.929688 92.898438 405 92.898438 Z M 512.257812 95.417969 C 512.257812 77.445312 497.683594 62.871094 479.691406 62.871094 L 466.265625 62.871094 C 466.265625 62.667969 466.304688 62.460938 466.304688 62.257812 C 466.304688 28.417969 438.839844 0.972656 405 0.972656 C 371.140625 0.972656 343.714844 28.417969 343.714844 62.257812 C 343.714844 62.460938 343.734375 62.667969 343.734375 62.871094 L 330.308594 62.871094 C 312.316406 62.871094 297.742188 77.445312 297.742188 95.417969 L 297.742188 133.769531 L 512.257812 133.769531 L 512.257812 95.417969 " fill-opacity="1" fill-rule="nonzero"/><path fill="#ffffff" d="M 414.980469 364.664062 C 412.335938 365.378906 409.285156 365.6875 405.859375 365.6875 C 398.378906 365.6875 392.3125 364.046875 387.578125 360.746094 C 383.765625 357.140625 380.609375 351.933594 378.007812 345.210938 L 377.351562 345.519531 L 349.394531 355.953125 C 355.5625 375.257812 368.332031 386.921875 387.742188 390.898438 C 388.398438 391.042969 389.113281 391.144531 389.769531 391.308594 L 389.769531 411.824219 L 420.230469 411.824219 L 420.230469 391.207031 C 420.78125 391.101562 421.292969 391 421.808594 390.898438 C 427.609375 389.667969 432.753906 387.886719 437.136719 385.488281 C 441.976562 382.945312 445.992188 379.644531 449.148438 375.730469 C 456.324219 366.855469 459.953125 356.832031 459.953125 345.722656 C 459.953125 337.257812 457.964844 329.839844 453.945312 323.464844 C 449.929688 317.089844 444.679688 312.171875 438.265625 308.644531 C 431.789062 305.078125 422.871094 301.472656 411.414062 297.84375 C 398.726562 293.785156 390.53125 290.363281 386.820312 287.71875 C 383.152344 285.074219 381.265625 281.097656 381.265625 275.890625 C 381.265625 270.910156 383.152344 266.628906 386.820312 263.0625 C 388.910156 261.074219 391.617188 259.699219 395.019531 258.796875 C 397.664062 258.121094 400.714844 257.773438 404.140625 257.773438 C 411.578125 257.773438 417.6875 259.453125 422.421875 262.710938 C 426.234375 266.382812 429.390625 271.566406 431.992188 278.25 L 432.648438 278.003906 L 460.605469 267.550781 C 454.457031 248.261719 441.667969 236.578125 422.257812 232.5625 C 421.601562 232.460938 420.886719 232.316406 420.230469 232.214844 L 420.230469 211.636719 L 389.769531 211.636719 L 389.769531 232.316406 C 389.21875 232.398438 388.707031 232.519531 388.191406 232.601562 C 382.390625 233.832031 377.289062 235.617188 372.863281 238.015625 C 368.023438 240.554688 364.007812 243.816406 360.851562 247.792969 C 353.675781 256.644531 350.046875 266.6875 350.046875 277.738281 C 350.046875 286.242188 352.035156 293.683594 356.054688 300.035156 C 360.09375 306.410156 365.339844 311.351562 371.734375 314.855469 C 378.210938 318.421875 387.128906 321.988281 398.585938 325.617188 C 411.273438 329.738281 419.511719 333.097656 423.179688 335.804688 C 426.910156 338.449219 428.734375 342.402344 428.734375 347.609375 C 428.734375 352.589844 426.910156 356.832031 423.179688 360.378906 C 421.089844 362.386719 418.40625 363.800781 414.980469 364.664062 " fill-opacity="1" fill-rule="nonzero"/><path fill="#ffffff" d="M 578.050781 469.851562 L 340.703125 469.851562 C 333.46875 469.851562 327.5625 475.753906 327.5625 483.011719 C 327.5625 490.265625 333.46875 496.167969 340.703125 496.167969 L 578.050781 496.167969 C 585.308594 496.167969 591.210938 490.265625 591.210938 483.011719 C 591.210938 475.753906 585.308594 469.851562 578.050781 469.851562 " fill-opacity="1" fill-rule="nonzero"/><path fill="#ffffff" d="M 578.050781 553.457031 L 340.703125 553.457031 C 333.46875 553.457031 327.5625 559.359375 327.5625 566.617188 C 327.5625 573.871094 333.46875 579.773438 340.703125 579.773438 L 578.050781 579.773438 C 585.308594 579.773438 591.210938 573.871094 591.210938 566.617188 C 591.210938 559.359375 585.308594 553.457031 578.050781 553.457031 " fill-opacity="1" fill-rule="nonzero"/><path fill="#ffffff" d="M 578.050781 637.0625 L 340.703125 637.0625 C 333.46875 637.0625 327.5625 642.964844 327.5625 650.222656 C 327.5625 657.476562 333.46875 663.378906 340.703125 663.378906 L 578.050781 663.378906 C 585.308594 663.378906 591.210938 657.476562 591.210938 650.222656 C 591.210938 642.964844 585.308594 637.0625 578.050781 637.0625 " fill-opacity="1" fill-rule="nonzero"/><path fill="#ffffff" d="M 254.820312 481.371094 C 252.421875 484.609375 250.269531 488.050781 247.851562 491.578125 C 245.3125 486.800781 242.585938 482.332031 239.183594 478.316406 C 238.15625 477.085938 237.011719 476.101562 235.269531 476.65625 C 230.371094 478.214844 225.429688 479.75 220.550781 481.433594 C 218.480469 482.148438 218.234375 483.726562 219.792969 485.347656 C 220.304688 485.878906 220.898438 486.371094 221.472656 486.882812 C 228.6875 493.382812 235.246094 500.472656 239.675781 509.183594 C 243.816406 517.28125 244.308594 516.050781 251.277344 513.46875 C 255.621094 511.847656 258.328125 509.144531 260.027344 504.734375 C 265.273438 491.148438 272.304688 478.542969 282.285156 467.761719 C 286.796875 462.902344 291.757812 458.558594 297.230469 454.808594 C 297.96875 454.292969 299.03125 453.925781 298.828125 452.757812 C 298.644531 451.648438 297.558594 451.507812 296.714844 451.160156 C 294.707031 450.316406 292.761719 450.503906 290.835938 451.464844 C 276.546875 458.679688 264.332031 468.417969 254.820312 481.371094 " fill-opacity="1" fill-rule="nonzero"/><path fill="#ffffff" d="M 298.828125 536.363281 C 298.644531 535.253906 297.558594 535.113281 296.714844 534.765625 C 294.707031 533.921875 292.761719 534.109375 290.835938 535.070312 C 276.546875 542.285156 264.332031 552.023438 254.820312 564.957031 C 252.421875 568.214844 250.269531 571.65625 247.851562 575.183594 C 245.3125 570.40625 242.585938 565.9375 239.183594 561.921875 C 238.15625 560.691406 237.011719 559.707031 235.269531 560.261719 C 230.371094 561.820312 225.429688 563.355469 220.550781 565.039062 C 218.480469 565.753906 218.234375 567.332031 219.792969 568.953125 C 220.304688 569.484375 220.898438 569.976562 221.472656 570.488281 C 228.6875 576.988281 235.246094 584.078125 239.675781 592.789062 C 243.816406 600.886719 244.308594 599.65625 251.277344 597.074219 C 255.621094 595.453125 258.328125 592.75 260.027344 588.339844 C 265.273438 574.753906 272.304688 562.148438 282.285156 551.367188 C 286.796875 546.507812 291.757812 542.164062 297.230469 538.390625 C 297.96875 537.898438 299.03125 537.53125 298.828125 536.363281 " fill-opacity="1" fill-rule="nonzero"/><path fill="#ffffff" d="M 296.714844 618.371094 C 294.707031 617.527344 292.761719 617.714844 290.835938 618.675781 C 276.546875 625.890625 264.332031 635.628906 254.820312 648.5625 C 252.421875 651.820312 250.269531 655.242188 247.851562 658.789062 C 245.3125 654.011719 242.585938 649.542969 239.183594 645.527344 C 238.15625 644.296875 237.011719 643.3125 235.269531 643.867188 C 230.371094 645.425781 225.429688 646.960938 220.550781 648.644531 C 218.480469 649.339844 218.234375 650.9375 219.792969 652.558594 C 220.304688 653.089844 220.898438 653.582031 221.472656 654.09375 C 228.6875 660.59375 235.246094 667.683594 239.675781 676.394531 C 243.816406 684.492188 244.308594 683.261719 251.277344 680.679688 C 255.621094 679.058594 258.328125 676.355469 260.027344 671.925781 C 265.273438 658.335938 272.304688 645.753906 282.285156 634.972656 C 286.796875 630.113281 291.757812 625.769531 297.230469 621.996094 C 297.96875 621.503906 299.03125 621.136719 298.828125 619.96875 C 298.644531 618.859375 297.558594 618.71875 296.714844 618.371094 " fill-opacity="1" fill-rule="nonzero"/></svg>